<mxfile host="app.diagrams.net" modified="2024-02-10T10:42:14.131Z" agent="Mozilla/5.0 (Windows NT 10.0; Win64; x64) AppleWebKit/537.36 (KHTML, like Gecko) Chrome/121.0.0.0 Safari/537.36" etag="Cuzg2-ECTnsjzUz3NdjB" version="23.0.2" type="github">
  <diagram name="Page-1" id="S3ZPLYqLpicr_mz_oAn5">
    <mxGraphModel dx="1179" dy="539" grid="1" gridSize="10" guides="1" tooltips="1" connect="1" arrows="1" fold="1" page="1" pageScale="1" pageWidth="850" pageHeight="1100" math="0" shadow="0">
      <root>
        <mxCell id="0" />
        <mxCell id="1" parent="0" />
        <mxCell id="ZofLF1qtnVRph-A0xOYS-1" value="" style="shape=image;verticalLabelPosition=bottom;labelBackgroundColor=default;verticalAlign=top;aspect=fixed;imageAspect=0;image=data:image/png,iVBORw0KGgoAAAANSUhEUgAABD0AAASbCAYAAACVscSLAAAAAXNSR0IArs4c6QAAAARnQU1BAACxjwv8YQUAAAAJcEhZcwAADsMAAA7DAcdvqGQAAP+lSURBVHhe7J0HuOVGefcv+Uilh17c7XVZ27trcOFgSAgESEgIIYmT54PEQJITwhdMM8X0biBALjXghAAmNNuhGa57wdjGlWIw7VIcirG3uNf1rt9v3pFGZySNyjn36Bxd6fd7nv9qpakajd6Zea+ks2AQhBBCCCGEEEIIoS5JMVuz84KzEUIIIYQQQggh1BLdeeedc5Nyw39/Qq5/73tlu90T0aOhuG1Vyumxfft2hNCUFDJYCCGEEEIIITSOQmuNWUm56aMflc277i4b1+wt177tX2WbPTpyfoTStUk4PRBqSCGDhRBCCCGEEELjKLTWmJWUmz72Mdm8boNc88hDZcv6A2Tj7nvKda97o2zddkfk+DAKpW2LUk6P7GMgCKHJFTJYCCGEEEIIITSOQmuNWUlJnB6DR8s1jzIaHCpbNjxCNu26h1zz8qNk6y0323htfe0FpwdCDSlksBBCCCGEEEJoHIWeXpiVFOf02DJ4tGx5lJHdPsYocn5s3HV3ueb5L5Tbr9li41vnx/b2vPaScnqEIiCEJlPIYCGEEEIIIYTQOAqtNWYlxX/Swzk93FMf9v+6PeBA6/zY8k//LLdfeaVNp+gfg7fP2QGyCpwe0V/Nw2EItVchg4UQQgghhBBC48h/mnzWUkKvt2w66BDZsu/+cs0hg/iYhj1GtjziIPvay+bDnym3/vgnNr0SyntWSjk9QhHmpe13bteWMVVT75L+f3suDkJtVshgIYQQQgghhNA4Cv2BdVZSsq+3bN5rrf2Ox00nnSQbD3mUbN57rWw5+JHW6eEcIFsecbBs3m2NbDrsb+TWy79r87Gre7NOCpXTpFrr9IicHXfKh39+iwwuvMn+3wTk4iHUVoUMFkIIIYQQQgiNo9BaY1ZSsk96bN5rH7n9l7+wYcqNp54mGx/zWOsMsc6P5ImQR8uWgw6RzXvsKZv+9M/klksvjVPo0j5cXhNKOT1CXpFZ6E4rfbpjm3VsKBdvuVkOOPd62fFr22SHr22XT195uzm6XbbpEx+Z9Ai1USGDhRBCCCGEEELjKLSQn5WUoNPjF78Y/VqLjSVy81e/Kpv+8Imyec3e1tkRxY+f/lDnhzm+8QlPkpvOPdfGT9I3rDk6PdKPtZja2Ipce/tW+fPzrpL7n3yN7HXeTbL+gjtk3UXbZPfzt5pQjXdHLm1bFGpgX9m4Dv+4Lz9OKH0djZPGj6tSsseKpOmVUD6+spTF9/PMKhQ/qxDjpA0dD0nzVLJ5hwwWQgghhBBCCI0jf40xayn511tGTg8Xz62JlJsvuUQ2/+lTZPPue8qWAw9JPn5qtwc9UjbvuVY2/t5j5abTT7PxNWXdddokSjk9tKBZSN/judN+o8M0ovm/42UX/lTu+anvyy5f/qXsc9Y1st8518l+X7tF1l20VXa7UORVy7fYeDatqXwo73mqCj+uNr6PH+bko/FDx6soyi9ENu4vf/lLu/WPF8knFK5ynHvuufKlL30pyV8pix8iFN/J59vf/rYt6/TTT5frrrsuPlqd/uc//7ndhsKz8vGPhwwWQgghhBBCCI0jf40xaymVT3oE0ii3fOdy2fRXfyWbd18j1zzi4OSVF/v0x8GPlC177ysbH3mo3PTFE218m58qkOdKNBenhzot9GkNx8cv+4nc9wNnyP0//k3Z7XM/lD2//L+y96lXy75nXSv7nXuT7P+122X9xXfIw87bLptvv920gklvnSahvOcj5XOf+5xt0JDe9KY32TguruLCvvzlL9v9bH7//d//ncTJ4o6X6dBDD7Vx69TvzW9+s43jl6/Hb731Vvt/dzwk5eSTT7bx/+AP/sDuh+K85z3vSZWp2mOPPWyYko1/9tnmJs/EV/2VuXEUP76f7rbbbpM/+7M/C6b9nd/5Hfnwhz9s4ylFefz2b/+2XHbZZfb/oThOyubNm23e97jHPey+CwsZLIQQQgghhBAaR/76Y9ZSxnV6RA85RGmV2378Y9n8t4fLpt32kGseflDk9HAOkEMGsmWffWXjIw6WGz9z/MjxofLyXIl0raaYbfOvt9hvcejTHTFf/9nVsstbPym/9uYT5CEfOkN2PvZC2e2478iaL/5E9jzpF7LP6Vtk7TnXyv7n3SLrLrxV9r5ouzz1W/q0h+a1zeTZ3CMw40pZWlqyDfobv/Eb8sAHPlDud7/7Wf36r/+6fPCDH7Rx/PjnnXeeje8uguLCFBfmFt/ZMM37/ve/v9z3vve1+3e5y13kQQ96kD1+t7vdTZ7+9KfbuC6dOlc0XlX9tGMorvxt27bZfQ0LSTnrrLNs3D//8z+3+9nwE088McnvyU9+svzzP/9zsr/zzjvbOFqun+biiy+W//N//o/c8573tPG03ne/+93lBS94gQ33y3BpTjjhhCRf1eMe9zh5/vOfL89+9rPlwQ9+cHJ8hx12sPGVUD677LKLjbe8vGz3s3GclGuvvdbG3XHHHe2+CwsZLIQQQgghhBAaR/76Y9ZScq+37LmPbN20yTomQml8WceDzUXktl/+UrYM/0k27rK7bHn4gdbp4V59uUZ/BWbf/WXjugPkho9+3P6siaJb+/3PQN51pWs1xWybd3qYM7aF3XL7bfL4N39QFp71WrnbK4+R+739eHnw+06Sh/3XubLbJ74uu//P92XPE/Vpj6tk7RnXyH7n3iDrzr9N9r1U5HfOvkN+dOPNNq82fdBUcU4PXWCH8Bf1zrHwmMc8xqb5x3/8R7vv8vrLv/xLe/wpT3mK3XfpXLjP1q1bbdwNGzbER0b4aVz9nvWsZ9n9LC5u1umhcrg4vpQqp8fatWttuD694uPy19dPlGw65atf/aqN85znPCc+kq+H4j/Joo6OED/+8Y/t0x4a57d+67fio/lyd9999ySvK664wh7z4/hxndNjp512svsuLGSwEEIIIYQQQmgcWcfBnKRkn/TYsu4Auf6//suGKRorlDanKLrcvmWLbDniBbJp1z1kywGPMPkeOnr6Q50f+62TjWv3k+s/+CGJ/vw+RhkB6VpNMdsGXm/ZrtvRIlp55Ze+Igt/faQs/PlQfuu5b5J7vuT9ct83fFwe8K4vyMM+eLrs/LELZPfPfEv2+PwPZa+lK2Xt6Rtlv3NulN0v2i67f/ob8oOrNtl87K+4ZMuboxTnVPibv/kbux+K58uhaVRXXnml3f/hD3+YHHOE0qsU/TaGxt1nn33sflG8ceqnuDo4OUJxndPjaU97mt3PhuurH9k8lM985jNy/PHH2//7aZyUL37xizbt3/7t39r9UBzn+FF9+tOftseUUFzFPfWhr8Eo2Ti+00P1i19EP8nkx3Nxs04PFxYyWAghhBBCCCE0jvw/us5ayk0f+YhsXrc+9WTGlv3Wy6b1B8gNx348cWboNvqURbHsWimKLltvulmufdnLZaM6PzY8wuR9aOJYueaRj5It+6+XjXvtI9ctvjt58qNOGVnpWk0x2+k7PfRdHseJP/i53POV/yELz/83uduLF+Wuz3ix/PrhL5W7Pf/tcq9XHSP3e+un5cHvPUl2+I+vyk6fuFT2OOF7sueXrpB9zr5J7nHsN+WvP6gLWf0Fl9Gisk1SxnV6qBR9tUTTPfShD7X77nWOT3ziE3Y/lM5Jadrp8fjHPz75vyMbt8rpcfDBB9vwN7zhDXZfcWGKH9+XUsfpod/50Dhl3/twcmh81ZYtW+y+H+6cHv63QTZu3GjDsnnh9EAIIYQQQgg1pdBCflZSbvz8F2TjQ3eInspwTo9HPUa2qGNi33Vy9b77yw3H/EfKMVH1KQr7gEQUXe644w659rWvl427rZEt6w+wT364Muz/998gG/fYS647+ujUkx+hfEPStZpittN4vUVPLDq5qBoiP73+Jnn4h0+Rhdd9Qu71pk/IfV77n3LPl75f7n7E2+Uuh/0/+a1/eq3c48h3y+++4aPywH/9nDz030+VnT7yNdn9s9+Tnf5nWRae83r58tln2byU7Xe261seTopzKhx++OF23yeURuUWzvotDk3rnAO77rqrPa7hoXROStbpURSvrH5+Oa5OGlel7L///ql9xc+76vWW733ve0n6Rz/60fKrX/3KHlf8uFkpWadHNlxxebu6+3FCUv7pn/7JpjnyyCPtvh/mnB7KM5/5zCT/q6++2h5z7aXwegtCCCGEEEKoKenaY55Stt54o1z7kpfJxl13ly0bHh49jaHSJzMG8VMZe6+V69/znvFfSYmi23TXvfXtsnHNXtbREb324so4VLasf7hs3H1Pue41r5M7tt5u09Qpw63rzHalTg/NcJv9wGjEnfL3p18ud33XSXLf954qD1o8Ue7/thPkd9/4cbnPKz4odz/y3fKbz3q53PUZL5Tfft5b5Z6v+He531s+JQ9670my839fIgvPe4es+/t/Nmd+h83NOjr0lZZg2fOX4pwK+kHLZzzjGfapA33ywT1ZEUqnUq666iqb1kkX0koovi9lXKfHwx72MOtAcPX7v//3/9pw7RAaV7eKq4tjzz33tPv6wVSHy7vM6eHiXHTRRUmeqgMPPND+8oniyg6lq3J6uNeB9JUVpSgvX8rXvvY1m04dOoof5pwemzZFr1O5b6yo3E/funbC6YEQQgghhBBqSm59MU85x8TW22+Xa1/zOtm4257RUxmPPHT0MVJ1TKw7QK7WpzLe9jaJVvLqGcivD/O6MylDV2TXv/u9cvXea60zxb7qkpRhthsebp0v17ziFdGHTjVNMM9IulZTzHblr7c4PvTdq+TeH/263O8jF8vDPvo12eGYs+yHSh/wjs/L/Y7+lNzndf8l93rZ++XuL3xn9LTHP7xK7v7id8n93vJJuedRH5SFRz5O3n/CCXFu0eKy7VKcUyEkJZTOSXEL7f3228/uh+JlpYz7ektISja+H+bYbbfd7LFf+7Vfi49ElL3eotLO5jj66KOTvFXulZdsGpVS9nqLoh9B1fA//MM/tPt+eJEUdV5ounvd61523w9z18K90qLoR2X1mOqmm26Kj/J6C0IIIYQQQqg5ZRfxTcn+Sopdy8Rrt/j/1iGh4bofhcgd5n/XveWtcpU+laEfObXOj/hjpPr/9QfIpt3XyLWve739/qKiad0vupb9Iosrwzo/jjlGNu67zn7cVD9y6v/crX265JGPsk+IaBqteyg/XaspZjum08OeeNQoUREi52++WfY+8Ydy3+N+JLuecLns+qlvyE4fv0h2+M9z5aH/fpo8+N1flge8/X/kvm/8b7n3q4+Rexz5Hvmtf3qd/J+nv9B+1HThDw+Te//p0+TGm/RnaaNKJ42blTlu/qOxjKKTs3XKxpuRFOdU0O9A6Hci9JdCfvSjH1kpoXQqRT++qWmdvvCFL9jjofi+lHGdHn/6p39aWT/F1SWLPsmix/1fP6lyejj5vO1tb0vKePe7322PheJXOT3cr7sMBgO774cXSXHtpj/fq/hhIaeH8kd/9Ef2uOrWW2+1x5zzBKcHQgghhBBCaNpy64vmNfpD9WmX/TL+nxKIG4dYx8TiomzcU5/KiF9J0ScyrGPiUPuBUv1Q6TUve7ncfnP0h2NNm8svJBs7KuOGj3/c/pztlrX7p8rYcsDDZePTyr/rqGs1xWzHfb3FVOHO6FWWTbffIX92/ia5zxd/Kbt/6Zey5os/kT0++33Z7fhvyy6f+Lrs+NEL7NMeD3nfSfLAd31B7nf0p+U+r/+I3OtV/yH3fOl75C5/drgs7P9IeekxH7H5Kc6blC0zKtc2k8aSf7z8Njlx4232/2XeoqalOKeCe13EJ5RG5dB0qve///3J/x2hdE7KuK+3VNVPO4YSqodDP7qqYfrzr8q5555r97Ovt/i4Y/5x94qJK0fLzsarer3llltuKc0jJOVTn/qUTfOEJzzB7vthWaeHHnft4n/Yddu2bXLbbbfZ//N6C0IIIYQQQmjacuuLJhWtr0V+de1N8odv+Yrs/PyTZZ8XnyLHnBH9gTwiv86KUpk1kJH+xKz+1Kx+3NS+kqJPY7iPkVrnx+5yzRHPl9u3xJ840HSZ/EJyZej2huNPkE32lRd9siR64mPT7nvKLd/5TmF+ulZTzLae0yN68kJPKdLLv3+jPODULbLb6Vtk7WmbZK9Tfil7felnsubzP5LdT/iu7PaZy2TnYy+RHT98ruzw72fIg96zJA981+fl/u/8vNzj/+nTHU+ThYN/Xy76YdSY7umOfLmmga2TRU/lTvnwFTfKLmcbXbhd9r9QP2JijtvHZPJpZyHFORWqvuHhS3nqU59q0/3FX/yF3XeLauecCKVzUsZ1evz1X/+13Q/FU5U5PVSOBzzgATZcP8L6zW9+0/7fd3oo+k2MF7/4xfLhD3/Y7rs8/Lzufve727S+g8EPL3N6uLre7W53s3HOO+88u+/Hycql2WuvvWyaY4891u67cCXk9HBhin6MVcNVeo66xemBEEIIIYQQmrZ0/dKkHK85/juy4/OW5IBXnimHvOZMOejVZ8k+LzlV9njRKfLuk34Qx4rI5RMf1xWT/ozt1e6pjEfqKymRcyJ6MuNA2aQ/UfuPQ7ntl7+waTRtLr+QbGyxDo7N++w3es1l/QH2GyBKKJ2u1RSzrfd6S3Qa2+WTV98mu5xzo9Etst+5N8nar1wna0/fLHuddrXstfQL2fPEn8oen1uW3UzD7fLJb8hOH7tQdvjPc2THD58nD3rLJ+X//NkzZOGxfyQLTzQL/t//Y3nKa4+2FQmVqYrKFblw0w2y/+lXyUPPvkH2Pf8W2XDhVtnlwjvl3f+rT3vUbKwGpGSdHqF4vpRvf/vbNo27EA53rM6rMeO+3jLuT9Y6suHKfe973ySeyn+9RXEOAZePn4eLc4973MOGZ3861oWXvd7i4hxzzDE2zm/8xm/YfSUbz0n5/Oc/n6qX4odnnR7Z9MohhxyS5KHi9RaEEEIIIYTQtOWvRaYpxxnf+ZWsfckpsvZlp8nBrzlLDrFSx0e0VefH2peeJrs9/yR52xe/Z1KM/hicy9cdN7rhM8fLxkccHDkoDh6knR+POEg27bpGNj/jcLnVrXlV2fyyMnH0A6mb99hr5PTYcKBc/+Y3axbBNG7NZ7YFTo/4lRF9ikKrcdmN2+TQS26THc/fKvtfcIesOz9yeux7znWy75nXyD6nb5K9T75S9vryz2XNF34ia074nuz6mW/Lbsd/V3b52IXyO888UhYe80RZeMJTZOFJTzP680jrD5Uf/iJ6b8h+2MTIfi8kbrXrbr1N/vS0H8l9/uensubUjbL2rGtk/3NvlnUX3C77X3yH7HDuNtm6fautZ/Q0SuBcGpTinApPf/rT7X6WUJpf//Vft2k+8YlP2H13/IMf/KA9fs973tPuZ9M6KeM6PerUT9G4Kocf7uIo+iFQFzf7TQ/FhV188cV23+fKK69MwpVQ/ieddJINf9aznhUfCdfF/ezvmjVr7H4RZ59tjEdc5pe//GV7LJtXmdPDxVEe8YhHJHnh9EAIIYQQQghNW+5J8mnJLFbsuuWmW2+Xp/3bebLrC06WA199lhz8mjOt08M94bHvy043/4+OqQNE/6/HdjniJHntCd+RbfEvrSrZMrwlk9x44omyUV9H0V9jOfiR9pUX92ssWw482H7wdNNf/rXc8p1v2/iaNJufk4ZZp8fue43y2PAIuf4t0UMUoTS6VlPMNv96izo8tukrJXdul81b75DDv79NHvi17bKfWbuuv3ibrLv4Dut02O+8W2T/c2+UtWdfK2vP3Cx769MeJ0VPezz0f34oD/rMd+V3jnynLDzmSbLwuD+RhSf+udHT0tvHPUUeeFj8+oJsM+Xb/1pedOZl8pv/fo489DOXy5rP/1j2PvmXss/pm2Xfr1xvyr5Z1l+4VdZcdKf8/Xf1aQ+z4JzDtz0U51R44hOfKN/97nflggsusNIPberiXvHjv/rVr84tljXMLar1A5sarr92ori0vpRxX2/RXznJ1u9Xv/qVjaNxXfkaV+XI5qlyuFdUQt/0eM973pPkpU9tOM4555zkuH7UVPHT/eIXv7COkne84x02jn5E9Dvf+Y58/etft+EurouvuPxU73vf++z3Nhz6VI3/IdLXv/719rhrdz+votdbsvGU9evX27idfL3l2Oj8V8LyqReF855Ag1NvjnMd4edfFT4Xvf1yWbzs5rnWY3hZ3BgTsVGGgTwnUSuvTx29/SIZnrpRlq8K1P+qjbJ06uUyCKVrUg33q1V3rabdHm285itVC2xRoha072rp43OpZ0VfWbW2HKFVLF2vTEuOd335+7LT85ZkwyvOSJ7qUKfH/i8/Xda88GRZ+sYv5X2n/lB2f8HJ9ikPdYQk8V59puxn4u10xJK87JPfkptvi36dRcmWN1o1idx0+umy6ff/QDbvtY9cc/Ajk6c+rA48RDbvsUY2PuWpya+xZPOyMsfzT3qMnB6hNLpWU8w29E0PXQxqkdvlr75zu+x8icgGs95cf6nZXnynrLt4m6y/aKvs/7XbZL/zbpL9zrlB9jlri+x9xibZ46Sr5B4n/Fie9dX/tQWs/dt/kIXHPjl2dPyF5/CInva4i24PfKx87PQzbXzlIxd8S37rtR+Xe7xrSXb4r/Nll09+XXb77Pdlry9dIXuferWsPfMa2e+rN8q6r90qGy66Qx58/jb5zg3R9z3y59KsFP3FFW3HkF73utfZOC6uLqZd2DXXXGOPZfPzn4K4/vrr7TE/jov3s5/9zMbZeeed7X42jotXVj/nANC42jEUF+bI5unk0LjZj4K6vPQXbVx+Wf3Jn/yJjaNx/TyPPPLIYPy73vWuNtzF9dMov/d7vxdM58s5X/wy/Xwe/OAH23i+Mygkh/6Ur3sqx4WFDNaqE06PiTU49gpZuiquhGGeE0KcHpPKLMzMxL8eN8vSsc2fy6z61Wq5VtNvj/Zd85WqTbaoTe27avr4DOtZt6+sPluO0OqXrllWKsclP9kiDz/qNNnnyNGrLOrseMSrzpSdnneyPP9j0R+YfdT5seeLT5J9XnKafSJk5CQ5yzpJ9DsgR5h019wU/bqlkpRt1kXJ/+Owm847VzY98Y9l877rR44L9/THfutkyz//PxsvSefLHF+R0yMUQZ+aENkmN23fJjtcdKd1eljHxyX6tIfZv+gOWX/h7bL/+bfIvufptz2ulweevFkedeZV8sMbRn9lv+q66+0rLNbZYV9pUWeHU7z/h0+xr75cfuWv5IEvfKss/Ms75N5v+rg86F1fkId9yFyEYy+U3Y77tqz5wrLsedIv7NMe+i2R/c+7RdZdtE12vEDkry+9wZQWOI+GpeiTBM94xjPkn//5n+U5z3mOlf7/8MMPlzPOOMPGcXH1J1r1NRP3gc9sfi6e/pqL5qlbJRRHnSaHHXaYvPGNb7T72Tgunj4l4ern1zFbPxf/2c9+to2v+HmF5Pi7v/s7uw2Fn3rqqfY7GOq0UB166KFy+umn27BQfH31RD/m+vd///eJnvnMZ8rLX/5yG55N49IpP/3pT+Uf/uEfZIcddrCdXH9e95GPfKR84AMfiGMUn5Pymte8xrapczaF4jk5nvSkJ9mtOx4yWKtOOD0mUtsmhDg9JtFFsuhN/uuydGwor+lolu23Gq7V9OvYvmu+UrXrOrarfVeLPZpVPccpZ7W0HUJdkv9H13Hl1iv6+YhnffBC2fmIk6yDY/Qqy5my55GnyuC1Z8oPf3WtjWtiJ+n1/44Pn/1jWf/y0+L0kdPD5bMudn48898vku/8LMrHr4eTv3669r/+S7ZseHjyKy/W6XHwQK469DE2PJjeHNfnStTpMdHrLW6xltL2aKsn+86f3SF7xE97HKBOj0vulA0Xb5MNF26TdV+7XfY99xbZcO518sUrR8bQFmTTizz9be+UhUc/Ke3o0K0+5fEHTzb//yv5zeFrZOEpQ1n4u5fI3V74Trn3q46R+7/1OHnIe0+SHT98jv0J3D3+53uy54lXyF6n/krWnnmtrL1wq9zvi7+UV3/1O1qiXtH0OcxIVRTF9Y9n5RMKV/mEwp2qKIqfPV4kRyhMVUQorqqMUHxfVYTS+PIJhWfl8I+FDNaqE06PidS2CSFOj/EVqms9ptdeWc2y/VbDtZp2Hdt4zVeqNl3HtrXvaujjqlnVc7W0B0J9lb/GGEeOj5z9I9n5+SfJuqP0VRb3dMdZst7s6/EPnzX6WVp1joTzivK7desdcsBR+Q+eqvNktxeeIk88+hz56cbiPxwr+i7Jlhe8SDbvve/o9Rbr9DhUtuy+p1z7rn+z8ULpNYfckx4HHLiS11tG0u96qENhn0u3ybpLRdZ/I37a45Ltsv7iO2S9ftvj/Ftk77Ovs/HkTv0uR/p1BWXhkMfJwhOeOnri43F/Kgt/8Edy9+e+Ru77xk/KvV7+Abnbv7xZ7vKX/yy//ZzXyz2OfI/c9w3HygPe+Xl52L+fLjt89AL7M7i7f35Z9j71Ktn1jGvlfm/+b/n6d78bFWBOyq83mq20U4WO90HZcw8ZrG6o4K91V11R7x3skne5FT1u3+d+ez5t1aSsPDxc7/xfEUPxak66azmJbpbFwLmN2iWO5ihpj6np7VfIclxcGn28PBR/srqWXZ+BabtUfppX1aPtjbXZ5bIUZ5UmXSdb5zjEp3ChMGnfn7RfNXavTe9eih6nvznQjubYZVfIMHQNV3KfFaqha65aYT+dZRtNVFYtteyeMhprke++cZHrz3qs+BskdcqoilO7njO0L+O13WT9P1/GqA4TjRcIrXL5a4xqjRwUP7rqennUa8+UPV98qhxsP1QaPZlx4KvOtE986FMZd94ZfYx0tJZJr2n0uOONn71cdn7eScnHTZ32e9npsveRp8gp34x+mERJ8rkzytPlcsP/fFY27rWPfTojeq0lclxcc+DBsnHX3eXa945+etavh5NzemzaY0/v9ZbRr7eE0tR2ekSNt11O2nSHPOwSkQMuvVM2qPNDnR6XxN/2uOA22eWrN8uLLr/RZmp/gcXLQ3nf578sCwc9NnqV5dGPl9951ovlIe/9ktz/nV+Q3339x+RerzhG7n7kotz1714qv/53L5LfPuLtcq9XflDud/Sn5EHvXpId/+Mr0dMeSz+Tu77hM/LHr4pOTrENmikToXkpZLC6ocmdHkUT2jA6icmkX+nkMDS5u+zyUbhVYHKei1OgCSaPqoFOCOPQMpbr1mMcFTo8wo+Vr6Su4etjFhOh/hRTNJFuss1C9VTC7RGIG7gXVtT3J+hXTd9rK7+XCuxIgFy7T3iflamJax7FXUk/nWUbraCsGmrdPaXpq/p4Sbwwk5VRFadWHitpiwnup/ptN3n/z5cR1aHsmzChOiDUFYXWGiH5DooXfOzr9kOlj3ilPokxclLsc+TpsuEVp8klP9oUx9R1dMjBMMrrK9+9SvZ76amy1ijKJ8rv4SbvHf5lSV756dFjxZEPIMrPvjUSH9961VWy8Ul/LFv22le2DA4dOTse+SjZvGYv2XTY38jWm6N7vNDhEZ/frVdckTwlYl9vWX+AXB8/HRJKl3J6aCZVMlWQJ37rDtn369H3PaKPmor9JRf9FRX9tscDTrtBfnlb9EFRP617zeUBT/lLWXjq38mOHzhFdj72a/Lg950sD3zn5+R+b/mk3Od1H5Z7v+zf5e4vfIfc5a/+n/zWP75G7n7kv8m9X/8RecA7PisP/fBX5Xffc5Is/PEz5HNnRd+hUPxyEGqDQgarG5rQ6VGyuC4kk+fKJ4ehvzZmnuIITABrT/KnNHksZYJFfKHGdnisrK5jp7fkn7Jpus3CrwMVPe2jfSr6K/jisReF74GV9v1x+9UM7rWV3kvjXcP0PTPJfValqV9zo9neLytroxWVVUOtu6eMqvv4BNcw0zaTljHWuDZr+2LUSNtV9v+bZanyI7hFfQqh1a/QWiMrx2cv+pmsedHJ9tdV1DHhXkHRX2nZ6XknyTu/9L04ZvEa2vxjw2/dulUOe/f5yU/auldj9EmPNS8+Vf7gTV+RX14TPfCQXftb2aMi17zu9bJxl93sz9W6V1l0u3ndAbJx3Qa58cyz4xyK6xTVyFiDb35TNh54kGw55FHJkx76qstNl15iw0NpJ3J6/PTmbfLgi+6UA74h9mmPDfY1lzuin7C98FbZ69xb5MkX6Wsuo0LNP3ZfefoZy7LzCd+TnT55qezwn+fKQz5wqjzo3V+W+739f+S+bzxW7vPKD8o9jnyv/MY/vEr+z/99vvzO894i937FMXL/o4+Thb8Yyl7/99kmv+jJkdTXYBFqkUIGqxuazOkRnACZNKPHpcP5+ovvqolWnYlYfvJdNZkbYxI1lcWpCXeP6RZMZms7YcpUMlEOPiY8hboG+0ANUufbeJsV9O8VOJtW3PensYCd8r2mmvxeCpRvFrjOfuhfrbOkyp5gkVau6V/zlffTWbbRCsuq1PTbdyZ9PNiG+pSEi6OvbYTrkbRdjfuoKs4k4U3al6IyU+c1BTsdPK8a+Hkg1CWFnl5w0vWwsvG6W+QJb/mK7PHCk+3Py7onMg589ZnWafHn7zxXbrw1/qERs1YJ5aVyvPfkH0Y/aXtU5Dxx+emvtez2gpPkM+dfEcfUpytG+dn1eXz8pjPOkI37r5ct6zckr7LokxnXHHSIbNxld7n29W/UD2NYwk+bjJ7u0O+AbP7Hf5LNu62RLY981Ci/RxwkG58w+kGJUB4pp0coQk7W2bBN/t+Ptsrel+hHTe+U9frEh33aY5usu3CrrPvaLfKgM2+WMzbqT9Zo/OhUPvjDa+S+n/m+7HDCD2XXz3zbvqay00fPlx0/dLY8+H0nyYPe+Xm539Gfkfu8/iNy75e/X+7+onfKr/318+W3hq+Thb97gSzs/0h59wmftXkptkGz9UOV8hfmVRonnR83q1B8p1D8LihksLqhggmsN9Er0sC+23uF/WvNcmYSZcMbmPylJmKqwGRrFCc0+R9/Yl6rHkahv37mJmyhCelKFmOqt4f+Sh9R9F70NOpaNIlNyiyol992zbfZ9BdoqpX2/bpxkrgN32tWE99LgbAa9iOrcdqjXNO/5ivvp7Nso+mUVazpt6+q6T4euoZFbRd910MdDeknU+q0/0rraePM2r5UxG3LeIFQlxRaQzkpHzptWR72L1+WA16pr51Er57oExn7vvR02eclp8rp3/6VjaeE8tBXUhzfvGKLPOKV+o2O9Kss+ostOx5xkjz3vy41saJyNa06PJJ87FGRrTfdJJv+8q9ky5q9ZcsjD02eyLhmcKhs3nutbPqjP5GtV19t42qaUT0ysjFErj/2WNmov9ZywCOSp0Ss08Psb9xvvdxxxx2l+Yzt9LA/YXvnNtlmtNNF22V9/JqLe9pjg/2o6VbZ5/wbZd+vRl9tPe+aW2S/U66U+3/xF7LHl34ue37+h7L7Cd+TXT/1Tdnp4xfLjh/+qjz0g6fbpz3u/6+flfu+6eNyn1f9p9zrFR+U3372y2XhMU+Qez75MLnupsgA2i/Ket6keoouSDisXxoH7SSTpnHS/br46Va7QgarGyqYwE48STaTxGOvsB+JC+FPYKomWvUmbWUT/PwkKjdRq6F69QhN2EJPldSNV1MlDo/iyeJ06hqcxGb6TXnbzaLNmlmghVW/76vq9asyTe9ec/lNei+FFkUO/eDi8mUbZbHkI4eqlbeH07Sv+XT66SzbaBplFaud91R524TqnHcmVKlO+1fFmbyfN2dfyuNOp/+HyhhvvECoW3KL96yUj37lx9YZ4Rwd+iqL/dbG806WVx83MvCh9E5xDPnH/7hYdjJ5HfiqkbPj4FefKXsdeaoc8uoz5Ls/j97mUMJ5iFy7+G77QVL9MKl1dMROCv1w6ca918qNn/uCjacpsnkksjFEbv3JT2TjY/9Atuyzn3WYuPz0SY/Nu6+RTc98ln0CRAnmEyvl9AhFyEofO7GOD1OVD1x5h+ymHzXVJz3U8aFPe+hHTS+8Q9Z97TbZ66s3y6POvVYeeOpm2fP0LbL3aVfJXif9TPY48aey5nM/kN2Ouzx62uNjF8iOx5wlD33/KfLAfztR7v9vX5T7vf7Dcte/eLYsPOaPZO9/PMJWUrEfQ1Fl6lUmfTrlzu3bzHZbMLxPUv7hH/7BXvgqrVu3zsZ3hOL42n///WVpKRrCsmUOBoNgGqdHP/rR8oMf/MDG9dOuZoUMVjdUMIGt6/Swf5HaWPALAXn8CUzVBKfuBCgfL57M5v7yVHehnFa9ekxnYjieQnlFlE8UG5zEZhY+5W03izYbd4Fm4ptFRa1ftlhB31fV7d+JGrzXiuPVvZeK+2IW/chhyLaM3R6FmvY1n1Y/nWUbrbysYrXznipvm7rXsFx12r8qTu1rOEP7Mp22K48XKmO88QKhbin0B1bljm3bZId/+XLknIidFPqExuPf8hX51bU32Ti6bg+lVzn++5yfyK76k7bxd0BcfuuPOl12OmJJPnS695O23oME/qssN196iWw88BDZst/66CkM9zTGwQPZtOvusuWFR6YcFH49kvx0HWXCNd41L3mZbNpld7nm4EdGHytVx4luTf4bH36Q3HTRhVFeRqG8fOl6UzHbek4PJ33aQ4tY//Vtsk6/7ZE87bHN/oTtugtuk/Xn3yL7fPVW2fer18k+Z14ja0/fJHud8ivZ68s/kzVf+JHs/j/fk92O+5bs/PFLZMf/Os8+8bHTh86Su/3jK2XhsU+WhSf8afTTtgc+Vn55zbW2otaBEahPkcw/tp6qbWOm7aKUI444IuVwKJI6KnxCcUJ6xzveYeP7ZT7hCU8Ixs3q1FNPtfH9Oq9WhQxWN1Qwga10ekQT2XHxJzBVE5z6E6D8ZEvj5dIXTsrLVa8e05kY1lcon4hwG/maTl3rtEt5nNm0WfCv3oX9O1vWzYGfr1x531fV79/N32sj5dta4+XSh+6l+GdAaxFIX7+O1ZruNZ9iP51lG62wrDK18Z4qb5u617Bcddo/1Db166matX2ZVtuVx6tTn3HqjNBqV2itoXzkKz+RfV5ymnVS6BMe+r2N153wbRumhNKpovWxyBUbb5DHvOFs+5O2B3mOE33SY5fnnyxPf9/XZOsdsasimI+YNfadsvnZfz/61oZzdjzqUPuExsbfe6zc+qPIaWJLzuSRyMYQufGLJ8rGffa1v8iSPCWi+elP2up3QN75riRuMJ+AdJ2pmG3Nb3ok0qK2yVnX3iE7XaSvuEQ/Ybvh4jtlvcr+hO3tst95N8l+594k+559vaw9Y7Psc+pG2fukX8ieJ/5UdtenPY6/XHY57luy2wnflQe87j9l4fF/Jgt/8MeRs8PqabLw2D+R3Z75T7aidV5RsU+ixE4Z1fO/f5O88Afq6Yqe+ij6SEofpNR1ehxyyCE2vnYUxQ+7173uJbvvvrvstNNOco973CMVptq2Lbo5XJlPfOITk7Bf+7Vfkz322EN23XVX+c3f/M1UOpUjW/fVppDB6obMBGsCp0fh49P2XejLo3ehKyYwKw33lavPZVfkzmuSV1tU9eoxnYlhPZk8QtfMUG+C2JZJ7IzaLPSuuXuCIRM3VN9sWdPo+0Vlha7fLO41X1O5l/Sv1PZR/I2yHOyr+es3Th0rNdVr3lA/nWUbTVBWqVp4T5WHh8a5cH3LFDyXlMMoPJ7Wr+fs7Ut13On0/2nXGaHVruwi3q3PXnPcd6yjQ19rUYeFfrDUrYFDaVSOl3ziG7LD806y3+oYvcpylqx96Wmy7uWnydd+GH1zI5hXHHL9Rz4qG/dYI9c8/MDRqyfq9Hj4Qeb4nnLDRz9q49kaZfNwsjFEbtu0WTb+yVNky177mLyiD5Vap4e+yrLn3rLxaX8pW6+PPp9Rml9Abo1ptuM5PewHRO/UBe12+bNv3yH7qMNDn/i4WJ/4UKdH/BO2X7tF9lenx1dvsE977HP6Jtlbn/ZY+rns+vmfyP2O+77c/32nyK899XD77Y6FJzx15Oywip0fB/yefPniS2xlo1dc8nWy9TInFTWDyCf+9wbZ6SvXyR5fu1MeeN4dsvG2rTYslK4vUrJOjzI0TdSmaafH6173OnvM8a//+q+p8A984AP2uCvTd3rssssu9pjjTW96Uyrt8ccfb4/79V6NChmsbmgSp0d4cpOdQIYmb/4EpmqCM9YEKDgJ9xlzUu+pbj1C5zvux96qZdo+uGgZb3I4jbpOYxI7szaLk6Uxix7vQ6/6qxbBx8hTZU2n76vq9avZ3GspNXAv5cvPLzjHqmOlpnnNZ9NPZ9lGdcoqV/vuqaq2qXNPJuPhVTfLkr6OY87FHwdDZfh1Df0yjlK/nrO2L/XiTqP/16nPOHVGaLUrtNZQXnt85PRwr6Ps+oKT7PGiNa9Z2NnQA15+mnVuROmitAfqh0qftyRv/eJ3bRzFf5UlycNw6+WXy6bH/L5sXrufXPPIQ0evnqiT4hEHyZYXpV9lCeWjDyIomuO1b3qLfZVly0GHxE+JxE+LrD9Art53ndzo3gZQZfOpIV1jKmY73ustKs1An/a4+vZt8tALt0VOj0v1FZc77WsuG9TxccFtsu68W+zTHmu/cp3se8YW2evUTfLAE38ue33xR3LuxlvkZ7+4Qhb2H0ROjif9uZFuM3rCU2ThD/7UVtaUPnrNxTWgdcBEXLLpZjngtF/Ig8+4QfY/9xbrfNn7wjvlad/Sn+iJHDbZc+mLlLpODz+N4qc58sgj7TEXfsstt6TCX/va19rjLtx3ejzsYQ+zx4ryXlxctMdc+atVIYPVDU3L6eFPmvVd5PzkRfEnMFUTnPEmQAXn4Rhj8ZFVqB5Jfm/36lP0s36uXYIfHR1vsRGsy5jYyeoU6lrn+lTGmUGbqSZvt2xZ0+n7qnr9ajb3Wlpj3kvBhd5GSf3EZm7RlHec1GuP+preNTdaaT+dZRtNqawqTa99Z9THg+1iykmcNEXleG0TzKOa+vWctX0pjpvKry3jBUIdUmitobz2BP9Jj7NSTo+iNCde+nPZ40Wn2tdhog+f6ussZ8rj3nS2DY8Ip9cctt5ys2z686fJxh13lS3JEx6Rk8I9mbHp9/9AbvjEp+LfcNXcMmu76LDcfM45cvX6A2TLug1RHi6fgx8Zfc/jNa8b5eGnH1O6xlTMdnynh5W+SmKq8rIfb5M99WkP/baHdXxsjz5qelH0UdP9zrtZ9vvqDbLLmdfLA790pbznh9E3OqImEHnyq98sC7/3pALHR/zkx+AP5dUf+28b3zk93NMmyo233y5PPfUHcp/jfyS7nXKVrD3zGvuEyf4X3Grr8ZALtst5W+6w8XPn0RMpWafHe9/7XnnnO99pv8Whev3rXy+/+MUvbFyXRvHTvOENb4iPRhx22GGp8BNOOMEed+nLnvTQ8v20J554oj3u13s1KmSwuqGCBU6p06NiUVSCP4GpmuCMOwEKxXfk/io1jkonutUTuzLGndCNm38I1xYrrWud6zNpnDLGbTOn0F8rq8j/5O90+r5VrX41m3stq7Jrkr+XJqhj1nGiGuM+q6vpXPNIK+uns2yjKZVVQ226p+r08Unqm84jtLivpn49p9MWVisct7L5raz/T15G7rwQ6oj8pxacFOf0qPekR7QuO+/7V9tfaHGOErdd/4rT5Sn/eq5c+KORPbDrGpPOf7rCrQ5v37JZrjni+bJp1z3sT8cmT3qo4+KQR8mW/dbJxn33l+s/dEzK+aHccestsulvni6b1+xlnSTOYbJlcKhs2XutbHzCk+T2K39p42qa4JMiY0jXmIrZjvtNj0jaAOYfk8U22e3ibbJOnR7uo6YXb5d19idsb5f9z79F1nzlZvmXy7aYxnMfQ9luPy7qWHjE78evtzwto9gJomEH/F7SWO6RGOXlZ14md33f2fLgT3xT1nzuR7L30i9ln9M2ydqvXCP7n3dzVIeLtssBF91uYpvyTR36+BO2Sp1vepxxxhk2rqbRzq6E4hVJ0XSuTN/pcde73lUOOuggOeCAA+xTH346lcOv92pUyGB1QwWTrIpveoT/8uOjH6sLxPEm11UTnPEnQEUT0vH/iplW2UQ0vxgbnFrwSHeGSSZz4048Q/iL1pXUdZqT2CbbzNew9gcCTf8tWPxOo+9HqtmvZnCv5TXmvRT8S28Y/RWPsG0Z7z6rq6lc81gr6qezbKOplFVPbbmn6vXxi8arb9BWlaS/Sp+oydfTr0dlPWdtX4xmYafrlFG3Hgh1QaG1hjKe02O0rvv7D14oOx5xshzwyvhbHiatbg945Rmy2wtOkce+8Sw5+/Jf2biKW9eNdOfI+XHjjXLNS18eOT82qPPj0NgB8mjr0Niy/wbZuNdaue7d7xF9/OC6f/932agfPX3EQdErLCaejX/AI2TjnnvLDcdFnzrQ/Ke1XndrTLOdzOmhihrvTvnYVdtk10v0o6bR0x72o6aX3CEbLtxqn/bY7Ss3yweviH46x3lroldNoov2xo9/WhYe+fiA00MVP+3xe38kf/iK0fckPnHx5fJbr/+Y3O1fvygP+89z7E/g7n7Cd2XNiT+VvU65UtaeuVn2PecG2f/822TdRXfIzhdul2N+ro4P9Vj1z/GhNOn0eNCDHiS3367tO3JaKL7To0wf+9jHbHyXdjUrZLC6oYKJUZXTQ6UT66sykxT9eT0z+RrYCVUgby/fqgnOJBOg4F/ycpPBSWTOxUyWc5NZc76LoadI3q6PIZsJYu78dcLq2md8hdpkXHJ/qZ+wrlOfxDbUZjkl5QTqVresFfb9kWr2q4bvtZDGv5cuksGxV9h65hdGWlf9ydLyMse+z+pqGtfcaUX9dJZtNI2yamoa7TvLPm7Kij7qOll97bdK/Lq4NBq+UqeHzWO29mUWdrpOGZPYKYRWq3Q9lpUy7ustTsqlP9ksf/Kv58ouLzhZDnjFGcmrLqqHv+pM2f2Fp8ijXnOmnPyt6IkLSyCvKDeRrXdslWtf+3rZuPua+JdXDh298qKOkHUHyKY9986/ynLIQDbrT9oe8XzrFFFyZaxQus5UzHay11vsL6EYmVWeyWa7HPKNO2R/+7THnbL+0jtlg3va48LbZf+v3SoPOOM6uWmbOZ07zcLQy0cvjK3IE/5MFv7wKdErLalXXFTq+HiqLGx4lHzinPNllyPfLgvPOVru85qPyP3f+Tl56AdOk50+cr7s9qnLZI/P/VD2XPqZ7HPa1bL27Gtl3bk3yv4X3CZrTJ12OFsdL1p+tKDvk5TQ6y3vete77CsuKn115ec//7mN69IofpqHPOQh8rjHPc7+Cot//Ac/+IGNmy2zyunx0Ic+VM455xwb10+7mhUyWKh9Ci3UVvRqC0I9FfcSQggh1IxCf2BVXnP8t9NPejzfPbdX/od9Xas4vvvza+SvFs+3r7xsOMrlFeWnv+yy5kWnyIGvPF0+d9HP4hQGkz6bn8vRPs3x1rfL1XvEDg7vaQ51dCSvwagjZO3+svHQx8it3/++Tat5+PlOS7reVMx2wm96eFJHwqU3bJWHXLRdNnwj+glb/6Om6nTY6yu3yNO/eYMtdPv2bZn0Iqd9/ZuycMCj886OJxg97k/kLk/8c/mdf36dLPzVC2Thb46Q337e0XKfV3xI7vfmT8kD3/1ledgxZ8ku/32J7H7c5bLmiz+WvU660v5U7r7n3yo7fvU2+YPPf8t+dFNfcbGP5Xjl90HKND5k6j5UqvjHDz74YHssW2bW6VGEn261K2Sw0Lx1UeqvSsEv5wf/+oUQSot7CSGEEJqVQgt55e1f/L7s97KR02OPF58qy7+6zobpeiSUzpfGcfzk6hvkb99/oez0vCVZf9QZNj/f+bHnkafK+pefJp8894o4hZJxfqjiEK3hte9+j321Zcv+66NXXdzTHY84SDbutodc9x//aeNb1ajvpHLrT7Od/PUWJ/t9D1Plp19+u+zz9TvlAPttD/+XXG6X/ezTHjfIt67XX1LJe4iUvf7xX2ThsX8Sv9Kizo4/Nft/LHd/zqvl/m/+pNzrqA/KPV/4Tln4q3+W3/z7V8ndX/Quuc9r/1Me8Pb/kQe//2TZ8b/Ok50/9Q3Z47M/kL2Xfi57nn2r/M4HzpDFk860+Sv+x1j6JKWu00PRa+Kui5/G/XqL8vjHPz4VdtNN0StMfpllTg9Xhl/PLihksNCcVfnuM3+ZRqiWuJcQQgihmcmtl3wp+oqKvp6izgl9LeWgV58l+73kNPnCJdGPUlgCaUNy/Oram2T4Hxfbn69dFzs/3Gsv+isvex15mqx9ySny4bN+HKdQAnnGIboavOFDx8jV++5vP266afe9ZPPfPVPuuGOrDdeic2mnLLf+NNuVOz1UesLXbt0uD7twu6z/hsh6+7SHapusv3irrLvgdtn73JtlcO71tmD9nodLG/0SjMjG666XhQ0DWXj8U2Th0X8ov334i+Sh7/my3H/xRPndNx8r937VMXKPl7xPfmv4KrnLX79Afuf/vVnu+fIPyH3f9N/ygH/7ojz0mNNll49dLGu+8FO597EXy84vfrNsvGr0ayR9dXiolKzTY82aNbLrrrvaX1VR6f/19ZW/+Zu/sfG1zRQ/je/0OO+881Jhz3ve8+xxv8yQ00Pz9evWNYUMFpq3Li//WJ++/xxMhxBKi3sJIYQQmpVCaw23Rvujt34lcU6o8+OgV7unMk6VT5/vPZVh117l6y+3HleuvelWOeKjX7fOD/8VGlvGq86UvV9ymqx50cnyvpN/GKdQdK2debAhDtFV4XXv/4DcdOZZdl+P+/GalFt/mu3KX29x0lN6wxXbZM0lIgfEr7lsuFjsT9iuu0g/anqrPOTsm+TTv9TXTKLFr3V+6Dc2TKWUI975bln4o7+WHd5/iuzy8YvlwR84RR70ri/KA956nNzn9R+Vex/173L3Fy/Kr/3N8+Q3n/1yudsL3iH3edV/yP3fdpw89AOnyw4fu0AWnvEyeekHPmTzU7L17KOUOh8yVR1yyCE2vsMPc04Pl+dd7nKXVLjDhRc5PbqskMFC85Z+zC38kTb9lQAWaQjVFfcSQgghNCuF1hojB8V22XDUabLvS09LOSYOfPVZsteRp8q+LzlFPnL2T+K4SiCvWO57ne6HRpRbb9sqL/vUt2TnI06S/V42KsM9WbLWlKsfPf3XE79nYrs6RWs9m5c6QXSd746rknJmI7f+NNspOj2s42K77HXRdln39ejXXKJvexjFP2G7z9duld3OuMbGM2dsG0K2jRrpBRf+rzzshGXZ6VPflJ3/6zzZ4YNnyIPevSQPeMfn5L5v/oT87qv+U+750vfK3Z77RrnLXz1Xfvuf3yj3eNn75X5vO14Wnnu0/Pof/blccWX8WI+p0ywbtc1SnvWsZ6UcEEXad999bXyHH/ac5zzHHnN5vvKVr0yF6wdRFReu3/rwwxW/Xl1UyGAhhBBCCCGE0DgKrTWcHC/8+DdST2VEr6ScaR0Te7/kVNnrxafI+0/LPJURyC8rx7bt2+R1J3xHdjniJOtg0Xzday8HmXL02C7PP0ne+NnLTbqR0ySU56zl1p9mO53XWyJPzjaT5R3y2Y13yE4X6y+5GMUfNY2e9rhD1l1wq+x4zk3yqh/caOJqo2iDbpeP/Phauf/xP5CHHP9D2e3478iunzQX72MXysOO+Yo85P2nyAMXvyT3f+tx8rtv+Kjc+xUflLsfuSh3/dsXyW888+XyG895vSwc+Dj5h7e/w+QVoQ3e59dZslJ+9rOfycUXXyxf//rXC3XJJZfI991XdE1HUc4//3wbpmk1D8XluW3bNrnwwguTtN/+9rftcRe+vLxsj7twxa9XFxUyWAghhBBCCCE0jkJrDV/RWlrkpttuk5d+4lv2l1j2U+fHq0cfI9XXXuxTGS84Sd75JV3njRwaVa+9qEZsl7d98Xuym8ln7UtPt/kmT5joN0Vedrr9GOorPvUtuW1r9CO0dfJvUlN3eqjUyRC9prJdfu+b22Q/+xO27vse26OnPS7cKuvO14+aXi+3bt8m37juVtlw+pXywC/9QtZ86eeyxxd+LLv/z/dlt898W3b6+CWy0399TR72wTPkIe89WR7wjs/L/Y7+hNzntR+We7/yGPntFxwtC4/+E1n4vSfJt37yU3tCZqUerBvyO2w1Lo1zfPhU5VkW7od1VSGDhRBCCCGEEELjyH9qoVijNdcd2+6Q15zwbdn5iCXZV3/d5dWjj5Gqk2Lfl50muz7/JHnT575jYo/ShfNNy3eWvOekH9rveuzzEn3yI3J+aBla3v4vP0Me8E8nyrnfj37hLZTXrJRyeoQirETagN+7aas89MI75QD9qKn3ay7r7a+53Cr7nHez7HvODfLgU7fInqdfK/uctlH2PumXsueXrpA9Pv8j2f3478mun/qG7HTsRfKw/zxHHvbvp0VPe7zjC3L/t50gd3nGC2Vh7SHy9KPfZU9Ese8MBeqD0CwVMlgIIYQQQgghNI5Ca40yjbhTjv7Cd62DQ5/y0FdS3Dc/1DGhT2WoY+SVn7lMbt+qb2tEhPLMynd+HHPGj2TvI0+RfV/qXq2Jytj7yFNl6Ru/tHFCecxKjTo9oo+rbJNn/+AO2ftS/baH0SWq6KOm6y+8Xfa/4DbZ97ybZb+v3ij7nHWNrD1js+x9yq9kz6Wfy5ov/lj2+OwPZbfjvi07f+IS2emjF1jHx87/ea7c46gPyMIjfl92f/qz5VfXRr9FrNjXWUJ1QWjGChkshBBCCCGEEBpHoafK68h3TCwufV/2eOFJ8VMZnvPDaP+XnS47Pu8kefHHvyE33nJ7nMKkrvXay6iMd5z4PZuXy1udHid980obFko7K6WcHqEIK5F9xWX7Nrnlzq2y4wXRB02tLtbXXLbJBvttj9tkf3V6nHuT7POV62TtGVtk79M3yd4n69Me/ytrvvAj2e34y2XXT39Ldj3+u/LQD5wmC088zP6U7ckXR9+GUNTZEaoDQvNSyGAhhBBCCCGE0DgK/YF1HPmOiQ+dvix7v/gU2fvI0+wvvESvvUROinUvP8N+DPW5H75UNl0f/dKqEsozK+Wy/71W9nzxqUl++6jT41uR0yOUZlZq3OkRfdT0TvnXX9whu+tHTfU1l0u9X3Kx3/ZQx8dN9mmPtWdfK/ucsUn2PmWj7HXSz2TNF38qDzr++3L/j10iC898mSzsvUHe8PFP20ord27fNvJA4fhALVLIYCGEEEIIIYTQOAqtNcaRrpejtzBGzo9jz/mJ7P/SU2UvdX68yj31ETs/jjrDfoz0WR+8SH6+WX94JEIdCNFHSfNPgCgX/3izrHnxqUk+vtMjG3+WSjk9sh6Racm0sClim+x76XZZ/434aQ91ely6TdZZx8ftsv/5t8h+5+r3Pa6XtWdtkX1O3yg7f/lKufdxP5HXf+tqW8knvvildhsRLguhtihksBBCCCGEEEJoHIUW8iuRWazEa2qR4y/4X9lw1Omy5sWnyYGvPCN2fkQOkA2vUOfHSfI37/ma/PBK75MSNp+040PJOj1a+XpLaOE2HWkjbJeTtmyTHS4WOSD+vof9CduLt8v6i7ban7B1r7msOet6ud+XN8pfnH+13LDVvVM0ujD2yQ6+3YFarpDBQgghhBBCCKFxFFprTEPmn3iFLfKlS38uB7/6DNnjRafII16lv/YS/eJL5Pw4U3Z+/sny1HecK9+6YkucQpN7eRmc0yNK15PXW3xpYeq4eOJl22Rf922PS0TWX3ynbNCnPS7YKvudf6s89Oyb5aCvbpFLrr3VVswkjB/HcXnlH6VBqI0KGSyEEEIIIYQQGkehtcY0Fa3VI07/9pXye68/W3Z74cny8FfqExvu1Zez5IBXnCG7vuBkedLR58gFy5viFJFDQ1kVT3qEIkxT+rTHFbfeIQ++KHrSY4O+7qK/5nLxNtn9a9tk53NulmN/6T6YEjs3TANm80FoNShksBBCCCGEEEJoHIXWGtOWfdDAc36c/4ON8vg3f8U6OQ6wzo/oqQ/dPvyVZ8huLzxFHvvGs+Wsy38VpxC5pN+vt4ykjo8jlrfJmq/fKQd8XWTtxXfKQ8/bJi9b1tdYoqdBNB6vr6DVrpDBQgghhBBCCKFxFFprNC3HN36yRf7kX78qu7zgFPukhzoz3K+zPPxVZ8oeLzxFBq89U878zpXy46tviH+9pcWvt4QiTFPqyBB1ZsgdsuOF2+WhF9wpT/3OVrlqq/7CSxymsq+z5NMjtJoUMlgIIYQQQgghNI5CTy/MQrqmcXzvF9fKXy2eJzsfcZL98KlzbOhTHfoNEP0VmANecZoc/OrREyG9fL3FSZ/m+OiVt8tJW7bq6ZvdO6InO/heB+qQQgYLIYQQQgghhMZR9o+r85Djp1ffKH/7gQtlpyOWZP1R+uRH+tUXlXsSpHcfMk3JFGydHbJN7tym+3ochwfqlkIGCyGEEEIIIYTGUWghPy85rrruZvmn/7hEdnzekqyLnR/69EekFjs9QhEQQpMpZLAQQgghhBBCaByF/sA6X42cH9fefJs8/2Nfl52etyT7v/x06/xo9estoYUbQmgyhQwWQgghhBBCCI2j0FqjLXLccvvtctSnLpOdjjhJ9nvZaXJQ719vQagHChkshBBCCCGEEBpHoYV82+TYvn2bvP5/viO7Pn9JdnzeSbL0zV/a46E0sxJOD4QaUshgIYQQQgghhNA4Cq012qmR80N56xe/Jyd/K3J6hOPPRimnR6iBEUIIIYQQQgghhFalfKcHAADMjyuuuCL+H0Bz0M/6RReuN30WALoOdq5ZcHoAALQEBjyYBfSzfoHTAwCg/WDnmgWnBwBAS2DAg1lAP+sXOD0AANoPdq5ZcHoAALQEBjyYBfSzfoHTAwCg/WDnmgWnBwBAS2DAg1lAP+sXOD0AANoPdq5ZcHoAALQEBjyYBfSzfoHTAwCg/WDnmgWnBwBAS2DAg1lAP+sXOD0AANoPdq5ZcHoAALQEBjyYBfSzfoHTAwCg/WDnmgWnBwBAS2DAg1lAP+sXOD0AANoPdq5ZcHoAALQEBjyYBfSzfoHTAwCg/WDnmgWnBwBAS2DAg1lAP+sXOD0AANoPdq5ZcHoAALQEBjyYBfSzfoHTAwCg/WDnmgWnBwBAS2DAg1lAP+sXOD0AANoPdq5ZcHoAALQEBjyYBfSzfoHTAwCg/WDnmgWnBwBAS2DAg1lAP+sXOD0AANoPdq5ZcHoAALQEBjyYBfSzfoHTAwCg/WDnmgWnBwBAS2DAg1lAP+sXOD0AANoPdq5ZcHoAALQEBjyYBfSzfoHTAwCg/WDnmgWnBwBAS2DAg1lAP+sXOD0AANoPdq5ZcHoAALQEBjyYBfSzfoHTAwCg/WDnmiXl9NDGRgghhBBCCCGEEOqCUk4PAACYH2qUAZqGftYvunC96bMA0HWwc82C0wMAoCUw4MEsoJ/1C5weAADtBzvXLDg9AABaAgMezAL6Wb/A6QEA0H6wc82C0wMAoCUw4MEsoJ/1C5weAADtBzvXLDg9AABaAgMezAL6Wb/A6QEA0H6wc82C0wMAoCUw4MEsoJ/1C5weAADtBzvXLDg9AABaAgMezAL6Wb/A6QEA0H6wc82C0wMAoCUw4MEsoJ/1C5weAADtBzvXLDg9AABaAgMezAL6Wb/A6QEA0H6wc82C0wMAoCUw4MEsoJ/1C5weAADtBzvXLDg9AABaAgMezAL6Wb/A6QEA0H6wc82C0wMAoCUw4MEsoJ/1C5weAADtBzvXLDg9AABaAgMezAL6Wb/A6QEA0H6wc82C0wMAoCUw4MEsoJ/1C5weAADtBzvXLDg9AABaAgMezAL6Wb/A6QEA0H6wc82C0wMAoCUw4MEsoJ/1C5weAADtBzvXLDg9AABaAgMezAL6Wb/A6QEA0H6wc82C0wMAoCUw4MEsoJ/1C5weAADtBzvXLDg9AABaAgMezAL6Wb/A6QEA0H6wc82C0wMAoCUw4MEsoJ/1C5weAADtBzvXLCmnx8ILzkYIITRH6aCHEEIIIYQQmo5weiCEUIsE0DQ6+EN/6ML1ps8CQNfBzjULTg+EEGqRAJqGiVW/wOkBANB+sHPNgtMDIYRaJICmYWLVL3B6AAC0H+xcs+D0QAihFgmgaZhY9QucHgAA7Qc71yw4PRBCqEUCaBomVv0CpwcAQPvBzjULTg+EEGqRAJqGiVW/wOkBANB+sHPNgtMDIYRaJICmYWLVL3B6AAC0H+xcs+D0QCkNTr3Zdogsy1fdLEvHXhRME9Lwsjifyy6XQSB8urpIFq+KipOrrphCeeH8Um1z1UYZptLoOcdh5pyDxzMsmzwW357OAyGApmFi1S9wegAAtB/sXLPg9EApFTk9EjIL+rA8p4HknQPT12ycHlnnxfKpaSfQuE4Px9Kxo7gIATQNE6t+gdMDAKD9YOeaBacHSmnk9PCcFW+/3HNi3Fzr6QT/SY9Q+HQ1Y6fHVTfLst2my6p0enjxB8deEeWhTKXOqCsCaBomVv0CpwcAQPvBzjULTg+UUtDpoTp2Y3y8jU8mzNjpcdkVSbjfFuM4PVLHZ/I0DFotAmgaJlb9AqcHAED7wc41C04PlFJ9p8fIMaDf+lh0T3bEC/siB8DA5LPsHAqG5cuukGH2yZG3XyFLXhx9umTp1LJvgxQ7PVw9tI7DU03Z0a5B8yz6RkmV08Ock2sP7/yKzjk5XuT0yBxH/RZA0zCx6hc4PQAA2g92rllweqCUil5vWYqPjo57jgGfEqdH4fdCfCeB51zJkXEmjFTt9Cgi/NRKDafHC1ybjF73CZ1z6riXl/96S/bbIKjfAmgaJlb9AqcHAED7wc41C04PlFKhYyJm5CRIOz2qP+rpOU4uc4t/ffriZllO4ozy9PPTp0Miir4nUs/pseyeFtEnSeJjYUdKHafHqK1cXSudHiEy9UUIoGmYWPULnB4AAO0HO9csOD1QSmGnx83251XTr6F4joGA4yDnAKh0XBi93fu4ZwHjPJmhSupR83ikek6PkSMnevolH55JlyPzChFCRgBNw8SqX+D0AABoP9i5ZsHpgVIKvt4SVANOj7JXWywreNKjEadH+mmPUHgqncvLf10oWD7qswCaholVv8DpAQDQfrBzzYLTA6U0V6eH96RH+ImOIs3P6ZE87WHiLQbDC8ryHDzjnSvqugCaholVv8DpAQDQfrBzzYLTA6XUmNPDf3XFHHOLf/trLkn69BMQo9dpLop/9SXkoIjC5+f0cMf1FSAbWs/pkTnXfB1QXwXQNEys+gVODwCA9oOdaxacHiilxpwe/rEsXpxR+QEKnQPzdXrkvkVSy+nhn2vJ0y+odwJoGiZW/QKnBwBA+8HONQtOD5RSk04PTTM8dWPKQbB8mf9ERyT9Odelq3znh/7CSz7eSHN2ehj5zprCX7LJluU5S7JpUH8F0DRMrPoFTg8AgPaDnWsWnB4IIdQiATQNE6t+gdMDAKD9YOeaBacHQgi1SABNw8SqX+D0AABoP9i5ZsHpgRBCLRJA0zCx6hc4PQAA2g92rllweiCEUIsE0DRMrPoFTg8AgPaDnWsWnB4IIdQiATQNE6t+gdMDAKD9YOeaBacHQgi1SDroIYQQQgghhKajlNMDAADmhxplgKahn/WLLlxv+iwAdB3sXLPg9AAAaAkMeDAL6Gf9AqcHAED7wc41C04PAICWwIAHs4B+1i9wegAAtB/sXLPg9AAAaAkMeDAL6Gf9AqcHAED7wc41C04PAICWwIAHs4B+1i9wegAAtB/sXLPg9AAAaAkMeDAL6Gf9AqcHAED7wc41C04PAICWwIAHs4B+1i9wegAAtB/sXLPg9AAAaAkMeDAL6Gf9AqcHAED7wc41C04PAICWwIAHs4B+1i9wegAAtB/sXLPg9AAAaAkMeDAL6Gf9AqcHAED7wc41C04PAICWwIAHs4B+1i9wegAAtB/sXLPg9AAAaAkMeDAL6Gf9AqcHAED7wc41C04PAICWwIAHs4B+1i9wegAAtB/sXLPg9AAAaAkMeDAL6Gf9AqcHAED7wc41C04PAICWwIAHs4B+1i9wegAAtB/sXLPg9AAAaAkMeDAL6Gf9AqcHAED7wc41C04PAICWwIAHs4B+1i9wegAAtB/sXLPg9AAAaAkMeDAL6Gf9AqcHAED7wc41C04PAICWwIAHs4B+1i9wegAAtB/sXLPg9AAAaAkMeDAL6Gf9AqcHAED7wc41S8rpgRBCCKHuSydXCCGEEEJ9kM59EqcHAADMD7XDZ3zvGoQaFeN9v9DJ3mqnC+cAAFAGdq5ZcHoAALQEnB5oFmK87xc4PQAA2g92rllwegAAtAScHmgWYrzvFzg9AADaD3auWXB6AAC0BJweaBZivO8XOD0AANoPdq5ZcHoAALQEnB5oFmK87xc4PQAA2g92rllwegAAtAScHmgWYrzvFzg9AADaD3auWTrp9Fgaxj/LN1iU5fgYAEDbUbsVWqQiNE11abyHanB6AAC0H+xcs7i5j9nmJ0FLi4PIeWA1kOFigQthaSiDJN6CDBaX4oD5gNMDAFYjardCi1TUXx17zOGy1o2vhx2XDz/qwGTszerJx6TjOmkY9AecHgAA7Qc71yxu7mO2AaeHcx4kGkrenbEsi4NMvCFODwCAcVG7FVqkoh7qlLfIkzd446oKpwdMAE4PAID2g51rFjf3MdsSp8dgkDzJkfNnLC/GYSaOc37MwumxNIzKMuVmH0DB6QEAqxG1W6FFKuqfjj7MjGEbDpfnHnOcPNc5P8qcHoGwIml86A84PQAA2g92rlnc3MdsS5wew8XR0xwZh8ayewVmYOIk8XF6AACMi9qt0CIV9VmX4vSAFYHTAwCg/WDnmsXNfcy2zOmxNHJupF5xGb3aMlhcTsXPsbwkw4H/jRCTZjCUxaW0W8LlMTTHlxb9b4WMvimSlJOR1iEVPliUpdT3Rkq+SwIAMGfUToUWqajPwukBKwOnBwBA+8HONYub+5htudNj9BqL94qL92qL+hIKnR6ZD51m5ZwVSpFDw0mzru30KFDIJwMAMG/UPoUWqajPqun08LXhQHnyMZfm4jppHOgPOD0AANoPdq5Z3NzHbCucHv4HS2Ovgf9qi7obwk4P/0OnQ0ke7FheSh+PD/sOC/0VGBt9eVGG8bEk7zqvt1TlAQDQItQ+hRapqM+awOkRa+1RYceHhkF/wOkBANB+sHPN4uY+Zlvl9PCcHNZJkX61RQk6PUJPiDgCjoskj8z3OHLHJ/imR9FxAIA2oPYptEhFfVa50yOrY495y+gnbhcOl6MDcTQM+gNODwCA9oOdaxY39zHbaqdHyoGxmH61RcnFV0qcEyGHSG2HBU4PAOgYap+yC1TUd43n9FDZX36x4+OB8txT8uEaBv0BpwcAQPvBzjWLm/uYbQ2nh/ivqsTyHAj5+Aae9AAAqIXap+wCFfVdK3F68KQH4PQAAFgNYOeaxc19zLaO00N9GJlfYPE8DqH45ujoWxqDxdQ3Pfzj7nBth0Xi9Mg7U2rnAQDQItQ+ZReoqO8qc3ocJ0/ecLg895TRtztSr7dseIscm4ofScOgP+D0AABoP9i5ZnFzH7Ot5/Twn9zIPmURjG/IOkrSGqScFrUdFql6RAr9ZG1pHgAALULtU3aBivqp0dMaIbknOI6TJwfDVeFXW1QaDv0BpwcAQPvBzjWLm/uYbU2nh3ivuBQ5FbKPXhiWlxZlOMg8JTLwfs0lZhyHxfKS/1O4A1mMix0nDwCAtqD2KbRIRf1TPaeH0Sn6tIf/Cy4HytrD3iJHFzg8VBoP+gNODwCA9oOdaxY39zFbJkEAAPNE7XBokYrQNMV43y9wegAAtB/sXLPg9AAAaAk4PdAsxHjfL3B6AAC0H+xcs+D0AABoCTg90CzEeN8vcHoAALQf7Fyz4PQAAGgJOD3QLMR43y9wegAAtB/sXLPg9AAAaAk4PdAsxHjfL3B6AAC0H+xcs6ScHgghhBDqvnRyhRBCCCHUB+ncJ3F6AADA/MAOwyygn/ULneytdrpwDgAAZWDnmgWnBwBAS8AOwyygn/ULnB4AAO0HO9csOD0AAFoCdhhmAf2sX+D0AABoP9i5ZsHpAQDQErDDMAvoZ/0CpwcAQPvBzjULTg8AgJaAHYZZQD/rFzg9AADaD3auWVrp9FgaLsjCcCneg16xvCiDhaFw9WH1sCyLgwWZhsliMQqzgH7WL3B6AAC0H+xcswScHksyNP/X/bCaX5BWOT1seLZeg0Wz9Jgn0cJnVKf2Ldxz7dZCx1LhtbfOEK33JO0aX5sx+9Rgcb49qk1wz5WzvDiYSnvoeQA0Df2sX+D0AABoP9i5ZnFzH7MNT4IKF6F1WBqajAcy7tqxqkwbnlpguMXP+GVNWsc0cfl+nTRftz+VMlZC7MjKLMq0Hae2sJ/KOUb1DPs8zKJyOCwML6em08Nvn9jJsuocHw31Ne65Cmx/WXl5LEY7TOK4jZWzR+6ecip24tn70c/LKGurojjhPDQ+9AecHgAA7Qc71yxu7mO2q9npoVQvbINMY3EUT2YLi571AiyDdRg0/VfwaZyjzSNUz+jaavuuqD+WEOpT4X7Wchrqa9xzVURtsVInGYvRrqIOXc+2BZyq2XuszP7YsOLO7z2tidMDcHoAAKwGsHPN4uY+ZjuZ0yNaULsJ1ihu7rhRFJR5fSYwqasqs3AymFvolJe1kjqmieMH6lxcRnHbOfQ8dVJsz9cLT/atqpwZUd3qLMZK65P5K2U6qOAcS9KEsPmE2trmE59nwDHi2ilVj0w+ts1KKmDDQ2lCx5JzCrd9Ko4p09YrLjtUj8JjReUUtGvhdShD27Oyf8f1CcULOheK75/yOo5z3012zym5cC9Qz3PSe66wjcZA84d+YPuL63v2ns7cR6FjMam0GZJ+GLCVDvpZv8DpAQDQfrBzzeLmPmY7vtMjWjz4k6rMQiS3INK/hmb38/mXlakkk7p4PyFeDEZJ65U1aR2zjBZSgUlmYGFY2XYGe57mWO6vgdk4ZQutVJsUU16f6P+jPMx+tszcOdZIk6Houtu6JWmz+cbpkrraI+G2DOTtyLWjPZ9AOdk8M+cU1WXUjtH+KF02DyWYb2E5Fe0a6GulaPzMOYRI18Ej179q3D/BOo5/3417zylV9509T7M/yT2Xz3t8tGzoB6l+Zftrtu/kbZ0j2yeDBPOMoJ/1C5weAADtBzvXLG7uY7bjOj0KJmT+YqNg4eETWkBUTehCaSwVC/xgugnrGCQuX9syNdnMlVGj7exuplybf6auoWM+FW0SUVGfpRp5ZM+xVrk+RYvc6PhoEZqPF+wvtj6jaxCM42HDTX1HqtHOuWNRO/oLZsUvO1SP1LGqcqraNdfXKtD4Nfq2reME95ySS1uzjoVl+sTlV99zSvV9lyuz6nr42HzCi8y66HlAD8jcN2GHWdb2jbD9NOn3mT7rKOmP9LN+gdMDAKD9YOeaxc19zHZMp0fRxN+fzJUsPOxEzSkzYSssM6ZwMZSrU3VZk9axlLgNkglntow6bWfItYPNx6tTokBejkyeQWrUZzTJLigr0I6VaVIUTPAD+UYLhNGxYH/JpAvG8bDhyTWOHSv+Na/T9gVt7ZcdqkfqWI1ybPzMsYRAe2UZPSERUEE/T7ePR7DvVNw/hXVcwX0Xt33hPafU7ef+9alz3R02Lk4PqCLvuB3X6ZEmYK+Ukv5IP+sXOD0AANoPdq5Z3NzHbGfh9IgWNf4kLrSYKiwzpnABlprk1SsrSjN+HSspa4c6bWfItUOurnXIn0+OmvVRbJ3Msep2HFGYJkV+IaAkaQNy55RrJyVTn2AcDxvu18+m9869TtsH2kvxyw7VI3VsjGts02lb5OpdL71F49fo27n2cdjy/IVVjfsnWMcp3Hd++4fKqNHPU9dCGac9c20xPno9odsE+3Ww70T3RMZchAn105L+SD/rFzg9AADaD3auWdzcx2wncXoEJmT+RCu7yAhMzEITwMIyY4KTRrOXWjTXLGvSOlbit0+2jDptZ3cz7VCUroLK+tesT0IofvYcs9Soe+5840l/yGHjn1M+nRaX/stpKI5Pvo0y/alW24cXKX7ZoXqkjtUqxyMbv+o6ZNFrXKNv59tHCTiq6tw/oTpO477z2yJURratHF4/z12fojQBwn+tHw8Wo93G9q9Cmxrqr5ljRYRsdehYDP2sX+D0AABoP9i5Zpnc6WHIT+CiRV/hAi67bydlJn5mYVNWpmLDU2nixZdfl5plTVrHFBondA6uPtk8DZVtZ8i3Q3yeqbI0XXhiOyLOO1DH1NMSRfXR80tX3sStWFDWSZPBLhr9Opal8cKiusd1jQJrtGUaG55pn/Qitl7bZ9sxW7coz9E55eteUU5Vuwb6WimaPnPeIfLtE7jnlDr3T6iOddL5BOqdavuCdsheH3Mk1VdseLpite+5fBuNj54zdJN83/OJ+5nX90Z9MdMHte+n+mje3lnsPRQuj37WL3B6AAC0H+xcs7i5j9mO7/RQooncSNm/yvvhmk206HPHhrKYXegaxi3TKhC/TlnKJHXMkk5jFDqnOMxVNXsewbbLnZdbbDqVOxJGZNMZZfIuq082LNDcuXOskyZFZpJu0xe2ezTR1zraeCbzVHmhcyupQLCseOE8aoc6bZ+O49fPka2n7TupupWXk0pvlD0tP7zklMciW6ZVQea17/E4jstm3PtukntOyZ5Lrp/nzqv+dffzmgTNHzpIbEtGfSjUl2LnhVPSn+P+l9334ub6sBcWKd1n9Rj0B5weAADtBzvXLG7uY7ZMgmDeRJP+cRfq4YVqe2h7/WAK2EVtyBkyHthhmAX0s36B0wMAoP1g55oFpwe0ikkcBDg9YN7Yp05KnkqpC3YYZgH9rF/g9AAAaD/YuWbB6QHtwv7FvOi99zA4PWC+RK8bTOMSY4dhFtDP+gVODwCA9oOdaxacHgAALQE7DLOAftYvcHoAALQf7FyzpJweCCGEEOq+dHKFEEIIIdQH6dwncXoAAMD8wA7DLKCf9Qud7K12unAOAABlYOeaBacHAEBLwA7DLKCf9QucHgAA7Qc71yw4PQAAWgJ2GGYB/axf4PQAAGg/2LlmwekBANASsMMwC+hn/QKnBwBA+8HONQtODwCAloAdhllAP+sXOD0AANoPdq5ZcHoAALQE7DDMAvpZv8DpAQDQfrBzzVLi9FiWxYH/E3dDWYpDVgNLQ7/uRsPVVHsA6CNqqwCahn7WL3B6AAC0H+xcs7i5j9n6k6DY4TFYNP+LWRqm91vLkgzVyZGpqzpBBotTrL22x8JAppklAPQbFqPdIHK6p/9QkHPEG/ljUlW4T2nc5UUZ+GEBh78eh/6A0wMAoP1g55rFzX3M1psExZOm1fhwxPLiwJzMDJ5KwekBAFOGxehqJ3a6WwWcHiWDalW4T3FcLd8rNx7Ls84T+lm/wOkBANB+sHPN4uY+ZutPguKJW8UELP3XpvwETydaqTi5J0WiclwxZfkpuTxz9YvyK/rrWJbIQeKV6eeX+WtZOiiTLhMOADAJaktg9WLHJh3nrFN8Hk6PPKG49LN+gdMDAKD9YOeaxc19zDY9CRot7PPOByU7kbL7nlPD7pv0iQMi9GSENzGsyk/J5ZlljCdU8k+E+I6etDPG7mcdNjzpAQBTJmuHYZWC0wNaBE4PAID2g51rFjf3MdvAJCj1tIM3gbPHMwv+zDE70Uo5CrKOBG8yViM/JZ9nhri+1XPBfF0szpGxVCMfnB4AMGVYjHaEIqeHub6JCpz6ReE+teMWjImaBvoDTg8AgPaDnWsWN/cx25JJUDxxSiZxdkKXmXRZZZwemZlW+pjneKiRnxLKM0Vdp0fAoWLx0o8mlQWODZweADBl1OZABwg4PdIEPhaeoircpyhufDwwINLP+gVODwCA9oOdaxY39zHbikmQ71CoseAPOij8iaD+303SajoQKp0esSOl8pseNZwejsT5kZ1Q1qwzAEBdWIx2BH+sK6JqDBlnjAnEtWNXgdOEftYvcHoAALQf7FyzuLmP2Y7h9Ag4B7KEHRTRX570sIYnzoka+SnVTo/yiV5CUXlFE9VQfHsMpwcATA8Wox2httOjJE6dPByZuHYcLElLP+sXOD0AANoPdq5Zwk4PnUBlHAfpSVTocVp9yiIz6Qo4KOwHRIeLJr3vMKjOT6nj9IjSZfOK0vpPgOQnhXE6zV/P3y/HTigzDo6ajhoAgLqwGO0IWYdFdkzxxxu7WxaeGR8r8sqPbXnoZ/0CpwcAQPvBzjVL2OlhyP0sa8aJkEzEkjiBR2tTE7OY2Fkwbn5KPaeHks0rnC6aHI6Ud4qMFCrWj1OrWgAAJagtgdVLdtyIpGNZfkxKv4ZZFh6HJWNmSVw3vuaUHk/1GPQHnB4AAO0HO9csbu5jtkyCAADmCXYYZgH9rF/g9AAAaD/YuWbB6QEA0BKwwzAL6Gf9AqcHAED7wc41C04PAICWgB2GWUA/6xc4PQAA2g92rllwegAAtATsMMwC+lm/wOkBANB+sHPNknJ6IIQQQqj70skVQgghhFAfpHOfxOkBAADzAzsMs4B+1i90srfa6cI5AACUgZ1rFpweAAAtATsMs4B+1i9wegAAtB/sXLPg9AAAaAnYYZgF9LN+gdMDAKD9YOeaBacHAEBLwA7DLKCf9QucHgAA7Qc71yw4PQAAWgJ2GGYB/axf4PQAAGg/2LlmabHTY0mGpk4LC0PzPwCA7sNiFGYB/axf4PQAAGg/2LlmCTg9nLOhSLNyQtR1eizL0nAgA6+Og+GSOQoAsLpQ+wXQNPSzfoHTAwCg/WDnmsXNfcy2GafH8uLAphssjuuGqOP0MHEG2fpFGr+8PJPXHQBgfNTewCpneTQuDd3gtTRMxqaskjiG5aXF1Jg2GC4WOPCXZXEYjU9WAzNOuohe+bmwGD0O/QGnBwBA+8HONYub+5htYBK0vBg/QTGQSdf9TTo9loZuYmfqN5rxRU9+4PQAgFVG0A7DqsGNGU5jOT2CcULj37IsBp39GteNmxkN0s4TPQb9AacHAED7wc41i5v7mO0kTo9lWTKTvPSrJW5yFZ6YOQdCNp3+NSpdRpXTYzS58/9SlqasfiP0r2uDpK4Dk99Sad2VfJpsrgAA46H2BFYrOuaZsWDRjB+xQ754bMqOb6PxMjXOLAfGlcQ5YtLa4FFaHbuG3pMdy4te3OiQRY9Bf8DpAQDQfrBzzeLmPmY7vtNj9KRFRvavSmVOjzp/japweiR1Kwg3lNcvJsnH18BzaIyUTEaDaYrrAQBQB7UlsPpxY0+R0yN5IsRFcGNK5omMEKEnEIueSsyVE6PHoD/g9AAAaD/YuWZxcx+zHdPp4YeN/qyUOANGc7mCydiS97FRky7v4Khwevh/7YoPpahZvyQfN9lc1qc8ojyL6l6WBgBgUtSuwOqn3OnhxjZvXE3GlGHmmx75DMqcHta5kYyNsQKOFD0O/QGnBwBA+8HONYub+5jtmE6P7MI/xk323ISs2OkxDDxNMUWnR8362XJSk8xF79HgAqdHSRoAgElRewKrnzKnR8pB4cg6Kjxl8yhzethjgbyyzhM9Bv0BpwcAQPvBzjWLm/uY7QydHt4TF2mN4fQIPbXhU9vpoei3P3wnTHS+xU4PJZwGAGBS1JbA6qfY6eHGtUxYYLwKOkcMlU4PD/vtKc3DyM9G96E/4PQAAGg/2LlmcXMfsx3T6REKCxwLTdxyx0y6vIOjwulhpoajb4aY8pJHLZwzwn3AtLx+OtnUv4KNdkeTx6JJZ1kaAIBJUTsCq59Cp0eBM340NpnxzgaYcaxoXMnmoT9Ra9Oa8obpsWmUL06PPoPTAwCg/WDnmsXNfcx2TKeHmVaFPlRq5c+u3AQtlp3AZY6NNI7Tw+BN6HIaLk5UPycbJVT3qjQAABOidgRWK8VjYjQ2+L+yYhN4FKXVsdf9mpgbh0dOjpTUCVJrbKWf9Q2cHgAA7Qc71yxu7mO24zo9FDNRi/8aFWmQ/iuTxY+jP+0aHXV/xVLpNzGin/gb0+mh6IQwVwf3V7R69fPrsqA/Oeg9NRKqe3kaAIDJUHsCq5Uix0XWiV40pqlzwx9X3M+4Z50eBn26wyvL/yl2+70sl0cclh2e9Dj0B5weAADtBzvXLG7uY7ZMggAA5gl2GGYB/axf4PQAAGg/2LlmwekBANASsMMwC+hn/QKnBwBA+8HONQtODwCAloAdhllAP+sXOD0AANoPdq5ZcHoAALQE7DDMAvpZv8DpAQDQfrBzzZJyeiCEEEKo+9LJFUIIIYRQH6Rzn8TpAQAA80ONMkDT0M/6RReuN30WALoOdq5ZcHoAALQEBjyYBfSzfoHTAwCg/WDnmgWnBwBAS2DAg1lAP+sXOD0AANoPdq5ZcHoAALQEBjyYBfSzfoHTAwCg/WDnmgWnBwBAS2DAg1lAP+sXOD0AANoPdq5ZcHoAALQEBjyYBfSzfoHTAwCg/WDnmgWnBwBAS2DAg1lAP+sXOD0AANoPdq5ZcHoAALQEBjyYBfSzfoHTAwCg/WDnmgWnBwBAS2DAg1lAP+sXOD0AANoPdq5ZcHoAALQEBjyYBfSzfoHTAwCg/WDnmgWnBwBAS2DAg1lAP+sXOD0AANoPdq5ZcHoAALQEBjyYBfSzfoHTAwCg/WDnmgWnBwBAS2DAg1lAP+sXOD0AANoPdq5ZcHoAALQEBjyYBfSzfoHTAwCg/WDnmgWnBwBAS2DAg1lAP+sXOD0AANoPdq5ZcHoAALQEBjyYBfSzfoHTAwCg/WDnmgWnBwBAS2DAg1lAP+sXOD0AANoPdq5ZcHoAALQEBjyYBfSzfoHTAwCg/WDnmgWnBwBAS2DAg1lAP+sXOD0AANoPdq5ZcHoAALQEBjyYBfSzfoHTAwCg/WDnmiXl9NDGRgghhBBCqC3SOSpCCHVdIfuHpiNt38TpAQAA80ONMkDT0M/6RReuN3NUAOg62LlmwekBANASWIzCLKCf9QucHgAA7Qc71yw4PQAAWgKLUZgF9LN+gdMDAKD9YOeaBacHAEBLYDEKs4B+1i9wegAAtB/sXLPg9AAAaAksRmEW0M/6BU4PAID2g51rFpweAAAtgcUozAL6Wb/A6ZFlWRYH+ksJA1lcjg+tKpZkaNpjYWFo/gcAXYG1eLPg9AAAaAksRmEW0M/6ReecHktDu59XXSdGQ06P5SUZDgaj+gyGDTlVZuf0WBrG5+JpYM5rqfS8cMoATILeX9Acrn3NloYGAJgnLEZhFtDP+gVOjywNOD0K61Rv4b+8GDlLBrUqND2nQnm5rp1CKms7nB4Ak6D3FjSHa1+zpaEBAOYJi1GYBfSzftE5p0cGt3BfGCyaZXodpu30cIt8o+FSUoflpUUZ6lMR8X4ZbXd6mNOKD5my42P16goAddH7CprDta/Z0tAAAPOExSjMAvpZv+i002N5UQYmLO8AWJal4SAOixfpg8X4tYyR02O4OBzFSb2OUpY+Q/KUR7ETYmkxndeorPDTFOpkKE6Tdnq4V1ASx4Ti2iV2BC1nznNpubjcEQVOj1TcOI4pZ9G0l81nOAw4ZUw8F240MIlHTb1k8hiFNfdaEEC70f4PzeHa12xpaACAecJiFGYB/axfdNfpEViUW8IL+ki6EC8Jt06CqvRpkidN0pXw8J4E8VVS1nCpLE3a6ZE4XbzynSPEPo3hwgdDGapDYqBPuBSVG2dgqdMOgTg5p0dZWQXnGWhngK6jfR+aw7Wv2dLQAADzhMUozAL6Wb/oqtMj+chm1tngP/3hnhhIPaEwWoQPFuMnDlJpqtLHx2KqnR7LJrn/ZMNixikwymP0ykhZmozTI9l3r+tkwj2nR/ZJlbqvt4w0kMHQf+JlFGeY5FFQvu7bKNFTNLa5krq5V5M0LM7PNQ5AT9B+D83h2tdsaWgAgHnCYhRmAf2sX3TS6ZFbLHu4sMyqebSYdgt1/5se3kK9Mn18wOEv6uNDWezrJTkHwih+yPlQnCbr9EinDzlh1MmQ5KHOj/h4XadHsQOioi3tbrg9laSuARWXCdBNtN9Dc7j2NVsaGgBgnrAYhVlAP+sX3XN6uEV1wYdIfSeECw8+6VHh9ChMHx9LGIXpwj7JUtOogyHOT79jER2v8aRHaRqvrlGoDY++4TGIHSWhtlm23wnxy5mp0yN50iSqh80zCQs4rwB6ht4L0Byufc2WhgYAmCcsRmEW0M/6RdecHtVPB4wW6zmlvqNRtFCvSp+nuE4mv8SJEggrSK/f3vD3R9I0AaeHIXndR+XVM3pixH3PIwrPOj2c0s6NKTk9kv20ojzDYdlzA+gD2vehOVz7mi0NDQAwT1iMwiygn/WL/jk9NNJS6tdCdFE++sWQGgv10vRhlpcyr6MMhrJoH22IvmHhHx9aB4W/sDflJ2m1XmVpsk6FGM+5knJSuKdAYqXPI1tufNgyLaeHwT714srJ1MGGZa9p5twAeoD2fWgO175mS0MDAMwTFqMwC+hn/aJrTg8oIHFu4DAAWI1g55oFpwcAQEtgMQqzgH7WL3B69IPkCZjixzIAoMVg55rFta/Z0tAAAPOExSjMAvpZv8Dp0QfqvIoCAG0GO9csrn3NloYGAJgnLEZhFtDP+gVODwCA9oOda5aU0wMhhBBC3ZcuhBFaLQr1YYQQQmgcJU4PAACYH9hhmAX0s36hToPVDn0WALoOdq5ZXPuaLQ0NADBPsMMwC+hn/QKnBwBA+8HONYtrX7OloQEA5gl2GGYB/axf4PQAAGg/2Llmce1rtjQ0AMA8wQ7DLKCf9QucHgAA7Qc71yyufc2WhgYAmCfYYZgF9LN+gdMDAKD9YOeaxbWv2dLQAADzBDsMs4B+1i9wegAAtB/sXLO49jXbdEMvDQM/9TIYyHBxSZbjOHNheUkWhwOvTkNZnGuFqlg2bTmQgdeOg+Gc2xAAWonaB6hDZFcjmzqUpfhoOVVpCsKXhvGxkAbJ+BMcM40GyQAVGAvM+LXkgmuWs7w4zIwni954Um+80ePQH3B6AAC0H+xcs7j2NVu/oZdlcTCaNOVVd5IZsbwYTSRHk79JKajXYDTpm15Z02BJhgXtOI36tetcAWCl6P0MFSwvZuxqjfGoKk1Z+FScHiVjqhu/apTjbH5OcR5FdVgYpltIj0F/6KLTI9zXx5ubrhhjN3wHY+Y2mxv5thnZqTCxfWrgBMavy+RUlRW0n225aAAG7ZOQJ7q36831fJtcNPcxW7+hRxM0f0G9vORl5jkaqpja4jyZFJoTj7OydWqp02NkgI3hTf6cF/8lbgr1w+kB0C30foZy1K7q0w1LyXhUPRBWpRk7T38sSg7Ftj5kjpOB2AsPHcuSKmdJhvb/uriKEiyb8CSPpO6j/DQ8W0+FftYvOuv0yExoS+/BAKE86hPdj6P5l86bM/ZgTgvqbNnRXLGsXRp2eoxVl0mIbWN2XWJt7Oia2LJTcbLXEGC+MDZnGc17KudlNq4XJ55j+fe3a1+z9Rs67PSwBCZqS8aQRMdiJa+cjPLx5fIsTldAMoELGczysiKWc2WmHw0eGc4l9whxyqGSfay47DWV0YUqHkeq6hMROXZcnIHJb6n0XPPxi2sJAO1B71moSTIWVQ2EHlVpauUZHh/LF1xuPPDCTVnRsaKyMuUEHRijOMNhHB6Y1GfrpfGgP/TF6aHY49nFbwFFedTC2oqi+32Fea+QfNmRHZhHdWZRl7rXPO/0CNUPYH4wNqdJ7m07/xljrheTvb9d+5qt39DhSV2EN8my+YwW9ylZwzKK6yvKsyxdEek09i9zSeSysiLsyWfCrZIyA3WKw9xTFTkVGcsak+fq+hiSfHwNPKfGSPZcg/HH7ygAMHv0foWa1LCxOarS1MmzIE7enhs7bcYHZ8v9MWQw9J7QSIx9hmw5zumRGSNduYOBy9/ETwo1Y1pqvI7QfegPfXJ6RPeNf19l54Z6PwXmi0leofgh4vlirg4ryVvzNHXPPbVVt04R+baJ6hodCpeRT5MpsyyspD7ldXGU5VfUJo5QfmFyTo/YxtZJCzALtP9DgPY4PcyRJe+JB2NEIsfBqHJuspfNqypdEG8S5+TnW1SWM27WYLoZYXLMHwzifM2BUQ7uuGdsk3oU1Df4VzmPWvUxZCe6+iHX+BHK4LmWxAeAdqP3LtQksZdj2LeqNDXytIOoiZMdY9zxnLxJ9uhDqZHKnhbMlpM4TYqcHotuDA0rGVMMug/9oVdOD3Pn6n0QBUXzVT+any6fR3n8HMk8r8AeBPL2j9k4KVvj5pr+sXy63OI9Q7bsdDmhMrJpwnWNdserT3ldlKr8wvVNsDY76wgJk9hQXyXtCDBrtE9CgEmcHvF8zjMtSfuard/QsREyx3LOg8QAjTKy7xXH8UcaVc4ZmmxeVenKWM44P5K6FJQVNZiJWzhh1KPu3DIG1BvY8iowtkmagvOpVR97JHWe/tMt4XMtjg8A7UbvWajJPJweSXjVJDt6dTGyw1HcxLarTV7y7HTIKR0qp86YYdKl7L/JOxpj0/XVMOgP/XV65PEX1MV5jPDjF+HmYr7dyOVt79/svZ6ta6Du1hZk7Y3GK7ZBziaM5Jcbbp9UfYNlxoxZn/K6GCrzC9c3wbarnz6Kn5TnXbvQtYzqF7DBAHNA+ywECNrPMvLOVMW1r9n6DV3i9HATL2dkrMGK4qY1qlxwcV4jXTX5egbLUupMGBNjmTHAyTmHlDXWMd75BY11rfo4dALtO4iiMgvPtSA+ALQbvV+hJomNHWPMqEpTEZ5M4Atn4B5JXsb+Gnts06Xs/Wj8ymYXLCcZh/y6FecR4ca09PlofOgPvX69JbkPPcX3YTCPkvilxOncfCyXt71/s3Ylu6APLPBD9YkVOn2lsG0sgTIMqTTBusaMWZ/yuhgq8wvXNyFOHwrPOjlCTo+y9ACzRvs9BCizSQGs3QnYbde+Zus3dNjpkfr1lthCuIV3YtSMAclOsnJxDHXSZdE09nHgxIK5Cd3IYIXKsiSGNTQYumMuv4yTIIlX8aHVFKM2tPmNXrKOHRLuA6Zl9TGYC+0/Au0ej9brEjzXkvgA0G70XoWaeHZ5ZAErnADBNB5l4SH77DBhQzPAjp6q85/0MHnZATv+v4sTGL8sReUkxzV+FDD6dZYo7rIZHEdJTB104NfwTGPoMegPvf2QaXzP+NHsvCkOz+VREb+cyPY04/QI2JwSitomIlCGIZWmrMwx61NeF0NlfuH6johtfuAaZa9d8FoGrjnAvGBsLiBoP8NYm1MQ17Wv2foN7S/YA/Ifx00mXVkVx7GDQp10GZJFflmaUFmWknNKrJ2bhOYNcNSIAZUNhrExDaYbLtaoj6GgnWyUMdoVgw7QfvRehXLKxwFnw9OO3qqxo87YkowBIZtfYuttPcrGgsyYV1ZO4TgUDQjJuaeVH8/0OPSHvjg9ovvD6++5BW18j8T3lo3v32cV8X2szfDLt3OvUdm5vF1eXpqiOOnTiueu6YOlhNpmRKiMbJp8mRoe7Y5Xn/K6KFX5heubwtnXzHWy18g7lt1X8tcAYH4wNhdg7as/V4rtRuh+zsypfFz7mm1gQFEj4mswkOFi/sNr/sfZ9H3lxVyhpnJJHP0J1ehodbos+perqp94DZcV4YdF4ekPycWDkj9oJuTLtqoylvoh0VyZLk1VfZSo3CSOXgPvqZH8uZbFB4A2o/cslFPuoDA2UQdCs+/b/iqnRlX4aGwonnzrk5D+9zTsT7D7ttdMzIfJL6xE0m9upM1zVTkZ+6523xuTQz+BHjL/Ggb9obNOD6+vWwXmY+l728zt9FUzF893RsY3XGn8DOk6ZOaNgbz9+9sql2/RAn9k10YqnivbehUZqoIy8mkydU2F1a9PeV0cZfkVtUmWUB7pdEE7XzWHB5gh2idhRNDOW1sb3+/+/evb3Fz8KIrux1saGgBgnmCHYRbQz/pFF50eAABdAzvXLK59zZaGBgCYJ9hhmAX0s36B0wMAoP1g55rFta/Z0tAAAPMEOwyzgH7WL3B6AAC0H+xcs7j2NVsaGgBgnmCHYRbQz/oFTg8AgPaDnWsW175mG/r4B0IIIYS6Jl0II7RaFOrDCCGE0DhKnB4AADA/dHIP0DT0s37RhevNHBUAug52rllwegAAtAQWozAL6Gf9AqcHAED7wc41C04PAICWwGIUZgH9rF/g9AAAaD/YuWbB6QEA0BJYjMIsoJ/1C5weAADtBzvXLDg9AABaAotRmAX0s36B0wMAoP1g55oFpwcAQEtgMQqzgH7WL3B6AAC0H+xcs+D0AABoCSxGYRbQz/pFF50eS8PAzxEOl+LQWbMsi4Nmy0/Ot6CM5cVBFD5YNLVZveSv60AWS0+oubYfvy4ro6y85Pr6mlt/h6bQ69pe4nst6YNDKe6BZXGr8ikLX5JhctwoZO+WF2VQEEf34y1ODwCAecJiFGYB/axfdNbpMadFX77s5hbejtGCOLTQiBYCg4FZGHfB6eG1Y7TYL3M2NNf249dlUuKFXPba2cVbdL1t2anw+Jo36YWBmdPmtbi9H7w+mN33KYtblU/xfrbPB+792OFRZA5c+5otTg8AgHnCYhRmAf2sX+D0mC7zKDsqc9FO8nML3aWhXRQs5RbGq49820YLnXlc6lnVxZZTcd3yTo9Q/WC109q1uHUmZBx+oWNKWdylinzK0i4aO5d1+qrt845V3RM4PQAAWgKLUZgF9LN+0T+nR/QXwPR61Z8cu/D4L+xWmYl2HCcKc2VljiXHQ/XJxvUn63XKT+PyL1r8qiMkH1ZWB7eA9+ug4X6aUJ2q8jRp7MImSj/QuJn6hs7BkW9HV0/3/3T+Wr9wX8jUMwkvq3+a8ro4xmuPfHuG8syTazO7EKxOB6sL7UOtJONciCjou2VxhxX5jJs25SSpvpdc+5otTg8AgHnCYhRmAf2sX+D0MAScHv4i1OaXLCrjcC8DDXe7obLTx8Lp65efJ8k/+5dQbz+9MM7XIR0eLRBGdXL7mfNM1anqvLJ5Gmy7e/WN8yh6LSM5z5jK/A3ZNEX1HC5VtUma8roo47ZxgOz1LMDmG1+fRAX1htWLXtc2EvW/bD8O38tlcaO+W5xPaTnDoXX0pcrz7Ut8Lw2H6XvFj+/a12xxegAAzBMWozAL6Gf9orNOj3hS6zRae0aTZG8tGk+O3WS6IrxiIZpfZGeOpcpyRAvgKEpV/fKM8h8tEBS7SIgzsv93C+HgOWgd3DG/PhG588rWqfK88nlm61urbU0eI/nlhfKP0/gHi8qobJM05XUxTNDGOWyb+nlEaZIy4+uZurYxUf2K+wysPvSat5FSZ0Tm5imLG7yPvHwqy7H3i8vHaDAY3YP2fszUJ3N/ufY1W5weAADzhMUozAL6Wb/orNOjcDUZTZJTwakFe0V4Km6eUNmpY8H0/gK4qn55wvmn88k7PUyagKL4+QV57ryydao8r/Ai369Xqo4Byq9rOP/Kejsq2yRNeV0ME7RxjjiPUJzKditJC6sT7TutpPLe9yiLu5LXW7LlKH784P2QTuva12xxegAAzBMWozAL6Gf9AqeHITWZrgi3k+fsX/BHhMpOHaucuK/Q6eHyyiwg8k6P4nNI1ycid17ZOlWeVz7PCHc8cN4Zyq9rOP9cmqJzr2yTNOV1MUzQxnmiNgk5gnB69I/WrsVDfX2c+8wdW8mHTLPlGEJ2Mf3kSfoexOkBANASWIzCLKCf9Yv+OT3Ck+HRgr2eU8TPX/NzuzbvzAI0WF4m/SjNSp0e8X6mjPTCOH8OafIL8mwZ+TpVnVc+T0dS35JzVHJ1SBHOP5+m6PpVtUma8roo47dxELuoM/lk+lSV08PWL3MMVjftXYuH76loPw5L+mKNuMEwpSrcw9qntDMke0/Y+8azOa59zRanBwDAPGExCrOAftYv+uj0MDGiBbqVmfTahaWb/EYT61TyogW+kx/ZLVK94/n6ZNKnFqd1yk+Tyz8w4c8vjOMFhF+PpIz8gjxcRrZOZeeVzzPB5pXJP0D5dQ3nH06TqWcSXtYmacrr4hivjYsJ5TNKGy3eMuGptocuoNe1vRTd+3HfDdiCcF8tC1OKwjPHg09/ZO+j9L2tx+ItTg8AgHnCYhRmAf2sX3TR6QGrjJJH1AEgAjvXLDg9AABaAotRmAX0s36B0wPmTej1DABIg51rFpweAAAtgcUozAL6Wb/A6QHzJXrkPPvTlgCQBjvXLDg9AABaAotRmAX0s36B0wMAoP1g55ol5fRACCE0X+kCBSGE0EghW4kQQgiNo8TpAQAA8wM7DLNAF5HQH7pwvbGNANB1sHPN4trXbGloAIB5gh2GWYDTo1/g9AAAaD/YuWZx7Wu2NDQAwDzBDsMswOnRL3B6AAC0H+xcs7j2NVsaGgBgnmCHYRbg9OgXOD0AANoPdq5ZXPuaLQ0NADBPsMMwC3B69AucHgAA7Qc71yyufc122g29JEOT58LC0PxvFbG8KIPVWG8AWPUw4MEswOnRL3B6AAC0H+xcs7j2NdtMQy8vyeJwYCNYDYayuByH1WIWTo9lWVocymAQ19FqIIPhoiyNVVcPnB4AMCdydhigAXB69AucHlDE0tDMd4fMdgHaAHauWVz7mq3f0MuymHIkxBosmpC6NO30KKhjosGYTpoYnB4AMCfUdgE0DU6PftFFp4ddrCfzPaceztuSOWukcf0Xs3R65K/ZhPP0CpYXvT/Yxho0URDAlNG+ujrJrsnLbHFV3JLwjL3L+SUqwvVYvPUaemkYJzAFxbGXl0xGLXJ6jIzawBj5Ua1sPe3x/MnWAqcHAMyJlB0GaAicHv2is06PzGI9WlTXX0hPc8E/S+fBiGiePVrQ62JhvLnrLNsgGx7N46fv+LD5+vP/eF6/Whwf8+lL0AZW6xzQ9lnvnsvu+1TFLd5X++bbi4z9i+/zslvHta/Zhpwe5cZoyRiWtEfFfwUm7PRY1tdRvDQDUzu/iMi54sLTDo0RLu8CI5arfxzfNJp9HSb+f5TShPnlJfUbp95l+QMA1ENtC0DT4PToF31xeijZCXMZRXlMwjTzqo2d5K/MaTDLNsiHR3PnaTdbzulhmMv1mZDVVFeYLqtyDhiyQ0W2qSruOHkZ/Hulzn3j2tds/YYeORVU4W9kpOMk8p0J9tjIeRB65MzKVdKeWDY84LVO4oUbwa9blHWgrrae2UdofI1R78L8AQDqo7YDoGlwevSLPjk98hPk0KPSgblfklcovkfyR7VYg6H3h7NYdfOyc0dT1+QJZVfvqnSOeO4ZaoeE8rzy7Vin7Ewcs0ZIp9Fj+VT5sqL6p6OWlV/UXmmqnR4V55hai5gwu+/HidKnT0X7RT5OYRnKWH0J+oBe81VHru8roXvbUBV3nLzi+zQ6XhAng2tfs8009LLJIHPzZZ+qWF7ynnYwhWuBo8pGFcjve0YqKSOO4wyAM1b6MdXQo3qJQQqEWVxZ6caweZsDfp2zA40+vRKd7xj1LsofAGAM1IYANA1Oj37RK6dHPB+LgvKLUz9d0YK/KH40ZwwvtIvy8o/ZOKl5q5s7+sfy6UKL+ARv4Zx/8rk6r3S965QdPi/dzbdBmmx4vj2qyg+1V55cnVOLo6oysuHF18jLQk/Gi1NVhmGsvgR9YTXOAW3fzt2T0T2Q8xtUxK3MK1m3R0puk/h+Gvo/wGKULV+PxdtwQy9nnB/+fbhsbvL0L6eoXGUzhsIzzHm5Gz9dVuGvsCQnHTYY+XBXl0z8rJNFSdKOWe/UPgDA+KhdAWganB79or9Ojzz+4rPO4jK9WI3yzjsXAnmlFsGObN0CdY0n7+kiNF75/DJaLOg81CuzRl6petcpOxgnoqo9bbito1OmfSrLD7RXgFFbBMqpKiMUnruWFU6POu1o92v2JegN2l9XG5WOCo+quOPk5e4he6/Yey4Tx96T6fvQta/ZljV0VKDGSTKMC9BjabnKxpVx+7WcB0r2Z2izhkNxeRcYv6SsbF0yebl4OD0AoAWoXQFoGpwe/aJXTo/sgjM0Vy1zepTEjxjNP/05Xy4vO3fMTt6jtKNo2X1D4dy6erHv0lbP00d5pepdp+zgeUVULdarwqvLD7RXALtwSq5ZvH5x+1VlhM4vdyzKM1UPP06ddrTU7EvQG7QvrDpq2bqYqrjj5KW4+PE9F7q//GOufc121NBqMOyHOuMb0L7OYcI1jksceWO8G9MUGMVxlXVp4v3ECPgfO81gKu9/IHQpfkwl793RsKg+1lAU/XpLcqauLhmnRFIndzzwekudehflDwAwBmp7AJoGp0e/6JPTwx7PLHD9aP6COJdHRfwcdsIdzftyedWavGf3DbYOk84lM38RrZFXqt51yi6JU3RNHFXh1eUH2itA7prZfON0VWWEwnPXso7To6Ids5T1JegNq3IOGOrvRfdAVdxx8lKS+y6yDWl/Qd5euPY127TTQ/fz8m56W1BZnKgwP429kXPxjZxxKsgzeO/bRsjHTZT6FoirS7bRRk+w5DVGvQvzBwCoj9oVgKbB6dEv+uL0iOZq3jwsnieOosVzNd/pUbQ4tqTj5/Am47m8XFqvjkVx0qcRz0sz5xbCztX9eN7COaI6r3Q71ik7H0fz0N38+aVJlxWiqvxQe+UJOapGZdcrI/+0jL+myJ5LfK2TOHXaMUNpX4K+sDrngGGbkLrfkv5cFlcpCdd7JHVfpONm75vIl5G+b137mq3f0MsmcfrnaPX7Gtkb0D2J4cIXtcCkgKwRUPL5WnmN4ee5MCj6ydoY/dBpNj9Ns5j9mKirS8ApkfpmiZanH0/V/49T75L8AQBqonYFoGlwevSLzjo93FzMKTUhjkj/Ec/M0RaHo3jJgtYonjiXxg/8YW40V8/nNZobxsrVLwpPoifEk3k/bWby7ki3Q2gOWp5XesGh1Ck7c14ufbANRuTLClFWflF7pQk5PaJr59qn4hz989DjNm1ZG5gwm8aPU1HG2H0J+oBe89VJka2L74PU/VgU11EcnrP7qfsje89l79lCpwcAAMwa7DDMApwe/aKLTg+AmRF0egBMH+xcs7j2NVsaGgBgnmCHYRbg9OgXOD0AVgBOD5gR2Llmce1rtjQ0AMA8wQ7DLMDp0S9wegCsAJweMCOwc83i2tdsaWgAgHmCHYZZgNOjX+D0AABoP9i5ZnHta7b+xz8QQgghhFAXpI6P1azQOSGEEELjKHF6AADA/MAOwyygn/WLLlxv+iwAdB3sXLO49jVbGhoAYJ5gh2EW0M/6RReuN30WALoOdq5ZXPuaLQ0NADBPsMMwC+hn/aIL15s+CwBdBzvXLK59zZaGBgCYJ9hhmAX0s37RhetNnwWAroOdaxbXvmZLQwMAzBPsMMwC+lm/6ML1ps8CQNfBzjWLa1+zpaEBAOYJdhhmAf2sCyzL4mBBFoZL8X4xXbje9FkA6DrYuWZx7Wu2NDQAwDwpssPLiwMbpqqxxmk58WItPh+nwWAoS8vLcRxoEm3vEN3qZ0pBXxsumr4WR5k5SzK09TD9PT4yLkvDgQwWl8zWnIvdmv2SC6bnvNrJnoOeu39NI03epqsV2w4tv1nz12ogi1O+/3zb5TSYdiEADaP9tntkx+EqO10Wv0Zey4sySMKNBosmVYTux9suNjQAwOohbIfdIinWql+NhheiTnVPz01ymdiOj7Zbnq71M6Wkr3kTodmycqfH8tKiDP3zGgxlscSLo3FWO9lzCC32o8V1/QX1NB0G83I+zKtcn6o6ZMMj2z1dx4fN07+n44XPahof2nAtYb50wVZnsf3auzez+1nK4lfmFd/3RbeRa1+z7V5DAwCsJoJ2eGloj+tfdKMF3Gr/a6ZbiPqT3mVzmu4vdfXOD6fH5PSjnymBvpb8FWj6f22uB06PScieg53sBma2uUlwCUV5TMI08xqHeZXrU1WHfHh0D0yz2jmnh6ENbTMOq62+MH26YKtT2PE2M9aGjjnK4ptxryqvqnvIta/ZdqyhAQBWGSE7bI14bNSj/6cni8uLQ2P0o+O6+PHXPuGw0KLLPxb/X18BMBNJl15fCVheNmHJYmuQnrSasMWBc1wY6ULMH5wSQk4PZfRXeZevX/4oz/Bf7zVNOH6UF4zQtsnSvX6mlDk9XL0ih5vfbwZm8aTnkG+HwDnFziI30Sprp4hQu8T11HIz6UPnxust8bUJnXNu0py1F9ruARuS5BWK7+Gut5O5RikHlKpuXrYvmLraybyGu3pXpRuRb4co7XDJ9TOV3x6G3Dk4Z8G49Q0ocE3ydYzqlo5aVnZRO42o5/SoOL/ENsRhdt+P49o23lVsW+bjFJYRbPtsGqNAO0L30WvfKXL3hxK6/2PK4g+r8irJN8a1r9l2rKEBAFYZeTscGfFkMucmTM6qu32deJsBYWgWg8lksDAszjM1ePjH3P/ryOVRlCY7QClugpefuNpJqkkXPb1RkGdokWGUnuR7ykyEoS/9TAksJmJFfaw4XPNc1IWU/j/bDkbukHviyO6XtVNCqF1K6lHYf+M0riIlaD6rnew5FDo94vaNgqI28qP56YoWxUXx8w6VEUV5+cdsnNR1L+kLXrrQgt5RWK5XTxvHpS88hzrlhuobqkOabHi+HarKDpfrk6tr7MAYZVlVRja8+Np4WejJeHEqyijpP0pVO0L36YKt9rH9P3ffRvdJ6CndsvjRmFiSV3x/DZOnhiP55bj2NdtuNTQAwGojZ4fjRdTIaLuJWDxx8hZZub8oF4aFJnP+Mfd/ndxFCaNJqpeXGVzC9RhNIF2a/BzODWD5yZ9L4xaky0v6N9mYpMyo3tHg6LdNeXwYoe2WopP9TPEnSyPp0xFRcLQwsvVxddenTOJ4w8U4PC4vqZ/KFujyj8+xrJ0SQu0yqqfWzSb162bjTI7mu9rJnoO9FsGLHrVv0drRX4QW5zEitWiN8/Yn0Y5cXrYvZK9dtm6ButrrnrWNGi9vL5X8OUR9KXUoVZeCc6hVbqC+hqp2tOEm3UiZdqksO1yujxsPJi4jFJ67hhVtW/M8Qv1HqdMfodto3+0SZU6M0H1QFj94X/t52fsvk6+9P0f3pGtfs+1WQwMArDaydjg/WRzJGfbRtzCMdLFlj0aEw6KJV3rw8I/lw92EcjSYuEEoGkzyE86R8nO4dNoRo4HNpbGvCiSDnVNUr3ydyuPDCG0Xn272MyXT13yHhsa3EyKzn0ns2kOdMaP08f+Hi9FWF8LxJMtPX9ZOEaF2ydTTEoo3GVqX1U72HAoXiNmFp7tGvsqcHiXxI0Z9yL9eubxyC2YlSjuKlt03hMqPFTrd/DlEfSl1KFeXwDnUKjdQX0PhtYipCq8uO1yuj7UNyXWK7yf/ulWVEbpeuWMVbTtGG0bH/ftdszLHyk4SOo/2i05Ryw56lMUfVuQV33/pfNNlufY12441NADAKiNth/3JUUCpifiy/S6CHvedABHZMJdvaGGgA4oLHw0uVYvRaKDK1qmI0AIv+q6CzcOVG+eZfKvA1NGvV65OFfFhhLbTiK72MyXf1xLHiebh8tM6JEWO2kO7UlInM+FyE6ro2OgxWtflRpS1U/68NX7+ngjFmwytx2onew5FC0R73PWPwCTYXrs4PJdHRfwctv9E1yyXlw3LXrvomo6iZfcNtg5+Pygn3w5RX0odCtYlxp1D6COBOQL1NRRdC0dVePU5h8v1yV2n7LWsKiMUnmu3irYd89olbR/Hr2wn6DxdsNUpQvdE2X1SFr/yQ6aRnUiPuWnb4drXbDvW0AAAq4yUHbYTotAkKDLi0aJLn2xw3w/QYyODHz31EApzC6yQdPLm8h9N9pKFXzKYZBdpLk1WoYl2WfnehNKdf05Rnq5OTtFfAfx4TqE69Bttl4TO9jMlm14ZnVfRR3GtMgvn6HicT+qYX//idhqRP+/yehadW320Hqud7DmEFoj2mN+G8XUaRYvb1Hd6lC2UM/FzeBPuXF4urVfHojjp04j7Qubcisi3Q5Q+dchfmGdJzqFOuaH6hs4rTb6OWarKDpfrE3JOpcutV0Zyvyb3eLrd0nnG1ziJM9618/uPUtWO0H26YKvT5O+J4H2Z9Puy+FV55e+haE4xuodd+5pt1xoaAGB14dtha7zNvmfPE1yY++uz/j/aT3/TojjMTNZ08LBhZlGb+pnS7ETODRz+Ai4efFILDM0z7YjIThgjXFpfA7tYTH8HwX/6w8guJvX/Ls/0OeikvTw+OLR9HN3tZ0ogvcGdl50smfwW/X6jfdE/hyQPo2Qy5epu5DdcWVsk5M87XM9QvMnQuqx2sueQXENfgQWj61ORTPsuDkfx/OsVX8fS+AFHbHL5A3ml+okqV78o3O9CESEbGe4Hth1SGURpU4d8p0fZOVSWW1Df4LmPyNcxRFnZRe00wl63bPvac/XvqYrzS92/5njQWeRfUxNm0/hxSsoobXtDRTtC99Fr3z3K7GB8v6SOlcUvC1Oy91/6/tVj8baLDQ0AsHrADsMsoJ/1iy5cb/oszJyg0wOgObBzzeLa12xpaACAeYIdhllAP+sXXbje9FmYOTg9YMZg55rFta/Z0tAAAPMEOwyzgH7WL7pwvemzMHNwesCMwc41i2tfs6WhAQDmCXYYZgH9rF904XrTZwGg62DnmsW1r9n6H/5ACCGEEEJd0BVXXLGqFTonhBBCaBwlTg8AAJgfaofP+N41CDUqxvt+0YXrTZ8FgK6DnWsW175mS0MDAMwTtcOhRSpC0xTjfb/owvWmzwJA18HONYtrX7OloQEA5ona4dAiFaFpivG+X3ThetNnAaDrYOeaxbWv2dLQAADzRO1waJGK0DTFeN8vunC96bMA0HWwc83i2tdsaWgAgHmidji0SEVommK87xdduN70WQDoOti5ZnHta7bTa+il4YIsDFfBL1vzG9wA0CLUDocWqQhNU0ys+kUXrjd9dsYwPwaYOdi5ZnHta7aZhl5elIE5psdV4/gwmnZ62Py9ui0sDGRxOQ4cB4w6ALQItWehRSpa3Tr6MB2nDpejU8cvledu8MexccInDYukx6E/dOF6Z88hPw9U9W8+VzTfXvE8fA7z46nN7UtYXhxkyliQwbQLAZgQ7Y+rk2VZHPj3VZntqIpbJ68lGdow30a4Y8Xp9Hi89Rs6SjgyBFqB+sZvxca2kPiEMnk7IzZ2kTg9AKBFqB3zF6dotes4ebKOWVZp54N1hGx4ixw7wf6kYbqvSo/30HW6cL2z5xCaZ0aL5voL5WnOVZub95ZTVO6K6zPm/Hga55/NI5rbT9fxYfMcLJpVTUz8B97V4viYVz+D2bBabbXtl959ld33qYpbJ6/oPh6Ye9fZh9hR4t0boXSufc3Wa2hrBCY3NLagBm7K0Ak4ysIKwekBAC1C7bBbmKLVr8ThcMzh5tp6To9T3iJrFw6U557ixfePlYUfM2GYd2y1TqxgMrpwvbPnUDTPHGcuOM256jTzGofSdlhJfVrg9DBH7B86p9msOaeHYV7XbhJWU11hfFalrQ75DIr8CFVx6+Tl9pf84wFbEbBhrn3N1m/o8BMVaYofP8nflBWPqtiKeeHBAavC+Nk89OQ1nmsMzS/bUK4cc3wx2yBl9SzJFwBgCqjdSRarqDvKOj2y+1bRUyFPPqYi/LAJwzTf+Jj2M+gPXbje2XMoXPzlJs2heV32mFGS17jz1aEMJ82rcF5ZlW5EUTukj2t+mnc8t0+VFVM5P1ZC9coeM6p9/mny55Kd95flV2+OXu30qFHnVFuZcLvv4kXp06cxzlojZqx+Bl1Br+uqI9e/ley9G1MVt0Zeer/aJ7NStj6+p5J7O97PVMC1r9lmGtq74fKPfeVvat9oBA2IFzlldHIDVAGxkcnUf0SST9Q4+UbL1iMbr6KeufgAANNF7e1osYo6o4wT49ijDkztR4q+xbH2qEtLw6Nxefwwzdcd03jQH7pwvbPnkF8gO/wJ8jhzVaU8ftl8tSgv/5iNk5pDhuaVVXPRNPlyI9LH4zy9uts8C+e/xfXyi/LLqHP+ZeehZPOw+4V1zOZXb46eq0NqbVGnzlVtlW8ncyJjnIdhrH4GXWI12mrbf3P3XdTPs/6DqriVedl7Iw7P3SfxvWXvx5DvYtS+Zhtu6KgC/g0dxr9pUzdl8OZVI+GORQYjVLkUKcMUICknyi8XL1QP3xDVrCe2BgCaQm3taLGKOiOcHjBHunC9s+dQvPgrn6sVzlUL8OO7vEPz1VxeNf5imd83VM5F0xSdQ/p4tBhIR/PKrpofF1DalmOeh2LzMHUaySt/SnP00ZpmkjIMlW0VaOux1hpKdC61+hl0Cu2Tq43onsraCs9R4VEVtzx8KZ1n9l6y+3p/LNp42pbZW8W1r9mWNHScUaryLnNfhU6PTLxYo8pEN3h0PGsMHBUGLTEqBfFCBjxniNL1c4ryqigfAGCFqL0ZLVZRZ8TrLTBHunC9s+dQuPizc7nARNhXmdOjJH5EeL6ayys058zNIwPzylpz5hFF7ZA+XuH0qJofO8ZpyzHPQyk6F0tlfvXm6L6jxrVLsl+nzpVtFWhrP7x2u9TsZ9Ap9HqvOkL3RNx/c121Km5Z+NCE+bbY3kvxvRHfV/n7Lu1TcO1rtmUNPfLCRLv5zH1Dkrop/UrVIVBJR9nNbsNs+QUNHaqH37iV9SzIFwBgSqgdHi1WUWeUdWKUfahUj5WF8yFTGJMuXO/sORTNB0dzQcM4c1WlIn4Ob76ay6ts8p4cDMwrx5wzp843ITNnj/cLywmVma3/RG1Z/zyUXB4+lfnVm6Pnrqd/XnXqHIqTaqs6To/x2iVKH6UpbSNY9axKWx3q00X9vCpuSfjA3FfaPsWqsrej9jXbUUNbo+DH8m44i62An1GUcdj4RQag9k0aOmFHXG42L1tekqbI8EXHs46brKEqrmc9gwoAMClqh5PFKuqOck9uxK+jHHZcEsf+0kuyXxY+aVi0r/LHe+g+Xbje2XMILf7Sc0FDnblq0QLYko6fw5uv5vJyab06FsVJn8Ykc+b0k9h2Dp+aR8d5eseiOG7+G9WjeH5sGLctxz0Pg82jMP505ug5p4dhVG6dOle3Vfo84naqvdYIUNrPoEusTlud79O5eyrps2VxlapwD+++yNsnPZS1g6P2NdvAgGJvVFU6kRJl5oXrl55945eqYHwSSXxVbACsQyUdFjq3Ec6AeEoZgBLDlxgnlSnf7ntGvayeZfkCAEwBtTn+4hStblmHQ2o8UbmnLqLXTpLj+tO2qfRl4ZOGRdLj0B+6cL2z55Ceo8YKLAbL5qqpOWE8uSuNXzZfDeSVm6/m6lc0ryybiwZIzW1DcaP8hkt+fTLz+sr5sUYZry1duaM0quLzKFzcJKx8jm7PIXsdUn/YrVHnbFvZ9H4cv53N8VxbVpQxdj+DrqDXdXVSZOvivp6654riOqrCY+y94Nmx3H2TsXEGPR5vmQQBAMwTtcP+4hShJsR43y+6cL3psyshWniwRm6InNMDYDKwc83i2tdsaWgAgHmidji0SEVommK87xdduN702ZWA06NRcHrAlMDONYtrX7OloQEA5ona4dAiFaFpivG+X3ThetNnVwJOj0bB6QFTAjvXLK59zZaGBgCYJ2qHQ4tUhKYpxvt+0YXrTZ8FgK6DnWsW175m63/8AyGEEEIIdUFXXHHFqlbonBBCCKFxlDg9AABgfmCHYRbQz/pFF643fRYAug52rllc+5otDQ0AME+wwzAL6Gf9ogvXmz4LAF0HO9csrn3NloYGAJgn2GGYBfSzftGF602fBYCug51rFte+ZktDAwDME+wwzAL6Wb/owvWmzwJA18HONYtrX7OloQEA5gl2GGYB/axfdOF602cBoOtg55rFta/Z0tAAAPMEOwyzgH7WL7pwvemzzbI0XJCF4VK8BwDzADvXLK59zdY19LIsDvI/8ZJosGhiAADAtFEbC11kSYZ2DB3IYjKAZsfaoYnlUxY+aViEHoeuEepjEV243tlzsIt0e76+8n2960yrHebl9MjXP99/V8ry4iBTxoIMpl0IwBTQvrk6qZ53jFjJ3McRGu/cseJ0ejzehhsa7y8AwGwossOwurGT7sFABt4AbcdW748I4+xPGuagn3WPUB9zdOF6Z8/B9uvM3NQeG2PRHMpjUqaZ1zhMox2USeo/jXPO5hE5KMarexXRveHZwOVFc5+sHsfHNNoZVger1VbbPlox73BUxa2TV368ix0l3n0SSufa12zDDW0TcbMBADTOah3woAQ7wTYD81K81RHYHUuP4vXC/XwcdcK8Y/SzjlF2/Q1duN7Zcyiam4YmukVMc347r7nyNNpBmaT+0zjnfB7RX2un2ZQ5p4dhGnWfFauprrAyVqWtLpuvZA1QVdw6ebn91HgXsBtLQ9Oe6ac9XPuabbihi2+2gsdPbCF+hbMVqfHYis3DizOG4QYAWK2ovYNuoWOo/YuiP3AHBuPUWFkWPpwwzDtIP+sWwT7m0YXrnT2Hwrlprg1Cc87sMaMkr4o5am5+OpThpHnZe9PU1U7eNdzVu8Y8OWZl7TAin09Z/GyYUe1zTpMvN2uvyvIrar801U6PGnW27emF230XL0qfPo2sLa5Rxlh9C7qIXuNVR9V8xqcqbo289N7Nj3fx/ZXc5/F+pgKufc023NBhg5q/wf149v9xwUHD4iUMP3YWNlwAAF1mVQ54UIw/MfbGNjvu5Qb2aHzUwbwsXPvIJGH+o9z0sw5R0Md8unC9s+cQnpsq/gQ56vt+tNxcNZVHefyi9lWK8vKP2Tip+zOqa/pYPl1o0e7Il+vIt0NZnul86tWhzjmX1V3J5pFuo6r8Qu2XJ1cHex3rt00+TrbcKNzLQk9kjPMwjNW3oKusRltt+3LuHoz6vD/vUKriVuZVOt7F95m9N/NlK659zTbc0HVvtvQNHBmEwSBT+eBNrXH9Y3HaQGUBALpMkR2G1Uhm0PfGv5UM/NpHJgnzx1T6WVco7mM+Xbje2XMonptGc8iiaas/V60zvw3ObbMNbMjlVeuvn4G61ponj6jVDjXyTOVTsw65ssesu2LzMPUcyWuzyvy8cywhsqeTlmEIxQk4NVL18MNrtUt0LrX6FnQW7Z+rjar5jE9V3PLwpfLxzu7rvbJo42lbZm8b175mG27owpvNZe7L81o6I5M64VCaWOkiops/CssaCgCAbqI2DzqCTnqL/pJXtSAqC+f1FnCU9TGPLlzv7DmUz00DE2FfZU6PkvgR4flpLq+qe9ySvzeD5ccKnW6tdqiRZyqfmnXIlT1m3ZXC+iuV+QXaL4BdjyTXMFpAJft16hy6lqljdZweFWVYavYt6Cx67VcdtWxdTFXcsnCd3xSNd/E9lr8HvbHA4NrXbMMNHbzZApmnjIoLtxMwr0C/gnUJVBoAoIusygEPgtix01zPoEK/spEbwAvCyz5WWhbmHdM6wOqntI95EzTdX+1kz6FoIWiPZ+eiBXPVXB4V8XN489NcXlWTe0tgYRC4X8uo3w7leabyqVmHcPvVr7tSVH9LZX4FC6sMuWto843T1alzKE7q+tZxeozXLlH6KE1pG0GnWJW2OtS/i/p8VdyS8EH89EaxquztqH3NNtzQwZvNVsDPKMo4MiqxFzUOtOkTY5MOq0WoAQAAOkiRHYYOkBrL8mNheqwtC580bAT9rKMUzJe6cL2z5xDq1/aYf/6lc9U4ftFi2JKOn8Nr71xeLm32XgzESZ/GePPkWu1QI890PvXqkD+f8equhOo/oiq/UPvlCTmuRuXWqXNUTvqxepPGW2SlzyO+9hmnSHkZGUr7FnSV1Wmr8/07d38l/bcsrlIV7uHdI+6e9KPZ+z5lB0fta7bhhi4qLMrMhFmZTBeH9qSW7HHf25IxFu6EkrQqL771bqbDQ+cKANA11N5BR/EHaIubGMfKTWrLwicNi9Dj0EFyfSyiC9c7ew52bur6uFOgrxfNVW28eKJsw+KJZmn8svlpIK/qezEKz89xK+bJHnXboSrP/Fy/Rh2C51y/7krhgiahLL+i9ksTcnpE19LdK2Oeq4b5T3JY/Gttjtv4fnhFGWP3Legieo1XJ0W2Lu73qfuvnl0sDo+x94U33uXuoeKx0GyZBAEAzBPsMMwC+lm/6ML1ps9Cq8g5PQBWDnauWVz7mi0NDQAwT7DDMAvoZ/2iC9ebPgutAqcHNAB2rllc+5otDQ0AME+wwzAL6Gf9ogvXmz4LrQKnBzQAdq5ZXPuarf8eDEIIIYQQ6oKuuOKKVa3QOSGEEELjCKcHQgghhFBHFXIkrCaFzgkhhBAaR4nTAwAA5gd2GGYB/axfdOF6q+MDAKDLYOeaxY2FZsskCABgnmCHYRbQz/pFF643iwEA6DrYuWZxY6HZMgkCAJgn2GGYBfSzftGF681iAAC6DnauWdxYaLZMggAA5gl2GGYB/axfdOF6sxgAgK6DnWsWNxaaLZMgAIB5gh2GWUA/6xdduN4sBgCg62DnmsWNhWbLJAgAYJ5gh2EW0M/6RReuN4sBAOg62LlmcWOh2aYHxaXhgiwMl+I9AABoGhajXWNJhuaa6nWNNDRHHMuyOCgKU8rCJw2L0OPQFcr6WEQXrjeLAQDoOti5ZnFjodmWOz1wggAANEsXFifgiJ0P2XF0sGhC0v9XxtmfNMxBP+sK5X3M0YXrzWIAALoOdq5Z3Fhotjg9AADmCYvRLhH9BT41bC4NzTUeytLyogwWBrLor0z9Y2XhSxOGecfoZ12hpI/Fu0oXrjeLAQDoOti5ZnFjodkWOT2yj8pmnR9lj9K6Adl//FLD/TSZCRoAQE9RmwhdIR7nkr+6e3+VDyxMUwvYsvDhhGHeQfpZVyjpYx5duN4sBgCg62DnmsWNhWZb5PSICD/pkR9glxcH3gDsnB1uEub2RxMwm2/mUUwAgD7ShcUJ+MRjZDzuDWIPvx0nc86JKK7GKQuP8ho/zJWt0M+6RLiP+XTherMYAICug51rFjcWmu0ETo/QI7jWseGO5f/ClMsn+BctAID+0YXFCXjYMVLHvMVkYarDH04PmBoFfcynC9ebxQAAdB3sXLO4sdBsJ3V6RINsVlFUnB4AAHVR2wkdIR4fU8OmHe8GsrhY8RoKr7dAHcr6mPfHqC5cbxYDANB1sHPN4sZCs53U6VH2TQ6cHgAAdWEx2iHKHBeLgbHTH09DY6s7xodMwVHWx7yDXbjeLAYAoOtg55rFjYVmW8Ppkfv2RvxIbdYZkoDTAwCgLixGO4R1NqTHv+i1FXVA5MfO9NhYFj5p2Aj6WUco7WPxAUMXrjeLAQDoOti5ZnFjodmWOz3c4Krx0hOoeJLlwqycEwOnBwBAXbJ2GFY5dnzzx0Z/MRqNj0lY7o8KZeGThkXocegIpX0sogvXm8UAAHQd7FyzuLHQbJkEAQDME+wwzAL6Wb/owvVmMQAAXQc71yxuLDRbJkEAAPMEOwyzgH7WL7pwvVkMAEDXwc41ixsLzZZJEADAPMEOwyygn/WLLlxvFgMA0HWwc83ixkKz9d8JRQghhBBCXZBOplezQueEEEJdU8j+oelI2zdxegAAwPzADsMsoJ/1C53srXboswDQdbBzzeLa12xpaACAeYIdhllAP+sXOD0AANoPdq5ZXPuaLQ0NADBPsMMwC+hn/QKnBwBA+8HONYtrX7OloQEA5gl2GGYB/axf4PQAAGg/2Llmce1rtjQ0AMA8wQ7DLKCf9QucHgAA7Qc71yyufc2WhgYAmCfYYZgF9LN+gdMDAKD9YOeaxbWv2c6zoZdkaMpfWBia/wEA9BMGPJgF9LN+gdMDoO3E66DBoizHR6B/YOeaxbWv2bqGXpbFQfo3g1Nq5IbE6QEAoDYWViHLZgyLx82hP4h5x6Px04xxyQBqxtrhoCBMKQufNCxCj0N/6LLTY3lx1NdT995qxtqN9D28mLmH20An217tZ2ANNLB2tMmLEJeL06PXaF+D5nDta7auocM3fKKaN6QzhoNalhqnBwCA2kxYXfgTf9Vo8u/GtYzsGFo0zroxsCx80rARegz6Q3edHpl7rBMr7zK70Sa62PZK+Rqo7mmOtwZS4nJxevQa7TPQHK59zbZsQBnfGYHTAwBgPBjwVhs6UR3IcHFJFofZSbEZ17ynLJYXhzbcjnNL3v9t+GiibdOXhQ8nDPMGV92H/tBZp0d8nwz0/rP93PT7OGjV4u59b/G7vLQog7YthrvY9hZnMwfe0zXL5nSdc7veeU7s9OiM8wgmQfsMNIdrX7MNNXSZMyIyAgMbHkmNsj7+5SZZvvQ+XjJGwI8/emQPpwcAgNpFWJ0s5ZweaZInQkyE0ITYP1YW7jRumH9M96E/dNXpEd1z0eK06P5TZ2My78w4IfPHQ3PR7LF4f2jmu+becnkMzP5y6nW2wagu5rg6R6PjRsncN8Dy4ijPRX12K0vR3DsObrp+McVtH3a0mkhR3nqwsrw4D3Neyat6Jl3xGsJg8k+FWXmOi9rnGHJ6KPnzCtdnkjVQmKK+C91FrzU0h2tfsw01dNbYO8I3dSRzUwdveJdXRtZ7XVQOAEB/UJsIq5PgostN9J3iv9aWOjVMBqXhscYO8yqm+9Afuun0iOeN8T2VWlQ73DGzYNSnoPQ7GfbWKDoenItmjxXMZYPSNEXxi+e7o6cKIg3UJtiQsrn37OqXlFHQ9iGbM7KPdcoLnKdeJ3/fSevgOYrSyl7XrELn6MrOOj1G5xDZ14I8tU+NvQYKUNhHocvoNYfmcO1rtqGGdjdpxjAkBsYcdzehepDtsWjSl5+0LZsontfa5DHKu6AcAIAeEbbDsBqo5fQwsguY3PiYHjPLwp3GDfOP6T70h046PeJ7a9Sv3TzSWxx6C8fUX8mLjgfnotlj/lw3Suzu/SS/ZH5r6uJea0sWt/qkhktvDwSJnsrw72vNu3ruPZP6Vba924/bzK930vZl5Y2cHsOkjJI1RLY+Bfv1zrGu06NsTaO7WbtbHj9HUmcTnqkHdBe95tAcrn3NNtTQGcPlcDdjxlr4RiQ8aRsGngLRvAvKAQDoEWoTYXVStVCw7+XH494gXsykx8fRsfD4GR1zGjfMP6b70B+66PRw91tIfl9PPTWhC8jS46G5aPZYPk7+HhstnIeZpzZ8FdmKFPa1jCi+sxtlc+9Z1K9O2xetB7K2yteovLDjoXANkThV0nL51SvTUeT0cMf9fIvWNKMy/b5YFj9EUd+F7qLXGprDta/Zhhq6wBnhnB7W2MTHqp70cJ7XkbXw8i4oBwCgR4TtMKwGck4PM+aNHks3eBPz5IOj7i+P2b/WJn/lC4SXpa3KN0b3oT90z+kx6tdBJX/Rdyzb7ylomL8IzR93+XoL3uS+dfNTF2c0X80vcL2Fc+5JinI0L2s3ksgmr9i2JE6Pkrl30/Wr3fbJH0cX006ErG0LEnA8lK0hvDaIpB+X9nKvVaYjULY5NnJAxO1aVh+7m2nzivjFFPVd6CJ6naE5XPuabaih88YzwhmFgGKj4m54p2QylpPmXVQOAEB/UJsIq4nisbDemJdRMikvC580bIQeg/7QOaeHW8S6BWSC6//RgjX6y7r7JkJ0L+jCseh46dw2mZ+6Mkbz1VKnQm5B7hSe72bnzun41XPvputXt+1H+7GqbFuqPL9+8SFXbiDdoj0/L26Occ6xrA94zuOS+miU8dZAeYr7KHQZvc7QHK59zTbU0M5QBG5KYyiTrypbxd7pONimTQyHGiPfU2pkb2b9v+ZdUg4AQE9Q2wirieIJsk6Ol83E2H/sWn9BIfUXWi+t/XWFOMhSFj5pWIweh/7QNadH7qkqDxdmF4je01X2mJujFh1XUvePPjHgXi9x81MTbsNG89Vyp4Luap7pRXDxfDeaK5fZjcq5tz3eTP1qt723n4tfWV7A6RG3SxLfX0NofvFxfRom0lAW/Y9h1D7HkE2P8vOzK62PDdfyRunL10AByvoodBa91tAcrn3NloYGAJgn2GGYBfSzftHJD5kCxETOFf0J3mVZXlY5h4PvNAFoP9i5ZnHta7Y0NADAPMEOwyygn/ULnB7QXYqftit8igKgpWi/heZw7Wu2NDQAwDzBDsMsoJ/1C5we0GkCr67kX0cBaD/YuWZx7Wu2vncUIYQQQl2VLoQRWi0K9WGEEEJoHFmnhw4qAAAwP7DDMAvoZ/2iC9fbTVYBALqK2rkzvncNakg4PQAAWgJ2GGYB/axf4PQAAGg/OD2aFU4PAICWgB2GWUA/6xc4PQAA2g9Oj2aF0wMAoCVgh2EW0M/6BU4PAID2g9OjWeH0AABoCdhhmAX0s36B0wMAoP3g9GhWOD0AAFoCdhhmAf2sX+D0gK6xNFyQheFSvAfQDXB6NCucHgAALQE7DLOAftYvOu30WBrasE4ugLt8bgbruNDzcxrjPHF6QBfR+yC0WO+jjj5M7cLhcnTq+KXy3A2ezUiFl4VF0uO2nZkEAQDMF+wwzAL6Wb/ostNDF7/DoToHhtK1JXB3z21JhrooyTgt9HwHi8vxXjk4PaCLqJ3zF+n91HHyZOu0yDsurCNkw1vk2MB+WZhLj9MDAKAlYIdhFtDP+kVnnR7LizKwDoFlWRwsSKfWwB0+N+uwGCyaM5scnB7QRXB6eM6KYw5POz1OeYusXThQnnuKF98dO6YkzDuG0wMAoCVgh2EW0M/6RVedHsuLg2Th6/8/hXtFxMkttoPHAw4GG89/0iJ6SmG4FD+tYDVyTkT7A0k/sOCHufjllJ1b0GmQq2dZmVp3U8cldaxomKtvRT2tI8YPV9VMm+DaL94tpDy/vNOjqvwovPjaTnJdAaaL9rNk0d53ZZ0e2X2r6KmQJx9WEnbM6Ji2r21nJkEAAPMFOwyzgH7WL7rp9MgsYu2CPLMoDR1Tio5XLowVtyhOL5a1fi5d2ikRL5q9TK0To/RJh4pzs3Xy6x/FH70aUlVm9hyU/LmnHQtRmqSMVJ3GOMfCtvfJ52fr4tU3Xbfq+C6OF0UjeXHGva4A0wenh6eMk+PYow5M7Ufyv+MRDlt71KXJMTeO4PQAAJgz2GGYBfSzftFJp4ddPOcXtelvQmQW6glFx6sWxkqU1o+TXoAb/DTBRb7mUbLwrzy3zH62jMoy8+cQIuW4yOXptdU45xiMmyHX5kq6zqk2rxE/VV9HwOnhh5deV4AGwOnhCacHAEB3wQ7DLKCf9YsuOj3sgtxOdDPK/SU+WsxG4f5iO3S8KaeHKyetVDkedc7Nd0jknqqoLDN/DpZQuiTfKE3Q0TLWORaU7VPDiYHTA7qI3jOjRXvPxestAADdBTsMs4B+1i+65/QoWDj7C/EQdtEaCE+ON+X0KKlTjprnluwH6lxZZqAMmyZ9LO1MidI4Z4YqiTvmOebaK0vQuZCuM04P6CJ6X40W7T1X1snBh0wBALoDdhhmAf2sX3TO6VG4+IwWtvnXVmKKFufe8fRC1y30/bLGXRxHdSpd5PuMcW5a7mA4NHXPxq8qM38OeadHfO7O6aH18p8mSTHmOcZlZeNbJ4s9Fpfthds29soPXqeS+EowTdJ2+TZJxzfg9ICGwenhKfdkR/wqy2HHJXHsL73Y/bIwlx6nBwBAa8AOwyygn/WLrjk9cotRj+jVkHhhahepJq4nm6zouMUthlUmH7tA9xe6kyyOY6dAkm+cdxzqU/vcFHcewfhlZebPQYnyd3EHsrho8vccB+nwSKM86p9jRCB+qkL+dTAqdWAo5fEjyq7tJNcVYLpo3/QX6X2UdVYk96mTe2IjemUlOa4/bZukLQuLpMdtOzMJAgCYL9hhmAX0s37RNacHzJ6cw0XBCQAwVdTO+Yt0NF3h9AAAaAnYYZgF9LN+gdMDVop1emSengg6QgBgYnB6NCucHgAALQE7DLOAftYvcHrAyhn39RUAGBe9r0KLdTQduXEEpwcAwJzBDsMsoJ/1C5weAADtB6dHs0qcHvofhBBC85UuUBBCCI0UspUIIYTQOEqcHgAAMD+wwzALdBEJ/aEL1xvbCABdR+1c6AkFNB25ccRsGVAAAOYJdhhmAU6PfoHTAwCg/aidCy3W0XTkxhGzZUABAJgn2GGYBTg9+gVODwCA9qN2LrRYR9ORG0fMlgEFAGCeYIdhFuD06Bc4PQAA2o/audBiHU1HbhwxWwYUAIB5gh2GWYDTo1/g9AAAaD9q50KLdTQduXHEbBlQAADmCXYYZgFOj36B0wMAoP2onQst1tF05MYRs/UHlGVZHOR/5mUwGMrSchwFAACmStoOAzQDTo9+gdMDpsnS0KwJhkvxXn5/ekRrkUayBmghaudCi3U0HblxxGyrnR6RhtIl+7O8OLDnNVjEmwMA80VtEUDT4PToF512eiwNo7kpK+OZUd/pEa8lJr42OD2gX6gtCy3WUaSjD1M/RFprj7rUi3OpPHeDH364HO2l12NxO4edHomxWV6UQZxJlxwEOD0AoC2k7TBAM+D06Bdddnrogns4VMdHt/4g12ZWk9OjuG4A7UPt3GgBj7KyTo/DjguGqWz4hrfIsQX7bhwx2wqnh3fMdxAsLQ4SZ4jVYChRcCgPg3OeDBZNjDiO/n9pOMonziN7LPtqzfKiF240MAVFUZZkaNMsylJhHqP6+XLntrxk6pmED8w5ZAoHAJgyam8AmganR7/orNPDzifV2RHN51jbzob6To+VsvLritMDVhNq5/xFPEqr1Olxyltk7cKB8txTio+5ccRsy50e1glg9v1jiXMhK+vQ0PEoeorCNzjpJyvCjodCxfkqSd5Z2bIK6qVK8ihxenhPtYzEXxEAoFnU1gA0DU6PftFVp4edB8bzS///KdzrL05uDhg8Hlhk23j+/C+aXw6X/HnmyPES7Q/iP/45svPNsvmkxtX0fv7j5qdpTZpk3p5Nr2TySE66uq7jOD3SYVHe6bYL1c1RHt/m7a0LFNsPvGs5Og+juudY1GcAGkb7W7JgRzmVOj2OOdy0X/p1ljO+d5w82bTpk4+J9rV943YOOz1yyhoYY4yS/eXF2DDFBiRxHjgj5fLN7hsZYxQdGjkckic3EgPkDJMzgJ6x1AHC5qVxRgayOI+ItBMmxsV152ryXtSnRGwgAEAzqN0BaBqcHv2im06PaP44Wsfq3DGzgA4dU4qOZ/NUCpwe+fnoKF16MR7Pc71MRwvzENl5chw/Ka9Oftk6ZsnnoXXWJ5rr1DXr5Mju+6TD8ueWbqssFW1hr41/HaP4qafRc3WrOMfCvgHQPGpHRgt2lJV1esT21sp7deXYow40x7JOj+gbH+67H5ombucqp8fAe31khH0FJRd3ZGitwTHHUk9QJAYub9BMioCxzhxLHBghaV4uflW+WiU1oBmnh8b1zmkwXORXawCgcdTeADQNTo9+0Umnh51P+vO5/ILXzfvSx5Si41EeqTVygdPDj5NbWPtpgotozaNoYR2og19mrfzydUxRtLCvWdfs+eYdCyPSYXXa16eiLbLXPFD/XN0qzzHKP983AJpH7dxowY7KFX+0NHZ8TMXpkTY2GazxiOKl5Rkw56AYLNrvf+j/R8bEleMboMjghAaZ5FjjTg9l2dTXd+hkjSQAwHRRWwPQNDg9+kUXnR5u7pZT7qkBN/dTheaE/vE6i/IonR+n2unhykkrPL+uWOjXyi9fxxRFjoaadW2P00OrPHpKI/XERkzY6RGdU/E5hvoGQPNonxst2FGl7Cst8Tc7pvF6S9rYpEkGnZH1iQ1FfoCw8ax8A+LKCQ1EoTyyg4j7aGoWF78q38A5KMYI+0+1LA2jOHh+AaBJ1M4ANA1Oj37RPadHNJ/LzU/t3LBkkWoX2IHw5HidRXm+7GqnR0mdcgTq4OdRK7+C9nEU5VGzrnN1etg6+sfcuQbiGsJOjzGuR1GfAWgAtXOjBTuqlO/omOaHTINYYxDFS6vAsaBKeWFdOb5BCTkn8sesIXN5+rL5u/hV+Roy52AdGwXnVdoWAAArRO0MQNPg9OgXnXN6FC6Uozll4R+oaiz204vk4vmoPx/MLaxT9YvnubUnkPl5cTSHHie/fB3T5PPQcwh90yNE9nxz5++RDovyT0UtvJZKVVtE2DJy1ynChoXWHRXnmDCukwRgBWg/ThbsKC11cKQ+Yho9xTE6Fr/u4sXJfvjUjSNmO4HTw+CeglDpty8WrfHJGJ7YM2vjpCxH3qCZHAsHmfSxZVt27jG1cZ0eWofkHPSnaaNj/nktDPjJWgBoHrU3AE2D06NfdM3pUbbITi2KA3/AssmKjlvcXFFl8rHz1/x81C8+V5/cQn40px4pOxd1RHHLf+GkKr98HfP4+Rslkavrmj3fsuuRDnPnFu8qlU4Pc+7er0fm28LgrmeoDt76o9Y5lvYNgGbR/uYW6Cir2Knh3ZvuWx0jxY4QJ+9Dpyo9Frdzk5NtZ1wDxgoAACzN2mGACJwe/aJzT3p0moBjAMrhaQzoCGrn0ot4NE25ccRsmxtQktdbMh8YAgCAEU3aYQAHTo9+gdNjNYHTY1zsGoP1BXQAtXOhxTqajtw4YrZNDSijx8j4ECgAQDHN2WGAETg9+gVOj9UETo/xiNqL9QV0AbVzocU6mo7cOGK2TLYBAOYJdhhmAU6PfoHTAwCg/aidCy3W0XTkxhGzjT/6gRBCCCGEOiN1fKxmhc4JIYQQGkeJ0wMAAOaH2uGQdxqhaYrxvl904XrTZwGg62DnmsW1r9nS0AAA80TtcGiRitA0xXjfL7pwvemzANB1sHPN4trXbGloAIB5onY4tEhFaJpivO8XXbje9FkA6DrYuWZx7Wu2NDQAwDxROxxapCI0TTHe94suXG/6LAB0Hexcs7j2NVsaGgBgnqgdDi1SEZqmGO/7RReuN30WALoOdq5ZXPuaLQ0NADBP1A6HFqkITVOM9/2iC9ebPguOpeGCLAyX4r38futZGpr+PJRVVGPI0tA1xM41i2tfs003tDUi5thIA1lcjgMBAGDqqK0NLVLR6tbRh+kYergcnTp+qTx3gz/GjhM+aVgkPQ79oQvXO3sO+Tmq0dwWvsuyOGi2/OR8C8pYXhxE4YNFU5sOYBeV4fPti9OjbB2WXG9fhW2w8v5ZVpepsbwoA6+MVl9SnB5jEPe/5NrWa7eoz2XiZvpItk/n++mCDLyOqvvxNjCgeJlFN9jqdnxkzwkAoE2oHfYXp2i16zh5cjzwZp0P1hGy4S1y7AT7k4bpvio73kO36cL1rpqjzpJ82TN0egQXDEsyNGGDgZmnd8Tpoec7HIYXltn2n2VfmEpZlQvm6HrmrqVd8EXp7JosFR73geAibUpODy/99NeE2fprncvaaM7g9KiN7TteX83u54n7v5Xfxnrc248dIH6fr7o/XfuabdWAElVipff6PKlqDACAeaJ22C1M0epX4nA45nBzbT2nxylvkbULB8pzT/Hi+8fKwo+ZMMw7lh3vodt04XpXz1FnxzzKjspctIvX3MJWF2BmEbGUWwivUpLFfbRYzzZ1tv1neT2mUlbFgtmWUXEd806PZtshn/eU14T2mq+iP6zj9KhH6LpWXOuk/9do42y/rLoHXPuabdWAEurg4UdWkgpHkSyjG9TlE21H6fy8Qo0RLivCGUY/Tz+PbFojdyK2Ub3jFYYGAKAp1AYli1XUHWWdHtl9q+ipkCcfUxF+2IRhmm98TPsZ9IcuXO/sOZRPbt2cMN5VUhPoqjmjkpk32syK55L5+mTjjjNnzePyL1rsqiMkH1ZWhybm4pqXSbMU/QVW0w80buF6IIwNj9vS/78j29bhvlBWTyUTnqQvSpc9blSZJib+i3QUZtpnsWwx565LvFtArg3jMorSpdsoqu8k/W9Etp5lbZDvF/my4roUnnhFG2fDU/mUpa3ZFlXXcEprSU3bKYKOi2zfKWCeTg+7H+wo8a4hSWMr6neaKG7knXYdy+U16mguL5tPyHB7haVveNehR2Xm84iP+RWu8DYBAMwStYOjxSrqjDJOjGOPOjC1Hyn6Fsfaoy4tDdc+MkmY5uuOZcd76DZduN7Zc8jN51Lk56fRvNTNO6vmjPk5p4a73VDZ6WPh9PXLz5Pkn523evvBebFXh3T4dObi6fPK5mkoXQ+EiMKTIgLz9KQtYrL71fUMhw+XMmUbJimr/DoE2sin5rrElhFfr0R1+o8lrpNXjg2vnT7eL2nP8r5WgO0rGi/bP8Zt46h+0W44LFf30rbI5pE5nymuJfXcu0TUT7PXPWrPYhsQU+X0sO0euF/jPmSV6dOufc02MKD4Cas6q2HUCTMnlOoQUWfJVTJ9IF1esENpPu5YVJ6fRaixcuXEdalseACAGaC2drRYRZ0RTg+YI1243tlzyM9R/Tlg1ZywIrxiEZOfS2aOBSfr/ty33pzVZ5R/en5t591xRqmFYOW8eYK5eOV55fPM1reqbaNwv4xMekO2npX1tnh1q6qDR3pxHSirqp1D4WXX2ob58aN6J/08rku2XoqtW0G+6XpP2P/8evhxq9ogPodUeSXYc/PLmKSNHZV9tkZbVF7DKL9prCX1vLtEdC2z7Z+/p4OU9skoj9S9mCOO490nrn3NNjCgVPVQ2xG0Y3oK3JDpmzPf+XNlBTtcppxYUbJ6N3D4nKL6RPkV3DQAADNA7dBosYo6I15vgTnSheudPYfyOWrVnLAivHSyHS47dSyYfsyFVoZw/ul8UnPtynnzBHPxyvPK56kUrwfy2PC4nil5abL1rKy3xatbWVuXrGuUXFlV7Rwqq0b5fhGOynYsSZuu9wr7X5YJ+lolcZ52YTxJGzuCYX59arRFKI/csSjPqF6TryU1faeobP8SgmkjbH8ssSMJNo/R9XDta7bjDCiGwM2VvgndSWU7VP5kc2VlT9SWVdaJ6t3AleeUaRwAgFmidni0WEWdUdaJUfahUj1WFs6HTGFMunC9x5ujVs0JK8Ir5pyhslPHAvNPc3C8hVaGdJlxXplfN0nNwSvnzRPMxSvPK59nhDseOO8UBekz55KtZ2W9LV7eRW1jj6fLzzoXcmVVtXMovPRaR20UWtC12+kxXl+rJqrjyOkxZhs7KvtsjbYY9xrasLL2KKZzY3Oo7Sr7S0xBG9u+WNJXU2TycO1rtuMMKAZbab+jRJ0oZxz0WKpy+c6fKyt3orERKKxPvRvYlhMwJAl1LwQAQAOovUwWq6g7yj25Eb+OcthxSRz7Sy/Jfln4pGHRvio73kO36cL1HneOmg6P56fJnLBqzpifc2p+bjc0lwyWl0k/SlNvzuqTzj/ez5SRXghXzZsnmYtXnVc+T0dS35JzzJfniM7FPQ4fbItUofXaPxs+XKy5rvH267Zz8ih/vHYqbQcXJ1WOHi53euTrNiLdRivvf2nG72tZ7Pn4EWx93HqsKv+C62l36/WFVNYF/b72NVzBWrJ7Y3P42oz24/BQvw30SZu2qN01fvpC5q69a1+zHW9AUWwntRdeZS6wfs3Wr7itcDaffOfPlRU40aRhkvJULk6dTmtIOqqRRnb185TKAwBghqgN8henaHXLOhwyY8xC8tRF9NpJclx/2jaVvix80rBIehz6Qxeud/Ycqueo8YTXyswF7fxvnDmjnz5TVnYuacjXJ5M+NamvOWf1CM+T0wur/EK4bN486Vy87LzyeSa4+XYwMKLsmkbrjagu2XjhdGX1VDLhcfrKdU3g2pe3s8FPo8dTfbGIUJ6jtk3XM1buHEek22gK/S/HeH0thC0jSZt1GlS0cVxGEpY+uZK+ULMtyq6h69ueqs61CE3bParb3z+W7gdOpj8kv/4TCLOJ830kcVTF6LF420BD206R7bgAABBC7bC/OEWoCTUy3kNr6cL1ps+uclgPAFSCnWsW175mO/2GznudAQCgCLXDoUUqQtMUE6t+0YXrTZ9d3bAeAKgGO9csrn3NdtoNHT1mkn20BAAAwqgdDi1SEZqmmFj1iy5cb/rsaob1AEAdsHPN4trXbGloAIB5onY4tEhFaJpivO8XXbje9FkA6DrYuWZx7Wu26Y9/IIQQQgih1a8rrrhiVSt0TgghhNA4SpweAAAwP7DDMAvoZ/2iC9ebPgsAXUftXOjpTDQduXHEbBlQAADmCXYYZgH9rF904XrTZwGg66idCy3W0XTkxhGzZUABAJgn2GGYBfSzftGF602fBYCuo3YutFhH05EbR8yWAQUAYJ5gh2EW0M/6RReuN30WALqO2rnQYh1NR24cMVsGFACAeYIdhllAP+sXXbje9FkA6Dpq50KLdTQduXHEbFc+oCwNF2RhuBTv5fcnoYk8AQDaCBN7mAX0s37RhevdhnNg/jkdQu1I2wJEdi60WEfTkRtHzDY9oCwvDmxgSimDtCyLg/SxiRwUS8NA3iMmyrMR8ucLADBN1BZCx1helIE/jg4WzWhiA6IxJQkbSnp0KQufNCxCj0OHKOxjEV243qNzyPbvjDLnPk3K5p82LFuXuc0X4zaaQfm5865RZqgdK9t2HudilbefAE2hfS60WEexTnmLrPXvz8OOC8f73nHyZBvnQHnuKaPjmiZu5/SgaJ0eqcFjSYYmzmDRHckb1axhqmOoNM5wqI6PsGGZJM9pkC9ndoMIAPSTrB2GVU68GA0NG3aM8cbYcfYnDXPQzzpESR9zdOF6F52D7d8TzMsmSVeWZtJ6rJRwubOYr0ZrgmwZWp/ROiFMqM5taNvCei0MpOKUAKaC2rn04h2NpI6Mw+Votx87QNYedWkm3jVy7FEHysKGA034xE6PasOTDa80VHawVmdHZKBDUcfOc0rMqhwAAEfRxB5WJ4XjiB37MhNp/1hZ+NKEYd4x+ll3qDNX6cL1LjqHSedqk6QrSzNpPVbKXMvNrBHqEqpzG9q2qJyVnCvAOKid8xfvqFxHH2buzezTHtYZcqA895h4O5HTw06c0o6JrIGo2s9iy4jD/f/7VOcZe7RN3SKFnhjJxEnSh9JmjxnF8cPnU1Z+FDZcij3iVpkJKQBAjNoI6AqR3c8NGYp9rTM7Vnnxy8KDT0bWCPMO0s+6Qkkf8+jC9S46h+J5ZtHcrHiOVz6fKyuruh6poNz9XWeumKnbcLHkPEL1KTu3OuX71Ol3xeWF2qp+245bV6Xs3EcU1iHnOA7nZ9NnnCOhPyADFKH9KbWAR6UKOT30mH36wzk/ajs9khs6VubGzRqIqv00znC53cBfqAzlecaGJxseMObZOMOlTPkGP+9suUr+WFX5cbh3XjYcAwgAAbJ2GFYx8Zg2HKbHUn30OxpfsxPvaLyoCo/yGT/Mf+Rc40EHKOljPl243kXnEJqrJfdD4dyseD7nH8rGCZcVURyWz9dETtUlqW/hXDF8PrpbVG76eFV7VJWfoWC+PiJ/zn59QnUOHXOkw8asa0VdfIrr4Dt5SvKz19Vvlyhu1es+AA61c/4CHpUofr3lycdkj8WvwIzt9Ag5OUoGjar9FNZo5o1+1jiU5ln11zKl0jiP8M85VPfcscry88YxnAYAgMVop7BjT2ZMiyfF0SI1Ow6MxkCcHlCLkj7mH+rC9S46h+A8s8bcMJguQ3YeXJbGhpn8fUVR68wDK+KUzGOL6pQ6XtkederoMca82jH2/NojHTZmXQOE1jdKcR0y64oMo/wytnaCdoJ+o3YjWcCjEl0qz91g7tfUUx7RseQbHyt1ekQ38OjGzxqIqn0fm7/JK6dMmaV5Vhpy3a0y3F7ZXvmhuueOTXsgAYBeozYIOkJmvIyIx4eq11DKxhZebwFHWR/r2PUuOofgPLPG3DCYrmROqATTxBSH1ZkHVsQpmTcWlZs6Xtke485V830sx0rn1x7psAnm1RXX1VFYB5vec16U5OevnYqcKwBFaF8aLeJRkexrLRveIsf6x485PH2sPU6PAoOZNSyG0jwrDbkhkKclcy6Kf86huueOTX0gAYA+k7XDsJqJxoLUX+Hd+LAYGJf8sSo0brljfMgUEkr6mDfJ6ML1LjqH4Dyzxtwwl87eJ+l2y86Dg2XFFIdNwekRsgcxReWmjjcwVy1ri6q2DKUtyy8dNmZda1xXR1Ed7HEXvzI/166BegJUoHYuWcSjoKzDw/8Vl9TxAsVPhOj/43ZODygho5C68d2+d0dX7ScUGqjISPgDeHmekXHJhafqHeWZjRNNOn2DFOcVp83nEx/z8knSFJY//kACAP0la4dhdZMdR+y4au1/eFwa7ZeFTxo2gn7WHYr72IguXO+icwj1b3O0cm6Y3c8vZtNzQnskWFZE/bA439Q1qporhu9r3c2dR0ywzEz6Ubqq8gPE7ZU952jtMKieX2fShY450mFj1rXGdXUU1st3ONXtJ3qsrP0AAmi/8RfyKK0ih0dQYz/pYW9aTxkjkTUQVfuOouNKdsCuztMNILEChiwXJ07//9u7dyzXdSgw02c+jhw44RScd9oZA8/AE+hOFTt06AForQ56CB07UOIReApqbDxIvAhQKoGCgP9bC5dXfD/ADWCXqk54jSqo3VTgdNu7gO6tnz/v0vHfaEgATEtiCEZiBytbG+HH/lrbVVr+7jJD5mMUpTpmjPC8j67huD9ZeQ8yfbxin1Ap9V1Ly8JzUc9HH9t/Tmf6itH1uJUz1yFe6yu/21eN654qdiele5m7V+fv7evnWnuujj7Otp4tmfWq+9Pno5YdXA9wROpNMHCn7EUnMdx755cwsRGufzLpAQC4FnEYV6CezWWE502dxc/Qiagl++tIQInEuWDgTvloce2ImtKgAMA3EYdxBerZXEZ43tRZ/Ar9TZDMN0SAGolzucE65TPFtSNqSoMCAN9EHMYVqGdzGeF5U2fxG8yv34R/XBg4R+JcbrBO+Uxx7Yia0qAAwDcRh3EF6tlcRnje1FkAo5M4lxusUz5TXDuiprk/DkKhUCgUCoVC+eXyv/7X//rpkrsmCoVCoVBeKVvSAwDwPcRhXIF6NhdJGvw66iyA0RHn2nL3V0250QDwTcRhXIF6NheSHgDQP+JcW+7+qik3GgC+iTiMK1DP5kLSAwD6R5xry91fNeVGA8A3EYdxBerZXEh6AED/iHNtufurptxoAPgm4jCuQD2bC0kPAOgfca4td3/V9Js3+v5c1fH//VvV/wHAnGjwcAXq2VxIenzGfVX91JVe6l/l7iP3tgeP52359+QxfA9tc1vu/qqpu9Gm0svnbFluao1PI+kBABJjMYj7GradXjGdStXWrss+f1HtX9C4lpa/u8yQ+ZjHWEmPb/RRjdLAXC+Lz+Vro0d7jy44fnLdJ475atKjtOwV6TNanjddWa67X0e2czs4h8fNxvSG9dvdhy/ehunJMx6Jqdfx2D6O4fFylxPILS9tW9vvfn/V9LMNintBFxNRKkh6AIDETAyimPQ4amddG1ha/u6ynczDPEb+pse7A+J3titt8+55/FX+uDYOND0f22+PjiHnU+v358657b215xqPXx635+LHzab3q0xfYyZWG+b8l0WNqz6Y9Ejvq7kPX7wN0xunbfYTF2Gd1vXOq8fh5/Rd9JeXti3v13D3V01zN/r9ZARJDwB4TT4OYwxeO7clRNT/6yZyT1botr60fH1zmde4ymfMg6RH6p3tStu8ex5/9dXjRgOKs3Ln3PLe/uVcr2Ku8abjdTJukvZAnf9dxlUfvI70vpr24gvVCdYobfP2zum+jOqP2Pkm0ei+YWUF80w/KaiDbh+lbe+1/Rru/qpp7kaXkhEPdR6L2qEsN2WRl/Kxd7L8IhcgL6y/vnzt1r/I/HEAYA4SFzGm7evJqjHM/VDAn1da7sqry/x58hnzmDPpEfdFXf8y00fdtj/axjg+Vv08gkXxQGBbx/WFpUQd+Pjc7AB5P1eZt+/xaEC7r//q8X2ZgUni+Hi5e3X+3rY41/AY+v/j5MLBM8td3+vnuB9fx+vo2LJsaxe2ZaXji9I5xNuqoq/99fPGZ8k9H0r83iTvkfDfUVs343ouC0vb6h/4lPZruPurprkb7Sp+/mUyL0RclueSWRa+RF7RF3Z0HACYh8REjMi1caYDmUtEbIkL1/E9Wm7Ly8u8ll8+Yx7zJT28jrKl1/P6mOl2bsBnPyrxOvljGcfL0v2qlYNz2c7XG2Dq/eU6/pYsl49Hxw3n1+5H7fiR3E9cA+k1++eTO+fcPCdc9ulzNYJj6Ofjb2OOucfV9H7qOBs/r7PnqGzHj8/X+7wfIz2+3v6lOuUdc/P6eeOzhmubo1hn+iN+PRWm3iXvl/RbVHHzS9uadWv73e+vmuZu9EEyQr+Edv52jntSw7y3pqPlX8TjLr85Z6l97Psm6QEA+TiMX+faQ9fBTNvHcF5puSuvLvPnyWfMY7qkR/WniQfbRfS7Uxwk7vQytX+/mFVNxzvY7CDpcbhOYeB+dE7B/Or9OHOOnsL5HPHvZe6cq/d2W/biuepl/rnuYxVdsucUDZbi681ev+zXzXvxHJX9+OGx9X2zO9ruYfV5ivo5pPf89fPGZ0mdHEpUf0x/JK5PufdN6ub+bTapk6Vtzftc2a/i7q+a5m60Cw7RjvRFyAmFu9cvkJq/n1x4sMdtzXwLRPZ9cBwAmIjERIxm72S7JjPfPu7zSstdeXWZP08+Yx4kPUQ4KMxu5zrbfnkl6ZFddmYgWVknez3G0XGD+dX7ceYcfeG9zCrcy9w5n7+3L56rPY/crnVsPDgnf5n//1ru2mwxu3j1fkbH39YN97OdR/V5ivo5pPf89fPGZ0kdGkpcf2p1N/e+6m2W5+1W2Lbpr7foE7DzXRSofdPDbrO4o6sL2/d9cBwAmEg+DuOnufbS7zTH86L2s7jc/bHSV5d5jat8xjxIegjzLrhVk+0yne14sJs9lnW87MxAsrKOPrf4mwXG0XGD+dX78fpgt3Qvavcyt21pf+GyV8/VrO8/R6d4Tts9zxyv8DyMv95P+2yigRxJj/EN1zbH9Sf37vjzSnX7Vti27R8ytUFEL4uKDSAu6eHK1hlLiuz76DgAMA+JiRjJ3lYGHcmtzYvK1jEvLX932U7mYR7z/U0P+x548/V63nsQfzYdZP89tfuIt0mOZZxf5t5Rv79bG2zaOOKtIPuUj8l1WNljRtvv270x2LX3K75mMzA3/2jBvii8l+G5Gbl5TrjsD+ca3acziZhFjV3MP2vrS59H6PVzjI+vP0f3dz/fev0+cw7vbIO2hmubk/qTvjtB3U/isK33OnlR2rayX8vdXzXN3ehccLYe9+dt9RMbKsipne8vj9pWTsAuk5OVf+1lW39Zn6uckN534TgAMAmJjRiIbvAP2jb5FsbWRkrnOuyQF5e/u8yS+ZjHfEkP4fqVtkQD3m0gLMVuH/6wTvVb5evU3nbHxyovC89FxQJ9bD8mnBlsRtfjVs5ch0jPp3Q/3h3s2oGGv1+7k9K9zN2r8/f2g+eqittP9vgufmfPK7c/dw6vn2NyfL1++FNqP0mjVijX7zPnkNSdd+8tPkWexQh0fXZ1ayuuPlfqrnvvtuK/B6Vta+/Efn/VlE4QAHwTcRhXoJ7NZeSkBwCMgjjXlru/asqNBoBvIg7jCtSzuZD0AID+EefacvdXTbnRAPBNxGFcgXo2F5IeANA/4lxb7v6qKTcaAL6JOIwrUM/mQtIDAPpHnGvL3V819f74B4VCoVAolGGLDIQplF8puTpMoVAoFMorRSc9pFEBAHwPcRhXoJ7NZYTn7TqrADAq4lxbJD0AoBPEYVyBejYXkh4A0D/iXFskPQCgE8RhXIF6NheSHgDQP+JcWyQ9AKATxGFcgXo2F5IeANA/4lxbJD0AoBPEYVyBejYXkh4A0D/iXFskPQCgE8RhXIF6NheSHgDQP+JcWyQ9AKATxGFcgXo2F5Ien3Ff/z3/rXf7qReP52359+zttPS9Us/s37/leXvYmUD3vvs+kfRoi6QHAHSCOIwrUM/mMlbSwwxKzIA6U5abWqONUtLDDfKXaITfPlFy/SBtT2i4EiU2HrfnUkh2PG5LtL0qvWRt9Lnv59XLaX2qHh0/O/teffGCt3M7OIet3jR8x919+NZtkOt7l7l/6zM99Thm+uu8u0z0tl9RXi7z9JROEAB8F3EYV6CezWWspEfo3cHgO9uVttkGbFEn+93zO8908q8ZpN2fq1xjdDA3GN1m39fkPvj0+sHA1ew3ThgdaXdP4/OQe3v188z7+3Hts4sTBjrJI9doB4tfuDbn6B0y7LNZ4rrzN+l9vfJ9Sh3FuTL7bA/unb5G7575n99dVvv87rLa579sK9z9JekBAF9GHMYVqGdzIemReme70jZm2U0PmPzB+7vnd951gzR9Ld4Awhcsk6THwXoiTXq8dp+a3dPKN1RE++eZ99fjBs+nU+Ya03dIs3Xqnqk7f5He199LemzPNpdszNVpN+/+5jKZ19t+a9vaeSQ9AKATxGFcgXo2lzmTHvYn12o7U9xgIJ6vyrb90TbG8bG8ZdHAI9wmM6BKBirmp7brPf7prX9ufsfe7dNfP+r4a6Vrk23VNnpQcbS9Oy/7MaavY3kuwTFUyWyQJD30wGTf9zaIMx81s836XA/3X352mj5Hb51k8GzvYfYi4/376717b0+cs5WvR7Vn7lSeneUfI/cMzP3zz7F0/q+e4378o6SYJELCZbX7VzqHeFtV9LW/ft6fJMd7W/J8lNw89UnXh/XNZTKzt/3WtrUz3f0l6QEAX0YcxhWoZ3OZL+lhBzTefL2e1yFOt3ODHftRidfJH8vYl4XHDrdJj6FWiDrqppO+z3Of9+30PpOB3z4w0wPDYJ/p/QgHj/ExM6LERML/iapcUzxg9pjzM9e0FX99fU/8gaY5f/fT//Q51K5Pyf0UOEcf25xT8m0D5cyx9TrJ84vv7Ylz9uTqkX+PwjoROXntwTEqz6B+/i+eo7IdPz5f7/N+jPT4evtcvS+cQ3DN2uvn/UlS796WxBJ7v47qXqleFpZtyaeO9lvb1tVb2Yee0gkCgO8iDuMK1LO5TJf0yHT+1czgJ37Z7SL7AMsobRMs8waM4TamAx7sIjnX8DxFctxgm8w+431kB72yjpuXHjOh91FYxz+GnF9hkBjfV6GvMbqmbYAdnX9yP6rXJ8w1bvusMAMo/5yM8rNw/Pt5cG9PnfPu9Xrk0cvSe2GuTxX7LHLHOHoG9fN/8RyV/fjhsfWzsDva6k71vov6OSTP843z/qSjOHdK5jxNPY7P3Vxjrn6fWSbPpbf91rZ1dUn2oad0ggDgu4jDuAL1bC4kPUQ4IMpupwdyrnNtyztJD9dJV59z84NdJOcaD9wyxw22yewz3kfuumwx66THTFXW8c9J/v/FpIc7R7d/f514/eR+VK/PMddgluWTCwG7XzdgEuVn4fj36uC+nT5n4/V65Inurc+/t/G1lZ5B/fxfPEclOP62brif7Tyq913UzyF5nm+c9yfJ/Xtb7jxL94lfbwEAfAtxGFegns2FpIcIO7/JdpmBYXWw7UmW6XOwf+Nim39mQBWep8jv222T2Wd8LfpzaZCfHjOnev3uXsn5+QPkSDKAFsn9d+eUXl9yHtXry7DPp7yNOXa7pMf5cw6P++rA3Kyfeyb+szi+r0d1rHT+r55jfHx736KBLkmPgtx55p6Tm/eNPzjaar+1be08kh4A0AniMK5APZvLdEkPO/jx5+v1vEFf/Nl0jv3Bjt1HvE1yLONo8CTnnZzH9tkeIxioxAO3zL6DwY07zt6x1wPDYJ92neD8fOkxs+w9ivejz88fbMj5+fc2kkt66H3k5iX3J7du7foyMgMkfV7JfQ7XSY9dq2tH9/a1c9b73NY12wab1gbm7tlF97iY9FBk3rKuatt437Xzf/0c4+Prz9G93c+3dt9F/Rze2aalozh3SvY80+e03+d3l4ne9itqy0l6AEA3iMO4AvVsLvMlPYQdFLkSDfa2QaAUu71JFrht1GD3pgYR3nbHxzpYlk0S+OelBih6HX+gkg6Sk30Hgxvp6Ktz1T8FdfsNB+qGHRBs60hx+zgamOdE91VKfG/l/OJ5nvA+H+xD6OtUy47ua7CsdH2K25dXcter7/W2TuY+Zo9dqmule1s5Z09YB8x2wT6zA95Y7nj7frJ1+OgZaKXzf/0c8/U8fAZ+kkatULjv4sQ5JM/z3Xv7GXIerwrrrCv+favXz9eXid72K8rLZZ6e0gkCgO8iDuMK1LO5jJz0wMD0gDSXwAHGRJxri6QHAHSCOIwrUM/mQtIDvyj8qT4wPuJcWyQ9AKATxGFcgXo2F5Ie+D3m1wz8PyIKjI441xZJDwDoBHEYV6CezYWkBwD0jzjX1pb0kP+hUCgUCoUyfpGBMIXyKyVXhykUCoVCeaVsSQ8AwPcQh3EF6tlcJGnw66izAEZHnGvL3V815UYDwDcRh3EF6tlcSHoAQP+Ic225+6um3GgA+CbiMK5APZsLSQ8A6B9xri13f9WUGw0A30QcxhWoZ3Mh6QEA/SPOteXur5pyowHgm4jDuAL1bC4kPQCgf8S5ttz9VVNuNAB8E3EYV6CezYWkBwD0jzjXlru/anpwo++rXkmX9W5n+h7P2xL+czBSlmV93h92FeVxWwr7kMOk+/j3b3muN28nU3qoe7M8F+++LOoezn5XgBHJ+43f8bitUWy+Hcfmx/15U7HcravbN7+RDNyfq7fe3gyeaA9yx4naUZmPeZD0AID+EefacvdXTfM3OkxGrKorFssnPeL130t6mLL8YOLDXe/fzl11fA/u7SfuyWfOEcCnyPuI37C1aXFZcokPP4kRllyTGLaHe9LjsJ3cdnJwnOggMg/zGDLp8bgFyb+DruUPsX3pP15IGiP8pOlB3Pr9mwcMQd7HunjcnRub+6J+gd9HieJorv9iYkrmGKVt42V+jCktU3L9HD1Ojbfziiw/3M4j8+w0d6PtjVIXcrM7S2PjfvO3Zd6JuQOeTXrsJ2h+oqW3yXYi+/aJhML+AFWjtf1E0P6k7w/7dUh6AH2R9xG/YO9EuG9rPO7uWx/hIMNQ6y/rHsdVG+m2T+Kvaz8X940Ou7+tXd33L8c0bYTpkGxtRtBmPp6P6BDUs7mMl/Qw75/fX7zJt4vtJ6HfhYP+Zp/+mvTY++vB667jRvQDyGCd+F4C+JYzbbOObd47HH8O5WKlizPy/35/JV7XxhRd4qRHaVv5f29923epLzNeit16e3MeZ7Zz91dNMzfadqj0ybjOVbJDewPVsn3RPs9dyOtJD2Xr5IU3O/1Ksf/1XnXs7au98vXhuz0Xfx/uQaY3/rVjqeV3tZ291vB4YdnuQ7K+vzffXtkObpnyeN7VfQ3PL6347c4RwCfJO4cfECUbjFxbeCRtIx3TFkoj7toA27Fwx8wMWML1wzYsh3o2l+GSHl5H98hLHecB6Os9HPjs0qTHfPcK6FW1bc7FvlI81P2GqE+Qm2f5sWCLKYX1faU48sqy0roxf90z27n7q6bpjdY7cDfyICmgFiQdPT1o1ut6815OenhfVfG22fYTF73Ofi5p8c/7XNKjfCy9wnade1m8hMFe9HVl1z+oSIf3e7fdn7j4DVrLcwTwUfK+4QdkExC5duzIQVLb7VfPPEh6SDx2u5dEh2t/by52L8/V/5se8tOYKIDLfMxj1G965PuTmX7gtl68zO/byD7lXdnfI/Mal7ZRDvpYp7aN6PgRnav8kMrFin2/MbNO9nZEkqSHPf8z2wJoS97zomwCovD+59bX73wmlhzFguwxI5U4Esa2ULystG4gOuaZ7dz9VdPoRtud7cFxD97hPuOg7hUvsJ5NeiQl+IOoLvh7D2vr9Ml69py9Bke+CWH25T8wtx9v3ratm1c5lnx2nVB3nWq5+4qlu96g81tYP+HWDc7b41+r95VpM897Ri3PEcBHybuH/m3tmdfGCdeO1ZIeW3sXtIeuLXVtTtwGuc/5sic9csVrxxSZh3kM+Tc9tj5S/n1LO8D2/fLmmffQ9W8y/UK7jb+bcL9mm+34ug/m3rX0eEnCIRLuO44Hdnlu++C4ZVvs8kvhnABcR97HEvP+xmMyEyuy/Q47LkzHeTZeeONGKX6s2+j1M+PAM9sKu152eWaZicteOYhPcTw9s53Mt9PwRmcDoyvBmbvA7Jcl/TUQt7+Du5KcrN1P8BMqr5FLi1r3Fg3YxfZQ/AeWadzi9WrH0gdQ+/GuXX61ZM8/mOsNK+Hx+ont+JmKJtzy6KG6+7gft+E5AvgoeefwA07H39TWFsYNst1nELtlva29UVQ7FcTnZbXf2pO20rVh3vpqH6599pte+Yx5DJn0sPa+athX0u9i2JNO1nHvmFnN//9j+nju3dX9Rv9985IkyTIhx4jn7cJz9vblZK9B0fPD997EDlu8WBOcv2Xi1kFfE8Blam2ziXfxu1pIegjXX9nigfxZhFwcsnEjDoJHcSdwsK09t/zYv7TMsevE/SV7vONN89u5+6um/o22K8sFZIt/8fu6pfPeGqaDleLOYrYhix9cUNQDvDzpIeTbJK7juS9z559Wwvz6ie18Du6rO79s4xUft9E5Avgoed/wA7b24bW2sPTHuV3sPir5fXptWbaty7cJ8hnzGDnpodm679dxXe/9lybbcfc7zgedaK8vtpXt/TXbbMfV69r+Um47W47jg1q+LTTxJFg3ew2KPVZuv7qf58Wb+LNW2B7AdSQ+FFXj2AlHcUTklpXW92XW0zEt098RpWUBvd9wHGrGr5Vzymzn7q+aejd6C9bxDnOdujZJD3+/2zbeefkXsdmWu4us/XqLO+fMerVjCXVD/W+0uA6tXEP2egvrp7zrl+vZvm7hEhLuD5h6DzS5fqXpOQL4JHnX8AO2WCttiImN+7+kIvE3bRdLCQ/h2sCjIvt5qP3u26q2wG2jD7K3a1u8VucZtnWGfMY8hk96qHdB3je/n6LfDb/S6/cz7tP6g4XMwMG+5/68MGmwv3OubOvqbb2+2AnhOZtrCs4new3CxptMbAnPN/2sZa4TwPWqbXMurrwYa5LY6MvFmMO4E4nWM/2T/HalZYnk+CbuVselmfN291dN9xudHQxb27ItaKadu5zSPoW5AdFF6BOW+fFNzBR9Pvu5pMW/8HPrlY+lV8gu15cYLdPXVVo/xzZEuW3+rbfja/B32PocAXyMvGv4DYftgwmu22BIx9VSLI8a5Z3bh+vMpAMsU/bOztbOxiUa5Mg8zGO0pIeu50k/J+z06/czqPf2/fG2C9cxy4O+TpIMsPvw+4DRu7Wz/cxgh2X6fLb1zfbB5vo6D+KFizHR+eh75c2LP4v0XgH4hnrbnMaVXNw4fJ/9WCkxI1jvIGbl4k5lW31OB7GqtEwfKwx6SdwOrsE5s53i7q+auhttT1x9jtY19MH8E66sb72V9PD2vc+Xn265bzl4xd387Y+NSlmeq3wrQv9//MCi9bL/tG3lWHb5Pt//513VuW/LZL6Zd7z+AflDov42al/7P0vrH8MtC/+WyiXnCOAj5J3Dr4hipcTQm4u/Ubv4kaSHmqPaUX8/6d9cUucUrJNrE6hnsxnxmx6uz+jqedB1FP47Zzo3inunbAk67WbZtqoVJhLVcVSf0t8uXG7Kvo89Duzl6H2317RtbLYNzic3+AjkjhfuI3e+hwMkAJeS97GuFMdsDNjmRetGsTKMo6p4wSJZpovXHzna9rC/o7b1/nXXZJnebxrDsnmBIDCK2naGzLfTQTtB280vNRQA8H3DxmF0hXo2l/F/veU7TAIh6ltWExMAkEfb3Ja7v2o66I0m6QHgR9Dg4QrUs7mQ9GhDJz2ib0lkEyEAcAJtc1vu/qrpoDeapAeAH0GDhytQz+ZC0qOV3K+T0NcE8B7a5rbc/VVTbjQAfBNxGFegns2FpAcA9I8415a7v2oaZ6spFAqFQqFQKL9eJPHxyyV3TRQKhUKhvFK2pAcA4HuIw7gC9WwuIzxvSXwAwMiIc225tlBN6QQBwDcRh3EF6tlcRnjeDAYAjI4415ZrC9WUThAAfBNxGFegns1lhOfNYADA6Ihzbbm2UE3pBAHANxGHcQXq2VxGeN4MBgCMjjjXlmsL1ZROEAB8E3EYV6CezWWE581gAMDoiHNtubZQTekEAcA3EYev8HjeFvkr3svz9rCzJkM9m8sIz5vBAIDREefacm2hmtIJAoBvOorDj9uil0lZ73bmz3JJh1zi4f5cZf5yU2u1QtIjW88e6t4vez37t6zT3p/RZJ/3j2EwAGB0xLm2XFuopiQ9AOCb8nHYJgJc+fmsh5/0iK+HpMcVknp2X/fnEZRVPZG/cQm7hQzK18j9/3UMBgCMjjjXlmsL1ZSkBwB8UzYO2wHpcrvbwfrfB6LftScdliT5QNLjCmE985Jq632774/77bkuJD1GkI0rP4bBAIDREefacm2hmpL0AIBvysXh+7oP0M3/h7/i8ritz0XNk/nyKwl3b2yZX+YGuf6A1p9n/3+9Pe9qwOq2X9Tnh/4VCPNZzin4koZadjv16xEu6aCO5b5hsCU57LHjzx891z3psUb3Zzvf6rXYfajzvK12PUkYFJ5FT+T8Ntu3PPx7HHuo1fb7K2VR116ua+4+h0Wew6/cp1HIff51DAYAjI4415ZrC9WUpAcAfFMah6MkgBuguhH8ljRYn+uqihqob4Pzw2UnEwmnitvH0Tb+MRwv6aE+hYmc6Hq3/X7yXPOD8X2dM9dS2EfuWXRGztPZ/l7MnhWK1O6Xkq1rB0kPtTxdVx8Ijcj9/nUMBgCMjjjXlmsL1ZSkBwB8UxKH7WBy/9UANyC3A0VvsJn8tPxw2flEwmo3dImJbV+P28F5uGSFfDPA7UPP8IRJD9mX/qm/3tYe+42kx+lz3Y4v3/4w2+g/4unWuZ25ln1Av7pnU3oWnZHzdKpJD/d85H6769rul70nhWtPfr3lh+7TKOR+/zoGAwBGR5xry7WFakrSAwC+KY7D2wA+U9wgUn7tYJsvA0k918gvO5tI2Jenf5dhTxzIrG3gnCnVpIfMsduvd3vsl5Me5881/Wy4e70sZ67laB/ettGz6Imc38YlIYJ77HHLowcZJ4KOrj19Hr9zn0Yh9/nXMRgAMDriXFuuLVRTkh4A8E1hHHYD+oOyJQbEQ/9NC5nvDy6NeJnbrzdg93+avy0vDVyjQf/203v/nI6kSY/tnBb7x02TpMcHz9X7vH/Tw+1TrZN80yMnn/QwSs+iD3JuO3cPVVn3P2Sqv80hCQk/KeIWxt/02KTXnkt6GP3fp1HIPf51DAYAjI4415ZrC9WUpAcAfFMQhw9+wu4nAuRvIixqYGr+NoIZhO6DzaNlbsCeK+8mEryBc1D2fezcttGybXCtypZwaHGuhX3q4565lnifctzjZ9EbOTefu2dpkWuu3a/ytcf7lvV+5T6NQu7xr2MwAGB0xLm2XFuopiQ9AOCb/Dic/h2J3farGGrgaL6h4D77P6l3317ILVMD+20gK/+Kif/P4b6TSJBZss948OwnChy3bbzMG1z737L4+Lnaz+oYdxms6+3ls9rH6WvJXX/hfndGzi/2uEsyYj9/uR+37Zsw6p77v5Kirvt0XZNntO1X3a/779ynUch9/nUMBgCMjjjXlmsL1ZSkBwB8E3EYV6CezWWE581gAMDoiHNtubZQTekEAcA3EYdxBerZXEZ43gwGAIyOONeWawvVlE4QAHwTcRhXoJ7NZYTnzWAAwOiIc225tlBN6QQBwDcRh3EF6tlcRnjeDAYAjI4415ZrC9V0/8NiFAqFQqFQKJQxinSmKRQKhUKZtUhbuCU9AADfQxzGFahncxnheUuHFQBGRpxry7WFakonCAC+iTiMK1DP5jLC82YwAGB0xLm2XFuopnSCAOCbiMO4AvVsLiM8bwYDAEZHnGvLtYVqSicIAL6JOIwrUM/mMsLzZjAAYHTEubZcW6imdIIA4JuIw7gC9WwuIzxvBgMARkeca8u1hWpKJwgAvok4jCtQz+YywvNmMABgdMS5tlxbqKaZRvFxf97WRa/kyrKsz9v9YVe40v256nNY1f8BwHiycRiIPW7PxWuX/y23594qP563xVuWaTOpZ1eoP4ec+5pbt7Qv1zfKLTNk/q9jMABgdMS5tlxbqKZRoxh3qqKynmm9/+BxM8mW5ea6ciQ9AIxNYh5QJgPg5bk1jbZtdG2lHjR7SZD4s6CetXfmOYT85EXYzznel02GeB2yUZ83gwEAoyPOteXaQjX1G0Xvpwqq8dy/2PEwDWqmUf60NOkBAGML4zBwjm6XZeCrf1jhJ0SUzDzqWWMnn4NvS1bc17B/VdyXSZQEP4SKt1dGeN4MBgCMjjjXlmsL1dRrFHWDepTYcD+NcI2wTZBIckQ1ttu3Q+TXYKLl26/KqBb6flv2dXPr+8tUWe+5b3pIEibcz7IlabzzuuXOy3hEy77ymzsAoEgcAl5i22s98M0MeF2b7Q+MqWeNnXwOWfG2xX3t/RzTdbGfo4OM8LwZDAAYHXGuLdcWqqnXKOpG1m9IfXtSwrSr+SSFKdJQZ5avq01gREUfL7+/NOnxxnFdcde1Xac6Hzmn4CvDAHAtiUdA1faDCVPcGNd8QzIeIJu20P/WJPWsrbPPIStKctT3FfZ1cvsf4XkzGAAwOuJcW64tVNO/Jj0W/VMHzX7l0qzjrb81xg+1iqQlLNWBCxMaMiv+9ZYo6eF/G2Xbbf64y80eK/4Gi5f02PYBAF8i8Qh4jW33VINM0qMPlyY9XL9mve19rXDlIZ43gwEAoyPOteXaQjX1GsU4OeDblkW/3hL9zqn72x978iFcrn+txDbQe4kb+kLSwyUsota9fNxoHzLH/9dpJPlh5wPA1SQOAS9zA+VowGyYds9vKqlnjZ18DlnxtqV93Ux/LNinXj/sb43wvBkMABgdca4t1xaqqd8ouuSAKqo13dpO+SdsXaIi/h1S1cju3/TwEyOZ5INulP89F9dSq/XjZMTppId8dqtkv+lRTnoYD/03RsLjAcC1JAYBL3MDY932hgNe0x6PNwju2snnkBUnOUr7ukXrajYh4s0c4XkzGAAwOuJcW64tVNOwUXRJh3zxG2CXXMiU4G90eNtsCYu47I13fPyX/qbH0XFtZ8Dtw3zbxP09D7MtSQ8A3yIxCCiSAW/wq6e2rdOjXP//je1fdvFQz1orPQe7LPvrw0qc9CjtSyc/wgSH6TuFSZIRnjeDAQCjI8615dpCNU0bxcf9pv+4pyxzZVn9f8JW2AZZNbJr9l9C2Zf7iZL410pW/WspfkN/3xIRZtvMtzTkmyf+ftR68u0Rc5jccaN92A6D237fFgCuJ3EIqHG/xrkVf9S7tXO2ZAbXMh+tHT2HfNIjeaa6uP5L4ZkmP0QKEx5C5v86BgMARkeca8u1hWr6bqOYSy4AAF41wuAE/aOezWWE581gAMDoiHNtubZQTUl6AMA3MRjFFahncxnheTMYADA64lxbri1UU5IeAPBNDEZxBerZXEZ43gwGAIyOONeWawvVlE4QAHwTcRhXoJ7NZYTnzWAAwOiIc225tlBN3R/BolAoFAqFQqGMUqQzTaFQKBTKrEXawi3pAQD4HuIwrkA9m8sIz1s6rAAwMuJcW64tVFM6QQDwTcRhXIF6NpcRnjeDAQCjI8615dpCNaUTBADfRBzGFahncxnheTMYADA64lxbri1UUzpBAPBNxGFcgXo2lxGeN4MBAKMjzrXl2kI1pRMEAN9EHMYVqGdzGeF5MxgAMDriXFuuLVRTOkGvuq//nv/Wu/0EAH9DHMYVqGdzGeF5MxgAMDriXFuuLVTTsFF83Ba90C/L7WGXDuJxey7e9b2avyDpAeCTJA4BZ+k26N/6DFuhx/O27O1aupx69n31ZxSqrB/1Zf4tN7XFTub9OgYDAEZHnGvLtYVqmkl6+A2nbVR/JfFRT0jcn2twPdKpqHU8Qp9KepA8ASBGGJzgCqb9kvoSD4B1e+K13fFnQT37rjPPyFdc3/bNSl2IEZ43gwEAoyPOteXaQjWtJD0U3dD+yOC8eq66o7A8/5LD+dT9+KX7CqAdBqM4Yxv03ldVZ7ykR65dy8yjnn3RyWe0qax/pv8wwvNmMABgdMS5tlxbqKbvJD1e+cqlWqY/u3XMtsHu4g6cVjmG3sZbvqzPNVhflWyHwP6k7LCzUDmu8vL9iJevt2h9mXd0PgBGJzEAOC1uM7NtqGnr/KaFevZFJ5/Rprh+YTvPCM+bwQCA0RHn2nJtoZpWkh42gbE3rnYA77W24Tbxcptk2BpvszxorJPGvXKM3E9ArFPfntDHk3OKf22ndm1GeIxX74fZXj6eOlcAw4vjMFAUtZm6zUkGyKbt8ds46tn3nH1GTnH9ddV9oHWVdVQ/ItufIekBAL+AONeWawvVNJP0sA2oKVGjm004SGLDzsstDzpoptEOxvpx0qN2DP3/+Y7CK4mE/VrtsavHNYJjvHM/LJIeAEQch4Eikh4/5/NJj2g7XSfCvsYIz5vBAIDREefacm2hmmaSHvG3FPxvOuhBvCQK0qLH73ECQ7yV9CgcQzOJDzN/b+hfTiTYY+nOw6njRsd4535YJD0ACIkXwGlxu5JtZ0wb6Tcx1LMvOvmMNqX1b6bfEW435vNmMABgdMS5tlxbqKalpIdiB/VbQ6o/57+5oOWWB4332aRH4Rgxvb1Z//VEgveTlpPHTZMeL94Pi6QHAMFgFC8502Zm5lHPvujkM9oU1zcJjvAbIiQ9AOAXEefacm2hmlaSHko4OLff/jgcrEeNsW6k1fpeBy3cn1k//IlG7RgRr3Og9x2dv09fn79fL2Fy9riv3Y90uWwvH2vnCmAODEbxkjjpcdDOxO0S9eybas/ILt/6BOX14/5D7tdhRnjeDAYAjI4415ZrC9W0nvQwHSz/Jw62MVbb7iX+qZM3P+mguUSHXa7XDxvr4jH0/sJle7/BO7bXWfDpzsK2bfSTlNq1KWlnsraNf72quG1PnCuA8UkMAGrCtssV14ZF7UwmoS7z8U2lZ2T7EcG8E+tvy+M+FEkPAPgFxLm2XFuophc0iknSAwDgjDA4Qf+oZ3MZ4XkzGAAwOuJcW64tVFOSHgDwTQxGcQXq2VxGeN4MBgCMjjjXlmsL1ZSkBwB8E4NRXIF6NpcRnjeDAQCjI8615dpCNaUTBADfRBzGFahncxnheTMYADA64lxbri1UU/8PYVEoFAqFQqFQRijSmaZQKBQKZdYibeGW9AAAfA9xGFegns1lhOctHVYAGBlxri3XFqopnSAA+CbiMK5APZvLCM+bwQCA0RHn2nJtoZrSCQKAbyIO4wrUs7mM8LwZDAAYHXGuLdcWqimdIAD4JuIwrkA9m8sIz5vBAIDREefacm2hmtIJAoBvIg7jCtSzuYzwvBkMABgdca4t1xaqKZ0gAPgm4jCuQD2bywjPm8EAgNER59pybaGaho3i47bohX5Zbg+7dAz3VV3XerefAOC74jgMvO7+XP22e7k945abevYpj+dt8e71v1Xd/SNn13XPb3luXa7H7bls26niP9N4WaZPI/N/HYMBAKMjzrXl2kI1zSQ9Mg3rryQ+ziQ0vp30IOkCwDfC4ATfZAbMezttB9pRO0M9+wzdhnv9pPiz7+y6pu+1qP6WS3rIM/QSIMEzlv/3kicH/bQRnjeDAQCjI8615dpCNa0kPZRfGqSfOddvX88v3U8A7TEYxZ/cV1WHom8QZOZRzz5AJxj8ZISSmyfOruvm3Q/2Y5X6DrllIzxvBgMARkeca8u1hWr6TtKj8nVN3YB7y/Rnt47ZNthdrsNWO4bexlu+rM81WF+VU50Ddz7+V4OjTkdyLP/+lM5T9uk6Mv46Xjk4RwDzkFgAvC3XhmYG19SzD8j2V0z/IWnOT64rfRL9LY1cQsSx/aqjLgNJDwD4TcS5tlxbqKaVpEfS0NpBvte4htvEy10ywTX8LsmgPxhJx6ByjELHINfwx3JJDz/RoZefOFb1PJNrN86cI4B5MBjFn9h2Ovj1Bt2ukvT4NN3GJ4kM0xeIf73k1Lr62dl14v6Gfa7y3KQcdhvsevHyEZ43gwEAoyPOteXaQjXNJD3UvL1EDXbcKGv2Gw0yL7c8SGqYBj9onOOkR+0Y+v/TDoZ4N+lxfD7Hxzp7nvHpkPQA4IvjMPAy3W65dluV4O9DGNSzv/ts0iOXAIn7FI7pT6R9B7OPXJ9ihOfNYADA6Ihzbbm2UE0zSY/4WxvbZ0U3yrZTFRXd5sYJDPFW0qNwDM12AHTZOwmfT3qI/LHq50nSA0CdxAzgozJtMfXsA3J9nIO2vrquLE/6V0dJDyWzP92f8PfhGeF5MxgAMDriXFuuLVTTUtJDsQP7rTGvNcq55UFDfTbpUThGTG9v1m+T9PB4x6qfJ0kPAHUMRvFpuXaGevYBuXb/qC9QWVc/I/VMsiXXR4j6Jmb7g76KIvv5dQwGAIyOONeWawvVtJL0UHJJguNBuxnoh1/XDBvmcH9m/bDhrh0jEnciDn7q4eSuJzhUKekRdGLO3Yt48ZlzBDCPEQYn6IifnPdQzz4hbff3PoVdtrXvpXUz/P6F/H/QTwj3pfdTSHiIEZ43gwEAoyPOteXaQjWtJz3SDpRtfNW2e/Ea3y3RYecnSQSX6LDL9fpx4104ht5fuGzrQ/jHPuhYvJT0KB1LK92LfNLjzDkCmIfEAuB9fpsqJU14COrZp0T3O05yBH2oo3UzdN9gf3YmseEV118I+lh+CZ+7zPt1DAYAjI4415ZrC9X0gkYxSXoAAJwRBifoH/VsLiM8bwYDAEZHnGvLtYVqStIDAL6JwSiuQD2bywjPm8EAgNER59pybaGakvQAgG9iMIorUM/mMsLzZjAAYHTEubZcW6imdIIA4JuIw7gC9WwuIzxvBgMARkeca8u1hWqa+2NYFAqFQqFQKJRfLtKZplAoFApl1iJt4Zb0AAB8D3EYV6CezWWE5y0dVgAYGXGuLdcWqimdIAD4JuIwrkA9m8sIz5vBAIDREefacm2hmtIJAoBvIg7jCtSzuYzwvBkMABgdca4t1xaqKZ0gAPgm4jCuQD2bywjPm8EAgNER59pybaGa0gkCgG8iDuMK1LO5jPC8GQwAGB1xri3XFqopnaCPua/qhq7Pu/0IAGcQh3EF6tlcRnjeDAYAjI4415ZrC9U0bBQft0Uv9Mtye9ilY7iv6rrWNDVxNP80kh4A3hDHYeB19+catN1pW0Q9+5TH87aU7/Wusu7j9ly2ZaosN7WFU3+m+zrLM+6qyTa/jsEAgNER59pybaGaZpIefqNrG+RfSXycSVz0kPT487EADGOEwQm+yQ6svTZFtzHBAJp69inxvc3da6e8rjw3P1lhEhimv3XumZo+26L6aSQ9AOAXEefacm2hmlaSHopuaH9kgH7mXI/W+fN1kvQA8AYGo/gbM1gOmpRMe0Q9+wD9g6AowZCbJ15Z19r7BieeqdvXPb/PEZ43gwEAoyPOteXaQjV9J+nxytc11TL92a1jtq11zqrH0Nt4y5f1uQbrqxIcZFdPerifvvhfLc10UoLrVMtv8XXkroxLf/IAAGP4SURBVCGep8or9xbAcORdB95n243gGwRx20I9+4hsfyWToBCvrCtsn8Isqz9T6bPob4W45EfURxnheTMYADA64lxbri1U00rSI2iERdrwhtvEy13iwDX8Zrm3eaZjUDnGQQMvjhIavnNJDznn/Rj6+MVzrF+nf9z8OVSuG8CQGIzi71y7ZUruV1KpZ3+X9gWEuffxPT+1bvDDkzgZUnimeju7b5IeAPCziHNtubZQTTNJD9vAmhI12NnGVQb8dl5ueZDUMI140LDHSY/aMfT/5zt1n0x6hKuYY27zqteZ8hMY2XOoXjeAEcVxGHiZbj+kXbltA+W4iaGe/d3Hkx4B08/Y+gaHzzTaR7bvQNIDAH4Bca4t1xaqaSbpEX9rw/+mgWuEM0U3xrmB/1tJj8IxNNs50GVv7C9LelSvU8ldRzXpEa1vS+Z0AQxC3nHgbbbtCNoJ3R6FA2Hq2Qfk2v64f+C8sq7jtik9U/lV2qRfRtIDAH4Rca4t1xaqaSnpocQN70HjusktDxr+s0mPwjFiriOg1j+d9PCvUfN/cpI5x/icatepl4f7eO+bHgBGx2AUfxK3oVo6uKaefUCunT5qu19Z13HPsvBM5TkeFu+By+dfx2AAwOiIc225tlBNK0kPJRygm4TAcWLBNMrh1y6lMd4b73B/rhH3G/faMSJeJyKf0IjYc/K/Xmq+huo6Ivb4XsfELPfPsXKd9vN+CfY6/aTHQeLl9HUDGMIIgxN8UdLeuDYrHFxTzz4hbaf3Po1dtrXtpXUVeW5BP8Bb/+Qz1fS66fwRnjeDAQCjI8615dpCNa0nPVQrHTW0tmFW2+7FSwjYxnqbn/zEwv9phZqv1/eXi8Ix9P7CZVvHwD+231uIBecoxT++OfZ698/zqKPhbR9dh+mgeNv7X0k9PM/KvQUwHHnPgT9J2sUxB8F98PsGqsRJjqAPdbSuoZMg/nK/P3DimWq6PzHm82YwAGB0xLm2XFuophc0iknSo3cu6WE/AkBDIwxO0D/q2VxGeN4MBgCMjjjXlmsL1ZSkR4qkB4DrMBjFFahncxnheTMYADA64lxbri1UU5IeKZIeAK7DYBRXoJ7NZYTnzWAAwOiIc225tlBN6QQBwDcRh3EF6tlcRnjeDAYAjI4415ZrC9XU/yNZFAqFQqFQKJQRinSmKRQKhUKZtUhbuCU9AADfQxzGFahncxnheUuHFQBGRpxry7WFakonCAC+iTiMK1DP5jLC82YwAGB0xLm2XFuopnSCAOCbiMO4AvVsLiM8bwYDAEZHnGvLtYVqSicIAL6JOIwrUM/mMsLzZjAAYHTEubZcW6imdIIA4JuIw7gC9WwuIzxvBgMARkeca8u1hWpKJ+hd9/Xf8996t58A4D2/G4cfz9u66PP/92993h929s+4P1d37tnPY6G9n8sIz5vBAIDREefacm2hmoaN4uPmOrB7WW4/15Mt0smK6Brf6eSS9ADwCRKDEg81AF+8eLysz8tCsTr2nswwZZHjx1mN++qtsxyen9+uvB4yTyQi3r5XJD3wDj/ZZ+rbYcIvUzdz6wZ9L/eSPG5qWzsvs+3jHi5f1ps6s53M+3UMBgCMjjjXlmsL1TST9Fi8hlM1uos0pj+S+DiTiMitYxIhx532nFeTHiRJAOQkg5MgmeCXvw/G3eDqMKbbmJ8e2xQ/hJm4WWsfXCLBlpdjYCUR8ad7RdIDr3o8b34iYiuZOnP0Lvl9LC3zjtS2zdb78Bxk3q9jMABgdMS5tlxbqKaVpIfyS4P1M+d6tI6en3RGjr16X37pPgK4ThiHvQGQihcuHpmf6v59MF5OengDOhUL958qP0z80ue1n4ObVwxrdnC23O52359MKPz1XpH0wIu2ZIOqI7rC7e9M8h5I4sL7dsZj2zb8Acv2Hq12udRl980PV6/lGyPbtvsx/ff4oeb7ZPmvYzAAYHTEubZcW6im7yQ94p90RB3E4CcU0uDLZ7eO2TbYne4IRPuoHSP+KYfqWARfA5WS9ECMw+SDPk/XGakcXzl/X+L5qmzb1Y8DYGzy7m/8QZWdlZIkxBL8JHgJkhRqjdu6L9cDr0wcUiUMYS52546dH3Rt5SBhbAZ0Jq5ug7tg53Zfcv7q2v1zNrG4kIg4da/Uaqpd8+/V8b7TY6X30S74QXIN+Jtc0rCcSPTk3i9Xh+Wl8P5/26f3smzvz83u5+Cdc2TdX8dgAMDoiHNtubZQTStJD9tI7+2u7aB6DXG4Tbw87kSa5d7mtqH3OgG1YwTJidBhQsNzvI4511X1asvXaIT7qW+THvfccQCMzY/DOgZIzAxihc/GDR1X42LjqBs8STJ4lYTwQaJCleAw23a5GLRvv8VIbz/5bWz8d8v8Ad6mdj1pIsKp3yvhto+KPqd439Hn7H3UK/4kuRb8jatzuaRHuR5KdZK65W/r6n5U32Q/7v8zZftGiNRL793xEyRC5v06BgMARkeca8u1hWqaSXrYBtSUqKOZTThIR9HOyy3Xjbfbj2nkg7Y5WK7UjqH/P/9TlY8kPfRPUUrHN4L9VM85c9wT2wAYnx+HqwMoHTfUcomZLk5sX323sdUbrMffTMgN2jbbdrWkh5njBnFHp+r2tx/Lnacf49x+F51MMbP863H/H7VFyrnB5kPtbv/VF7l/+/7ifUefC/fxF8m14G9y70/xnbL8uurWSrZz9c3W5/BbRstzce+fS3pkiv8qyOdfx2AAwOiIc225tlBNM0mPrcNrO6N+B3jrcKdFN7a60Y46p8G8s0mPwjG0vVPsd6D/lPRwSYj7meNH+zlxzvmkR7q+vw2A8ck7v3EDnziOOtHAyIkTEPLrL2Y/qsig3cxWYacwQNtiUubY27Io3qp5R/HKLc+V/fh70sM/pX3fx0kPtZLd38G9svTg0Q4Y9yLbVJIeMufgPv4iuQb8Te79Kb5Tilsu76y/Run9SBOP3nui6nO8jn8MRz7/OgYDAEZHnGvLtYVqWkp6KLaju7Wj+nPYOQ3klr+V9CgcI6a3N+vrTsRRD9w6WkfPl2s/efxgPye2SY776nUCGFIYh72ErooXW3jQ//SlipP+QN8tjL/psXnov2ch892ArDxAOz62GXCp4rUPOqapeeExHW9fubLtZx/M7d/0kNho5t22a8slHI7Pd/tDpvZ+bV/9V/ve9xfv++hY6X38RXL++CP3/rn6e/juCVe38/XGvT/Zor9dtG+z/xFUme/eD/l/vVTtK62f8vnXMRgAMDriXFuuLVTTStJDCQfrthHP93IV0wHYGl6/cTZzov3lOpm1Y0S85IHed3T+sfD4hul8uATEueO/dl9y5/bidQIYUjYO67gYF4mTNm7kltv4Yr7Z4P4OhVnmYnK87zj8HB9bSpikNXHzIOnhBmnJQhfzo3i7HcMr+nqOEhFG+V4p22Axtzzed/i5dB9/kZw//srVkajYumrqsq3bh3XvoB7578zWdwqLeZ2O3pnw/ZR5v47BAIDREefacm2hmtaTHqYh9hvTXIPrdUiDxlrN19t7y4NOg5qv1/eXi8IxMh2JrV/tHzvbE5fNw211ia+5do1KmPQQL9yX/YSrxwEwNnnvY/KT3eBXMtTg++b9zYub/2sXKj7LNxn2EB0OmIJlKrrsf/wwHCQ55p98DZMJyxr+6zCilPQ4s8wM/FwMXJ5r8DcMVBzUx4sTE6nivVL7j39FZdXHl/3F+44+F+/j75FrwAfobxL59cL1Hz6Y9JD3Iqi33jehNDlWWK/jXcr8X8dgAMDoiHNtubZQTS9oFHVDftxhBYCZjTA4ed+e9MiNA/E5c9ez+YzwvBkMABgdca4t1xaqKUkPAPimuQejJD2uMnc9m88Iz5vBAIDREefacm2hmpL0AIBvmnswStLjKnPXs/mM8LwZDAAYHXGuLdcWqqn9fVAKhUKhUCgUyjBFOtMUCoVCocxapC0k6UGhUCgUCoUyaMl1ACkUCoVCmaVIW7glPQAA3yNBGWiNejaXEZ43dRbA6IhzbZH0AIBO0ODhCtSzuZD0AID+EefaIukBAJ2gwcMVqGdzIekBAP0jzrVF0gMAOkGDhytQz+ZC0gMA+keca4ukBwB0ggYPV6CezYWkBwD0jzjXFkkPAOgEDR6uQD2bC0kPAOgfca4tkh4A0AkaPFyBejYXkh4A0D/iXFskPQCgEzR4uAL1bC4kPQCgf8S5tkh6AEAnaPBwBerZXEh6AED/iHNtkfQAgE7Q4OEK1LO5kPQAgP4R59oi6QEAnaDBwxWoZ3Mh6QEA/SPOtUXSAwA6QYOHK1DP5kLSAwD6R5xri6QHAHSCBg9XoJ7NhaQHAPSPONcWSQ8A6AQNHq5APZsLSQ8A6B9xri2SHgDQCRo8XIF6NheSHgDQP+JcWyQ9AKATNHi4AvVsLiQ9AKB/xLm2SHoAQCdo8HAF6tlcSHoAQP+Ic22R9ACATtDg4QrUs7mQ9ACA/hHn2iLpAQCdoMHDFahncyHpAQD9I861FSQ95GZTKBQKhUKhUCgUCoVCoYxQgqQHAOB7JCgDrVHP5jLC86bOAhgdca4tkh4A0AkaPFyBejYXkh4A0D/iXFskPQCgEzR4uAL1bC4kPQCgf8S5tkh6AEAnaPBwBerZXEh6AED/iHNtkfQAgE7Q4OEK1LO5kPQAgP4R59oi6QEAnaDBwxWoZ3Mh6QEA/SPOtUXSAwA6QYOHK1DP5kLSAwD6R5xri6QHAHSCBg9XoJ7NhaQHAPSPONcWSQ8A6AQNHq5APZsLSQ8A6B9xri2SHgDQCRo8XIF6NheSHgDQP+JcWyQ9AKATNHi4AvVsLiQ9AKB/xLm2SHoAQCdo8HAF6tlcSHoAQP+Ic22R9ACATtDg4QrUs7mQ9ACA/hHn2iLpAQCdoMHDFahncyHpAQD9I861RdIDADpBg4crUM/mQtIDAPpHnGuLpAcAdIIGD1egns2FpAcA9I841xZJDwDoBA0erkA9mwtJDwDoH3GuLZIeANAJGjxcgXo2F5IeANA/4lxbJD0AoBM0eLgC9WwuJD0AoH/EubZIegBAJ2jwcAXq2VxIegBA/4hzbQVJD7nZFAqFQqFQKBQKhUKhUCgjlCDpAQD4HgnKQGvUs7mM8LypswBGR5xri6QHAHSCBg9XoJ7NhaQHAPSPONcWSQ8A6AQNHq5APZsLSQ8A6B9xri2SHgDQCRo8XIF6NheSHgDQP+JcWyQ9AKATNHi4AvVsLiQ9AKB/xLm2SHoAQCdo8HAF6tlcSHoAQP+Ic22R9ACATtDg4QrUs7mQ9ACA/hHn2iLpAQCdoMHDFahncyHpAQD9I861RdIDADpBg4crUM/mQtIDAPpHnGuLpAcAdIIGD1egns2FpAcA9I841xZJDwDoBA0erkA9mwtJDwDoH3GuLZIeANAJGjxcgXo2F5IeANA/4lxbJD0AoBM0eLgC9WwuJD0AoH/EubZIegBAJ2jwcAXq2VxIegBA/4hzbZH0AIBO0ODhCtSzuZD0AID+EefaIukBAJ2gwcMVqGdzIekBAP0jzrVF0gMAOkGDhytQz+ZC0gMA+keca4ukBwB0ggYPV6CezYWkBwD0jzjXFkkPAOgEDR6uQD2bC0kPAOgfca4tkh4A0AkaPFyBejYXkh4A0D/iXFtB0oNCoVAoFMr4RTpXFAqFQqFQKDMU6ftsSQ8AwPcQh3EF6tlcpLP360a4BgAoIc61RdIDADpBHMYVqGdzIekBAP0jzrVF0gMAOkEcxhWoZ3Mh6QEA/SPOtUXSAwA6QRzGFahncyHpAQD9I861RdIDADpBHMYVqGdzIekBAP0jzrVF0gMAOkEcxhWoZ3Mh6QEA/SPOtXWc9Hjcn7d10SvosqzP28Mu+0mP511dz+KuR5Vlvau5ANCHJA6jc6ZdMW3K+rzbueK+7m2NXxbbkNaW51S3idvtf8tzvaf7k2WYB0kPAOgfca4t1/dRU78T9HjelrBTpcty+9Ekwf255q5HlVIH86zHzXQyP7EvAPOSOIIf8bhF7cq3kx6qncssk7L6J6bIPMyDpAcA9I8415br+6ip1wm6r7azpDpxtv/1uN+ey48mPfaO4vK8bT/1st/8IOkBoBNBHEbXpF1Z1tvzLm2jay/tMmHaHdXmHDQLteU55W0kub/ubZwkZfR5pW0T9WwuJD0AoH/EubZc30dNc0mPeofscVsPfmXE/tRpUZ1Ct47qkLmfjAU/eVKdM7M8TKq8tu+jhMz+06/4p127h9pP/Ksv0bnopI9b7r4ynP9GDMkPAO+Q+IEf49qvryc9Ynv7RNJjbiQ9AKB/xLm2XN9HTf1OUPg1Wf3TrEwny33DISk6uxDuQxedpLDbeBmI3Dcl3tl3th940CH1mY5kprh9bvvwi+yPpAeAz5H4gR9TTHr4ZfES9/XlOa9tc5zwl3mYB0kPAOgfca4t1/dR06gT9FAdpmhAHw7mXYfK+6nTto10/rzEhN8pSzqILnHg//TqzX3n+L+qY2cFtvNRx/K+FuySHLqz6PaxJUHu6pz3/fHrLQA+QeIIfszppIctth2pJtszXtlmWzfOeCgyH/Mg6QEA/SPOteX6Pmqa7wQ9ouTH1n/akgm5IsmKTOJC278dofflOox+p+3tfWfUkh5xQsNyHUaTyAjvQfzNF5IeAD5B4gh+zEHSI2R+hdK0Ibl2q7Y853ib7ZuSBwkU6tlcSHoAQP+Ic225vo+aljpBmd8N/kNiYuuQybc07P8HCYNPJj3ib23ETiU9hHQw1+DverhFJD0AfILEEfyYU0kPZVvvoN2qLc/JbLP9E7oHCQ9BPZsLSQ8A6B9xri3X91HTvRMkg3j9e8Kux7QlGbzEgdfRy3fQCokJb1vzDYponb/sO+H/3Q21/vYVDZfEcH/A1NtX3JG8q/XkfpilW6fSJTn8JA4AvMuPw/gRXnu1tQBq3rr43wj0v5Wh1qstt/Pib0XWtjmT8BCyDuZB0gMA+keca8v1fdQ0THrojlNSwp9klX+/uJSY8BMRbv3Q+/vO2DqlmbLewnMJltmrPfjmyZbjiJbzjQ8A75D4gd9QbCcLbY5uH2rLtf2HDae2KbVzUdst8zAPkh4A0D/iXFuu76OmfifooX9i5Heg4n/C1UjX0+VEYsLvMOaTBO/vO+txf97cT8Hstvs1PTLL/D+Qas5lW764f7LW8beXZXY2ALxAYgh+Q+2HA/LPnPt/C0r+yfb9m4b15bpd8b/pIXNK25D0wAGSHgDQP+JcW67vo6Z0ggDgm4jDuAL1bC4kPQCgf8S5tkh6AEAniMO4AvVsLiQ9AKB/xLm2SHoAQCeIw7gC9WwuJD0AoH/EubZIegBAJ4jDuAL1bC4kPQCgf8S5toKkB4VCoVAolPGLdK4oFAqFQqFQZijS99mSHgCA7yEO4wrS+GMeIzxv6iyA0RHn2iLpAQCdIA7jCnSs5kLSAwD6R5xri6QHAHSCOIwr0LGaC0kPAOgfca4tkh4A0AniMK5Ax2ouJD0AoH/EubZIegBAJ4jDuAIdq7mQ9ACA/hHn2iLp0dT9uar7+u/fqv4v9xnf9XjeFnkey/P2sLOALyIO4wp0rOZC0gMA+keca+sg6eEG51FZvzVU/3Ky4KGOvyz7fVjWk4Pkzyc9Hrf9PL72OD7GJR2kxIkHe6+Wm1qrFZIe6Iu8C0BrdKzmQtIDAPpHnGvL9bHVtJ+khxvYL9tI9O/Jgrfd1/AebOXMuXw66RE9l5/PevhJj/h67LWS9MBE5D0AWqNjNReSHgDQP+JcW66Praa5pMd3BoNp0uNbvCSDGpC7s3ncb891+ULSwyZgltvdDtbfTZ70Yk86LEnygaQH5hPGYaANOlZzIekBAP0jzrXl+thq+krSIzd49+fZwaQasN5v63PR8+Wz/2shap11/1WNRScV3CA0LOs9d7zH86623/atyiLH0/s/c3y1VrTMbOvZvuVRTi7cb+F57MeJzzu9juo5eO6rrGeeifn/8FdcSvvKL6s9R/v/q9zH/RoX9fmhf+XHfJZzCr6koZbdTv06kHve6ljuXm9JDnvs+PNHz9UdX807qifVa9nr2lafpS6/8FwBR+oL0Bodq7mQ9ACA/hHn2nJ9bDXNJT3CUv51E39ePnmhix7E5pevamSYnx8fr7D/U8eX03WD7PW5rqqogW08MN/+fkYwoo/l75U5Tnze0ecT57Cz28bn786ttK/DZfH5CX+e+/8zJb7Go+U+95zMsjCRE13vtt9PnmutHp25llJdyzwLoEDqDdAaHau5kPQAgP4R59pyfWw1bZP0kF/F0Fs9bvYn32q5G4TL/5uFasC7/wS++jc9/H25VeSn+XpemDzJHl8+e4mAo5/Cn0t6PNSh7TGEOs5+rvF9ij6fOIeNXTe9J3ZAXdrX4bL4/IQ/z/2/uad6qU1MbPvarjc+D5eskGfr9qFneMKkx/aM/ITRG0mP0+e6HV/qntlmr0dqnduZa9nr2uqezSvPFfBIvQFao2M1F5IeANA/4lxbro+tprmkx9FPqGsD0H0wuW/vLXeDwoNkQjXpcbD9PiCtHN/N8X69Rg9Q7fyNO05wnSn9qwx24LsX2SY+5hvnYG0D+Exx96m0r/yy9HzCeeny9NmE93pLFGVKNekhc+z227d7Xk56nD/X9LPh7vWynLmWo3142xaeK+CT+gK0RsdqLiQ9AKB/xLm2XB9bTd9JenjLg29S5AaC3qA0+Un4Q/8dBjeQPJ30kM/b8d0655Mehjl2eDxn36ckWLal+m9EhOcif5NEe+WbHpvSOQjvPHJlSwyI0r7iZW6/R88xPd9qImF7tv45HXHb+vfDHnOxf9w0SXp88Fy9z/s3Pdw+1TrJNz1ycnXNqT1XICR1BWiNjtVcSHoAQP+Ic225PraavpL0cAO9XJFBZ24g6A9K3f+HJU567PPjAW3h+HqAWju+HEO+neH+5oLZNjcwjc9lL/ZctgRMbnl83u+dw3aM/esFltufGrSrfRzt6/g4tecYn/9+P/bzjO+12yYu+z52bttomX9Pt4RDi3Mt7FMf98y1xPuU4558rkBE6grQGh2ruZD0AID+Eefacn1sNX0l6aHobzu4QaAadAf/jGo6ENz3aQeMwfZqUOh/k0LW9fZ9277F4Q021Tz/X3+R9fZ9nDm++4m+KeHxQw81CA9+fUUNaG/7V0zUGN07Dz3Ylf+X48Tn/d45pH9HYrf9KoYkPY72VTpO8Tmm972eSJBZsk//2YT72Llt42Vuvir+tyw+fq72szpG/K/8BN8gKl5L7vrP1y3AJ/UFaI2O1VxIegBA/4hzbbk+tprS2QaAbyIO4wp0rOZC0gMA+keca4ukBwB0gjiMK9CxmgtJDwDoH3GuLZIeANAJ4jCuQMdqLiQ9AKB/xLm2SHoAQCeIw7gCHau5kPQAgP4R59oKkh4UCoVCoVDGL9K5olAoFAqFQpmhSN9nS3oAAL5H4vD/+z//N4XStNDez0U6e79uhGsAgBLiXFskPQCgEyQ9KFcU2vu5kPQAgP4R59oi6QEAnSDpQbmi0N7PhaQHAPSPONcWSQ8A6ARJD8oVhfZ+LiQ9AKB/xLm2SHoAQCdIelCuKLT3cyHpAQD9I861RdIDbd1XVbnW591+BHCMpAflikJ7PxeSHgDQP+JcW4dJj8dt0QvD0uPg9fG8Lerc1hZnZved3Adblptao+XxDzxuz8U7jysP/TKSHsBp8j7nBqmUecv//X9InP8/n/+3P///+b+e/8FrA/79H//D2+b/e/6X/+gti7dVReZjHiQ9AKB/xLm2XN9HTTNJDz2o78t9VZ24YJR/XdIhPba4Oulxf67qWS0392Tk+B0nFUh6AKdJHPYHp5SZy/94/mdVH6ROhIkLme99tgmQ//Bf/z/9WSdJ/uP/9fzvdnn8WUrc3mNsJD0AoH/EubZc30dNfzXpcZ1vHnujv+WxPLecR+9IegCnSRx2A1PK3GVLVvy3/1PVi/TbGn7R68q3PXQC5D89/8v/4y3PzCPpMReSHgDQP+JcW+8lPfRA1h94m28f7PmA+NdC4kFvtHzb0MwP8grboDne577d4bc/tnXzx1/v5rzNOvVEwlHSI5zv7oW/7/j842PVztdn95s5D+PMvqJ1tn2VtjXLqvcs+NUbtfwWJT3083TLVekwsQZ8i7wT22CVQpHyStIju675xsh//m/7PKlnmAdJDwDoH3GuLdf3UdNM0kPN84s/ztYDfTtgDQf9duDsrRwmUNLlsr356AbWerYRfVMgl3ioHV8vzwzg/UG7XqcyAM8dW4TzXVLAHW9PErhVwmPV7leGlzjYf81FnNlX/v6s99p9O3PP4n1E9+LXvqUCXEze6X2wSqGoUkt62F9vkaTGf/+v/ymzrvkbH+7XX6RIPcM8SHoAQP+Ic225vo+aZpIexSSAGdAuiyRHvIRCdmAr69p5xYGvGTR7424ZWQf7DxMMRjAvWt8w57pvVj9OTu7YIpwfHyuznX+s2v0q2BNTL+zr6P5X79uJe5bbd7CO2V+YqAHgyPu8D1YpFFWKSQ/7R0vtHzIl6YEckh4A0D/iXFuu76OmryY97DrxIFYPfGUgnhY9YC4mF2ZNeqjlmZI5VMpur5/BmX0dXWf1vp24Z7l9JPPMPs151RM7wEzkvdgHqxSKKoWkR/JHSvn1FmSQ9ACA/hHn2nJ9HzV9MelhB9jrKoPaE98kcIrLZ016/GXwb65lT3pU9nW0TvW+nbhnuX2X7qte9pdrB8ZC0oOSlIOkh054xPP5Q6bIIOkBAP0jzrX1ZtLDDIDdQF4P6rd1w2WpdLls7z7mEgj+oDk8lpHdJtp/uM2JAXxGeJxd7vj+asl2wbFq9yukn0uyL5c4OLOvo/tfu29n7pnZx/bNH50EUfs4uq9/TvgAYyHpQUlKJumRTXjoEv66y7au91kKSY+5kPQAgP4R59oqJz30gNUvZvBqlhUGu25gndnWsANsV8KRtLdMbaMHxt6220B63y5NRkT7T5I3ZwbwqfQ4RjjfHNtfLdkuOVbtfoX0/rb14qTBmX0d3f/SfTt5z/znI8v856fX9/avSrA/YHLyTviDU8q8xSQ24vKfnv/lv5k/XJpdpr/NYX6dZZvv//qLLTIf8yDpAQD9I8615fo+akonCAC+SeKwPzilUFoU2vu5kPQAgP4R59oi6QEAnSDpQbmi0N7PhaQHAPSPONcWSQ8A6ARJD8oVhfZ+LiQ9AKB/xLm2SHoAQCdIelCuKLT3cyHpAQD9I861FSQ9KBQKhUKhjF+kc0WhUCgUCoUyQ5G+z5b0AAB8D3EYV6CezUU6e79uhGsAgBLiXFskPQCgE8RhXIF6NheSHgDQP+JcWyQ9AKATxGFcgXo2F5IeANA/4lxbJD0AoBPEYVyBejYXkh4A0D/iXFskPQCgE8RhXIF6NheSHgDQP+JcWwMkPR7P27roC/n3b33eH3Y23nB/ru4+Zj8DaInBKK5APZsLSQ8A6B9xri3X91HTTCfooQa9i0soqLKsz9uVSQV1/D2hYcoi5+BnNu6rt3zJnJ8buEdl/cYw/qIkwtvPLT6/i84XgCbvK36cjr8m9u7NzON5s/OCsq1QW+6rrJuJ//EPA2Q+5kHSAwD6R5xry/V91DTqBAXJBL/8fQD8uJkO2VIaiT9uzyU59l5c/+6+ms/H+3ID96hkO5OflV7nBUmEPz23+PwuOF8AG3lX8btczHdlb2YuSnoctZvLTW21k3mYB0kPAOgfca4t1/dRU78T5CUKVEfKdZYe99tzlZ8a2c/vqic9vE6d6qztP6V6bEkONxB3n7N9Q81dS+5bIG2dSu581F+fG0kP4Jvk3cWvknZrea43+YaiicN7u+TatKNYWlvuK6wrSQ/vmx2PLQketn/Us7mQ9ACA/hHn2nJ9HzX1OkFbR6nWAZMkxBL8ZGnxkhSP27ov0x0xL5nhlSRhsf20Knd8b2Afl+inWUYp6ZEb1Pvz7PnKNUXXEu5Lref9Gs6ySpLBruuV9Z47Xvke6n2fOgfl5HO738Lj7fuKzy893/SZ2gUA/kzeK/y+NBmfafuC+Flb7nth3YO2VLbBPEh6AED/iHNtub6Pmu6doO0rusdfn1AyHa+tqA6WG4Crzti6qrJI0iG/TXKYbdtcEqNw3GLSIyzm2xe5JIQ/78yxSvchLGnSo3IPa+tE13vuueXvh9lXfH7R5+wz1SsC+AB5v/D7TiU9dKnFebfcd37do1//lHmYB0kPAOgfca4t1/dR0xeTHv5PkFx/Sv6Amp6nOntqUKz3kfkJVPXXPk4mPeT0zv96S1heTXosN/vrIvFPzvxvV5gV1KxFn096ndHxavfQrFQ/B+tssupxt/sRal/7OcX3I/rsJT2yP1UE8CfyfuH31dol+ZVDE8PziePact/Run57EO+CejYXkh4A0D/iXFuu76OmXifIH8jbWQm3TtSr8zt7Mvg3+1FFBsp2nWrS42BQr23LTAfvfNIj13mMB/nCn+cSDv62B4mAzAlUkx4n7qHaS/0cnDPPTdG/omITKXuRbeL9psc5eqYA/k7eK/y+ersUJu9TteW+dN1SwkPIMsyDpAcA9I8415br+6ip3wlyg92o06T/KTw70PUH2G6F5FsK4qH/hoTMc4P/atKjcHzXuXPfAvlM0sNbFiRcXkh6bN9+MNcr53M66VG8hy8kPbb5qkT3LX5ui7thr3zTY5M+UwB/J+8Ufl/SLkmc9WJy8gdGa8t9xXX3BEgpNstyzIOkBwD0jzjXluv7qGnYCdp+UpQUNwDeO1dJWewf3VQDbfO3H8z8OOnhytYx9BwfX8reEfxb0qNwDfo6zyQc3OewyPmk1xlvW76H9m6dOIdd9bltHeTc8qNrM5/NN0TyzxTA38k7hV91HM/Xm0umR8U1XFuyPbfcJfttG1Ba9zC+h7FaPmMeJD0AoH/EubZc30dN006Q/AQp+DUINeC9+X/MQb554f+6g+qUyTcI9BpRx2ybr6nB9LbfXDLCMP/UajiIl38ZxT+FvyU9FP0tCLd/+88N6s8y0D+ZcAj24V9rfJ35bQ/vofZa0kOUn5v5myP+slXfQ9lXvN/oc/GZAvgrea/wqwpJDxVAdVze5pm2xo+fx8ujpIdyuK6a744ZF5Ie8yLpAQD9I8615fo+akonCAC+iTiMK1DP5kLSAwD6R5xri6QHAHSCOIwrUM/mQtIDAPpHnGuLpAcAdII4jCtQz+ZC0gMA+keca4ukBwB0gjiMK1DP5kLSAwD6R5xrK0h6UCgUCoVCGb9I54pCoVAoFAplhiJ9ny3pAQD4HgnKQGvUs7mM8LypswBGR5xri6QHAHSCBg9XoJ7NhaQHAPSPONcWSQ8A6AQNHq5APZsLSQ8A6B9xri2SHgDQCRo8XIF6NheSHgDQP+JcWyQ9AKATNHi4AvVsLiQ9AKB/xLm2SHoAQCdo8HAF6tlcSHoAQP+Ic22R9ACATtDg4QrUs7mQ9ACA/hHn2iLpAQCdoMHDFahncyHpAQD9I861RdIDADpBg4crUM/mQtIDAPpHnGuLpAcAdIIGD1egns2FpAcA9I841xZJDwDoBA0erkA9mwtJDwDoH3GuLZIeANAJGjxcgXo2F5IeANA/4lxbJD0AoBM0eLgC9WwuJD0AoH/EubZIegBAJ2jwcAXq2VxIegBA/4hzbZH0AIBO0ODhCtSzuZD0AID+EefaIukBAJ2gwcMVqGdzIekBAP0jzrVF0gMAOkGDhytQz+ZC0gMA+keca4ukBwB0ggYPV6CezYWkBwD0jzjXFkkPAOgEDR6uQD2bC0kPAOgfca4tkh4A0AkaPFyBejYXkh4A0D/iXFtB0oNCoVAoFMr4RTpXFAqFQqFQKDMU6ftsSQ8AADA22vu5SGfv141wDQBQQpxri6QHAAATob2fC0kPAOgfca4tkh4AAEyE9n4uJD0AoH/EubZIegAAMBHa+7mQ9ACA/hHn2iLpAQDARGjv50LSAwD6R5xri6QHAAATob2fC0kPAOgfca4tkh7AT3k8b4v7ZyeX5+1hZ2v35yrzl5taCwDyaO/nQtIDAPpHnGuLpAfwU/ykhyrr3c4X7yc9HrdF728JsygABkR7PxeSHgDQP+JcW67vo6Z0goD+uaTH8lzsdM9TkPQAUEd7PxeSHgDQP+JcWyQ9gJ/ikh7r835f9Qu8f9vjKOnxeN5vy3ORZbYsq1sn+uaIW+4lPx63Ndr2Huz/cb/ZBIyU5bneSZwAPZN3FfMg6QEA/SPOteX6PmpKJwjon5f0CP5f5JMe99UlJKKi1ysnPdw3QJLiEi2PW5AQMcWdD4AeyXuKeZD0AID+Eefacn0fNaUTBPQvTHSEv5aSSXpsSYnleXPfwPASFXvuIvfrLXZ//q/QPNQ8P9Hivm3ijqmW3xaSHkDPaO/nQtIDAPpHnGvL9X3UlE4Q0L+Db3foz5mkR5yUsNy3P+JvdARJD7dttrhEiEuCmCK/NsNvtwB9k3cV8yDpAQD9I8615fo+akonCOhfnPTYExbr/RtJDyF/M2QN/q6HvxsAfZH3FPMg6QEA/SPOteX6PmpKJwjoX5r00N+2kGTDYv9YqZ/g8H+9xc3MzHNJj+CfwN3WW4+TGPc1+MOm9zX3azIAekJ7PxeSHgDQP+JcW67vo6Z0goD+5ZIeXtJCSvCtDrd+pvgJjuhbHS5pUf4jqOl2rvi7BtAXeUcxD5IeANA/4lxbru+jpnSCgP7lkx5BciP6VRa9zH4Dw5Ql+Wdnw3Xkn521s9V8+faG+8OnW9mOYZbv8/kna4HeybuKeZD0AID+Eefacn0fNaUTBADA6Gjv50LSAwD6R5xri6QHAAATob2fC0kPAOgfca4tkh4AAEyE9n4uJD0AoH/EubZIegAAMBHa+7mQ9ACA/hHn2gqSHhQKhUKhUMYv0rmiUCgUCoVCmaFI30cnPeQ//+///N8UCoVC+WIBWpPGH/MY4XlTZwGMjjjXFkkPCoVC6agArdGxmgtJDwDoH3GuLZIeFAqF0lEBWqNjNReSHgDQP+JcWyQ9KBQKpaMCtEbHai4kPQCgf8S5tkh6UCgUSkcFaI2O1VxIegBA/4hzbZH0oFAolI7KeY/nbZF/iWN53h52Vldq53d/rqoB+vdvVf/3LT2cw/XoWM2FpAcA9I841xZJDwqFQumoJB5qYL4sOljrsqw2iTBz0sPt+99zjTd+3J6Lvk83tVYNSQ+Mj6QHAPSPONcWSQ8KhULpqATuqw7SaZFB+tzf9HjcbCIoynq4+cupm0LSA+Mj6QEA/SPOtSV9Qz2V/+Q64BQKhUK5ruzcgNwM7N0Q/nG/PdeFpMf2jY5o+/v6yj0h6YHxkfQAgP4R59oi6UGhUCgdlc32LY+jAfmeVFhvq00AqLL9+otxvy37smC53X65qXUOtlfnEGyri5dQeNzVPnK/eiNq53eQcCju0+f27/+KS36fx/cgXj+3fWbe6XPsEx2ruZD0AID+Eefakv6ansp/ch1wCoVCoVxXnKNf39jtg/6kbH/Pwg3Yc8sr22/fpIiLS3oc7HtLDhT2r9cpJRji4q+zS+6RO+fgnpXuQXwOpXOK14lL/hx7RMdqLiQ9AKB/xLm2pK+mp/KfXAecQqFQKNcV55Wkx3Kzv/6S/MrH4/m4778aI8v3AXxle/tNk+1vYxx83hMsD/urJe6bF27/i/pst5E/yqr3L4mTTIKhus9IdL3unoXrlu7BUULDO6d43qvn2CE6VnMh6QEA/SPOtSX9ND2V/+Q64BQKhUK5rmzc4DoYgPv2pML+qxXpoP0hv1qSfONClle23xIKYXED+y0pkylx0mPfv1yWWyd3rrV9xvbEjSRWzP+n9+v4HsTnkJ5TPO/1c+wPHau5kPQAgP4R59qSfpqeyn9yHXAKhUKhXFd2brCtihpN799UUPMXGYCfSHq4b2fsmQpveS3p4R1fF/nbHEH2wszfvvEQ2/e/f9PDJVLkmNG5iuo+U/s3YlazvzjzULwH8Tm4z9492c7ZrvPGOfaGjtVcSHoAQP+Ic21J301P5T+5DjiFQqFQriu+428VyAD8fNLjne1v+tj+sphbNy4ugeD2nyk6YRAnHERtnznhNsm3LYr3ID6Hwjlv67xzjn2hYzUXkh4A0D/iXFvSV9NT+U+uA06hUCiU60rsoQbtwa9myL8Uor85cSLpIamF1UucqG1X/eslsryyvfdNj2VZbHHHtvS3TuLEzH5svf8l/ddhzC7ic7WK+8xzvzKTX690DzLnoI9v11X3Zr3Jv9SSW+e1c+wJHau5kPQAgP4R59qSvpqeyn9yHXAKhUKhXFd6YRIJ5ldTHg8pLhlQ+vYHfgEdq7mQ9ACA/hHn2iLpQaFQKB2VPpz5NQ/8KjpWcyHpAQD9I861JX1YPZX/5DrgFAqFQrmudCPzKxzy6y3+b7fgN9GxmgtJDwDoH3GuLZIeFAqF0lEBWqNjNReSHgDQP+JcWyQ9KBQKpaMijR6FQqFQKBQKhUL5TNmSHvIBAPA9xGFcgXo2lxGeN3UWwOiIc22R9ACAThCHcQXq2VxGeN7UWQCjI861RdIDADpBHMYVqGdzGeF5U2cBjI441xZJDwDoBHEYV6CezWWE502dBTA64lxbJD0AoBPEYVyBejaXEZ43dRbA6IhzbZH0AIBOEIdxBerZXEZ43tRZAKMjzrVF0gMAOkEcxhWoZ3MZ4XlTZwGMjjjXFkkPAOgEcRhXoJ7NZYTnTZ0FMDriXFskPQCgE8RhXIF6NpcRnjd1FsDoiHNtkfQAgE4Qh3EF6tlcRnje1FkAoyPOtUXSAwA6QRzGFahncxnheVNnAYyOONcWSQ8A6ARxGFegns1lhOdNnQUwOuJcWyQ9AKATxGFcgXo2lxGeN3UWwOiIc22R9ACAThCHcQXq2VxGeN7UWQCjI861RdIDADpBHMYVqGdzGeF5U2cBjI441xZJDwDoBHEYV6CezWWE502dBTA64lxbJD0AoBPEYVyBejaXEZ43dRbA6IhzbZH0AIBOEIdxBerZXEZ43tRZAKMjzrVF0gMAOkEcxhWoZ3MZ4XlTZwGMjjjXFkkPAOgEcRhXoJ7NZYTnTZ0FMDriXFtb0kP+h0KhUCjfLdLoUSgUCoVCoVAolM8U6WNvSQ8AwPcQh3EFafwxjxGeN3UWwOiIc22R9ACAThCHcQU6VnMh6QEA/SPOtUXSAwA6QRzGFehYzYWkBwD0jzjXFkkPAOgEcRhXoGM1F5IeANA/4lxbJD0AoBPEYVyBjtVcSHoAQP+Ic22R9MCBx/O2yL8msTxvDzsLQFPEYVyBjtVcSHoAQP+Ic20dJD3uz1V9Tge8bv6q/u9K7rhRWa87i/uaHn9Z1H34aELAJRrs/m+Z67uv+zksN7VFKyQ9gKvJew20RsdqLiQ9AKB/xLm2XB9bTdslPR63RR9oeXv0/O2kR5iMCMsnkwLxceL7XFv+vvQZkfQAribvINAaHau5kPQAgP4R59pyfWw1/YWkx7cG4HuyYcuzPNQ52XnvX1dsTzQs8fHE4/Zc5D6s61vPoYSkB/B98g4CrdGxmgtJDwDoH3GuLdfHVtN3kx52cLzcnvf7agblUpZVbbsnC/xiBvKP531Vg3tv/iL7yA6wS0mP/fg3tT+9LznA467m289S9PnYTZwz62j7dQRJD7udP+94fwfnGXDHUdd5s7/G4q3jEhPrPX4OtXu5H/uu9nvuGe3nsibb2N0C+Ch5x4DW6FjNhaQHAPSPONeW62Or6R+THnp+XPZvLPhlH1DnSu7bC3uCwS/mWwmZfW3fhIiLv+/8PvPHP3O+tf3lzjM+kltH7nv8DPx77///mXMrrLOoe5VZVnxGS8u/JQLMS94voDU6VnMh6QEA/SPOteX62Gr616THogfKZpZbz3wLIvnVCfdrGrIft//cNyc2+zK/xEmP1e3f/bHPbXAu34Sw67h9n1lnk0sALM9l9b5NUd1f5jwT+72UVdz2+jrd/vXOvOdw6l7ux5Y/jqpX87fTH6NndGIbAJ8l7xvQGh2ruZD0AID+Eefacn1sNT2R9MgOesOBuuMP+JMBdTCA3x0nHQ7OR0uP746XK27fZ9bZ7QmAdJlR31/+PoWiddz9XuRXYvxtvaTHqXuZO7a3D/XpOOlxvA2Az5J3EGiNjtVcSHoAQP+Ic225Praa+p3tfZAvg2kz5t2/uRD+esM+ON6/6eGSI2bAfJj0kMGz29Gpb3r4A3AnMzhPvnWRcWadzX4/0nOzqvvLJRFi8Tr7ccN9Z5IexXuZO3aYwCDpAXyfvINAa3Ss5kLSAwD6R5xry/Wx1TTqbG+D6bSEA/9oYO4XO0iPvwXx+t+LeDHpsa0fF3+wfmYdZz/fw6RHdX+584yl6/j3bk9I+MmHM/eydI/M+R0/o+NtAHyWvHtAa3Ss5kLSAwD6R5xry/Wx1TTtbD/ua/iHSBfv2xybfXAc/ysf+6pqsLztxw6iH/f9XzGx85fVfask5gbbuYRBbnCuyLcd/H9JRZdosH5mHW1PLBwnPZTi/g7OM5BZJ/rWjOHuh9139V7mjh3tQz7bazTrndkGwCfJ+we0RsdqLiQ9AKB/xLm2XB9bTd/tbJ8ZzAMAakh64Ap0rOZC0gMA+keca4ukBwB0gqQHrkDHai4kPQCgf8S5tkh6AEAnSHrgCnSs5kLSAwD6R5xr6wNJDwDAJxCHcQU6VnMh6QEA/SPOtRUkPSgUCoVCoYxfpHNFoVAoFAqFMkORvs+W9AAAfA9xGFegns1FOnu/boRrAIAS4lxbJD0AoBPEYVyBejYXkh4A0D/iXFskPQCgE8RhXIF6NheSHgDQP+JcWyQ9AKATxGFcgXo2F5IeANA/4lxbJD0AoBPEYVyBejYXkh4A0D/iXFskPRq7r/+e/9a7/QQAx3qIwzpmqfP492953h52Jj7o8bwt/57fbBZo7+dC0gMA+keca8v1fdQ07ATtHV+/rM/phu+P23Px7sGrHdUrkx7pM/v8oOVxW6Jj/HsujIyAj5D3KRDFn1wsqb33uXf2MCbp45HsaIukB65F0gMA+keca8v1fdQ0k/SIemWmc32+Q/zJAf8n93Xe/bmq+7IP6qWz+lri58p7EC83g53PDmD0PpebuhOWHZT9UuLjO3UJqAvjsMQfL94k75qJT8H7KPR6+3bJO2u3y76z91Wdw4TJ7YbSeEPSA9ci6QEA/SPOtfVS0kPo+XEn+8AnB5dfGah+4KeeV96DdLkZ3HzytqUDqC89mz/4tfPFPGqDUb/u6v8/EYtfemcl6XEyvuOc9F6T9MC1SHoAQP+Ic229nPRIEwGmAyfbmyI/JYznqbLtK7e+R/+k0Vu+rM/1rX3JgF+d5938dDT8xkPlHDb2J6nF3ml5X0cd3vKxo3XWW7SNzEu3So+VS3q8e8+McwOoyjXan1hvy6KfTLvtw0uJfwJdOUZSj+Sc421UydxH4FukTpbs79r5hObRt7PibfW+3XshZTvOu3G0ttwn68q+bczVJY4/pf3VY9d+z/xjyD78/b5yTGGWh/t0+4i3VUXf09I215BjYh4kPQCgf8S5tlzfR01PJj22jqP8v+u86QWav93RYPho/TShsjvalz9Pr7N1Sl2HMt9J9bfLDeQ33uA5/Tp4fV/heZ85dv665GN6D0Lx8vB+iNrxj+7Zrj6Aqh0jXp47plnH24VcjLdO5RiFeiRq9xH4ljgOB/x3rVLHffrd0O+YV4KY45H3LFj2bhytLY/Z9b1rMud98p0/PE9fvI77vMcaHRsK13AYU73zDvdhP3v7OLNNa3LNmAdJDwDoH3GuLdf3UdN3kh4pvyN6vI9druOa+13zZF/JT/6Ff24H55kdLMi65QGE6YBLR9U75ol9Bed95tiFwUztfurl+hxdie5P9fgH98yz34c3j5FbnjxLMygIzsNf5+R1HP2dkTP1EvgGeafyogG4fh/8d8DU+e299AbQYYw1TKyI3l1xkPRIXpd33nN/eSLzzvvHPvnOl1/rdJ0kFvhxJolLIt5HJVbpj9ExTmzT2nE9w4hIegBA/4hzbbm+j5qeTHrEnU/9WTrQXiklPQrrG6ZTaZbtxyl2Tjd+h/SgE5w7vi25yw3YbbfB9Il9Bed95tiFzu/hM7Fqy+vHP7hnnnAAZQdi/vOrHSN3fcm8yqDgzH2012Lmh4Ol6n0CvkTqa46us5n3LFeN4yRHLulxuL28Z8G6b8bRU++o70zSo7S/euzKrZPEAj/O5GJVsg+SHugfSQ8A6B9xri3X91HTc0mPoPOd6Tj7HexkH5X1E7ojaAasxc7pxu+QHnSC9TmEg+DzTGc1THqU9xWc95ljF9Y5eiZObXn9+PWBQ/K89D69bWrHyC1PnuWZpEflPvq8emQ+Vu4T8CW5waiur0msM+9ILnZel/R48T0vyrzz/j6q+6vHrtw6SSzw40wSl0S8j3oCI4039W1aI+kxF5IeANA/4lxbLyU9TOfb63gmHWfTIXSdZr2+34GurJ/wOrrJvty23jmG66QdXMMOFtIFCT1Y8NfTHVO/413fV3gfzxw7XUf2IR/TexAKj5VTO/7RPdvlBlCvXaM5RvptmbDDH+7TPuttnTP30RMNmGr3EfiWbBw+Ggy7dyeqy2eSHofvgMS4YP67cfTFd9St772n+rxPv/P12JVbJ4wzSpB8sHHHW57eN3NewXFzSY8Xt2mNpMdcSHoAQP+Ic22Vkx7S4fNLppNsOqZuHdVhvXmd5m1Aq4rt4RXX1x0/t8yUrWOY2ZfawA6GbQnOr9QJdh1sv+Q7nOF98BMeTnlfSaf61LGj63LbZ+/BLj1WTun4pXtm5AZQ5rn596Zyjf51yPxsh9+/B2qZ3sZfp3CMUj0SlfsIfIvUyU3wnvil9q6F9T2MubZkYrkm787H4mhtuc+sW/4XTUr7q8eu3DpJzExikX8+qiT3zZ23/SjifSTx5sQ2jcm5YB4kPQCgf8S5tlzfR03pBOFLLu7wA72aNw5nEgFohvZ+LiQ9AKB/xLm2SHrg+0h6ABpJD/sRTdHez4WkBwD0jzjXFkkPfB9JD0Aj6WE/oina+7mQ9ACA/hHn2iLpAQCdIA7jCtSzuZD0AID+EefaCpIeFAqFQqFQxi/SuaJQKBQKhUKZoUjfZ0t6AAC+hziMK1DP5iKdvV83wjUAQAlxri2SHgDQCeIwrkA9mwtJDwDoH3GuLZIeANAJ4jCuQD2bC0kPAOgfca4tkh4A0AniMK5APZsLSQ8A6B9xri2SHgDQCeIwrkA9mwtJDwDoH3GuLZIejd3Xf89/691+AoBjo8ThOO79JQ7qbdV9+fdved4edib+hPZ+LiQ9AKB/xLm2XN9HTcNO0N7R9Mv6nG74/rg9F+8evNpvvzLpkT6zzw8SHrclOsa/58JIBPgIeZ98uTi8v2+P523xl/nxubRM1Jb/TRz33o6DOv6S7Pg0eeaYB0kPAOgfca4t1/dR00xnO+qkmg74+Q7o2x3djE/u67z7c1X3JRxkvDY4uPIexMtNguKzAwa9z+Wm7oRlk0K/lPj4Tl0C6s7EYUcv895F/3Np2ZnPf6X35513/Pm0+6ruyYTJ9sZIesyFpAcA9I8419ZLSQ/xSuf47Y5uxif3ddoHfsp45T1Il5ukzSdvW5L0UL7ybP7g184X8zid9MjFJjfvXlgm80rb+vP+ID7vt985SXp8MBkDg6THXEh6AED/iHNtvZz0SDvHua9Jx/NU2fZV+Vq1/smet3xZn+tb+5IBvzpPPQCQZbVzzjFJg3Jnvbyv9D6eOXa0znqLtpF56VbpsXJJj3fvmXEu6VG5Rl2HvGX6s7+O2T68lPgnvpVjJPVIzjneRpXMfQS+Reqk7zAOZ78BYd/3tbBMZpa2TQ4VvTPBCsfvYHzeyXVk38+Q3sZfx5z8QYyqxAPtzDpzkOvHPEh6AED/iHNtub6Pmp7sbAedY9OJDPuy+3bpPsrrl37aeLQvf55eZ+vImvNMO7bpdrmB/MbrnKe/wlHfV3jeZ46dvy75mN6DULw8vB+idvyje7ZLztcmMPZd1o4RL88d06zj7UIuxluncoxCPRK1+wh8SzYO6/fDFlvHdX0/im3J+yTMMolhpW3DGJe+Z3I+5qNZ5r9G/nsVv2PB58r7GZD33o836qyP4oV/vCROnVpnHnE9w9hIegBA/4hzbbm+j5q+k/RI+R3J433swo6n2Xfu70Mk+6r+tPLgPLMdblm33Ak3AwV1Dv4xT+yr3tmPjl0YENTup16uz9GV6P5Uj39wzzz7fXjzGLnlybNMB1TBOiev4+jvjJypl8A3yDt1zA7cVby86/cwevfc8tx7aZe9lPQoxKKcUuwPP5ffz8BB0iN4favxQDmzzkTK9QyjIekBAP0jzrXl+j5qejLpEXce9WfX0ballPQorG+YTq1Zth8n2defkh5u/2HJXW7Abrt11k/sKzjvM8fOXpdx+Eys2vL68Q/umSdMUu2DsO351Y6Ru75kntlvcB7+Omfuo70WMz8c2FTvE/AlUl+L9Hug6vMtFyfs+/upX2/JrufJvYcHsT99547fz4CcQ6Z9CHZ1Jh6cihnzkOvGPEh6AED/iHNtub6Pmp5Leuj5rhNqO5L+aqWf9tXWT7gOvlqY7Kvacc90joU+h0Inuyj6aeiJfQXnfebYhXWOnolTW14//sE98yTPS+/T26Z2jNzy5FmeSXpU7qPPq0fmY+U+AV9SHYy69yD3Drh5n/pDprl5jl4WvqPnv+kRid7PgCwL2oejpMfB9s6ZdSZC0mMuJD0AoH/EubZeSnroeX7HMen4mg5p0PEtDZCj9RNeRzXZl9vWO8dwnaMBvP12QrogoTvx/npJ57y+r/A+njl2uo7sQz6m9yAUHiundvyje7bLJaleu0ZzjPTbMmECK9ynfdbbOmfuoyca8NTuI/AtQRyWeBPUcT/m5eNEfZmoLXfy6+mPZ2J/df9W9H4GziQ9MueZOrPOPEh6zIWkBwD0jzjXVjnpIZ1Yv2QGinoQvK2jOq7ytWu33jagVcV2Novr66SCW2bK1kfN7Mt1gLf1q51jx3aA/W2jQbcT3odcx7y8r7Szf+bY0XW57bP3YFccWGxKxy/dMyOX9DDPzb83lWv0r0Pm6+1L90At09v46xSOUapHonIfgW+ROrlL63j4dzDq8S+/TNSWO9F63vtSiuVxLAo+195Pn6ybua50/TNx9cw6c5BrxzxIegBA/4hzbbm+j5rSCcKXZJMewHyIw7gC9WwuJD0AoH/EubZIeuD7SHoAGnEYV6CezYWkBwD0jzjXFkkPfB9JD0AjDuMK1LO5kPQAgP4R59oKkh4UCoVCoVDGL9K5olAoFAqFQpmhSN+HpAeFQqFQKBOVXIeAQqFQKBQKZcQifZ8t6QEA+B7iMK5APZuLdPZ+3QjXAAAlxLm2SHoAQCeIw7gC9WwuJD0AoH/EubZIegBAJ4jDuAL1bC4kPQCgf8S5tkh6AEAniMO4AvVsLiQ9AKB/xLm2SHoAQCeIw7gC9WwuJD0AoH/EubZIegBAJ0aJw/f13/Pferef0s+v0Nuq+/Lv3/K8PexM/Ant/VxIegBA/4hzbbm+j5qGnaC9o+mX9flet/V3/aWzfpX0WX1+cPC4LdEx/j0XRiDAR8l7lWPe8Tj+Pp63xX8n/eWlZaK2/G/iuPl2HH3cngvJjo+TZ455kPQAgP4R59pyfR81zSQ9ok6q6Xif74C+3dHN+OS+XvGt4/pq5xAvNwmKzw4U9D6XmxoqWXow8luJjx6eJVCSDkbvz1XNk/lxYkLXZ++d9D+Xlp35/Fd6f967Fn8+7b4m142/S+sZRkbSAwD6R5xry/V91LSe9BCvdI7f7uhmfHJfr/jWcX21c0iXm4HSJ087SXooPdybV/za+WI+2Tgs7108+M99A8LNuxeWybzStv68P4jftbffPbnuDyZjYJD0mAtJDwDoH3GurZeTHmnnOPc16XieKtu+Kl+r1p17b/myPte39iUDf3WeegAgy2rnnBfeB7Pdevd/+poZKCTX4DrttePG55wpmWeSPqtc0uPde2WcS3pUrk/XHW+Z/uyv4+6v/SiSn/RWjpG99/E2qmTuI/BtUjez4vcgeS+Efe/XwjKZWdo2nKlE787J9z2ODUmsyL6nIb2Nv445+YNYVYkL2pl15iDXj3mQ9ACA/hHn2nJ9HzU9mfQIOsemExn2Zfft0n2U1y/9tPFoX/48vc7WkTXnmXZs0+1yA3onPK7rNO/nqJf72x5ew5nj5s85vfZQvDy8D6J27KN7tUvO1SYw9l3WjhEvzx3TrOPtQi7GW6dyjEL9EbX7CHzb4WA0SlToep+8r/b9yL7LZpn8Olpp2/DX1dL3Td4h89Es818n//3KxiT3ufKeBuS6qzEyPc8kXp1aZx6H9QxDIukBAP0jzrXl+j5q+k7SI+V3JI/3sQs7nmbfub8Tkeyr+tPKg/PMdrhl3XwnPDxu2tFPz+PgGk4dN3/Otfuol6vt9hLdl+qx88f1mYHSH46RW57cu8r9PXkdR39n5Ex9BL5J3q2s6F0x72P0Dtr3J/t+2mUvJT2y79uxUuwPP5ff04Bcd5CYyMSqalxQzqwzkcN6hiGR9ACA/hHn2nJ9HzU9mfSIO4/6s+to21JKehTWN0yn1izbj5PsKxkwC79DnOkci9zxbcldbnjcM0kPkbmGU8fNn/Phs7Bqy+vHPrhXnjA5ZQdX/nOrHSN3n5J5lfv7wj0088MBTfU+AV8m9TYrflcKcedjv96SXc+Tex8PYn/67h2/pwE5h0z7EOzqTFw4FTvmIdeNeZD0AID+Eefacn0fNT2X9NDzXSfUdiT91Uo/7autn9CdbtMhTvZV7bhnOsdCn0Ohkx0Jj3s26eFx15D744KJ/DkfPQuntrx+zQf3ypM8p/hZ1o6RW57cuzNJj9o99Lh7b9ev3ifgyw4Ho/G7knsX3LxcrPHXL21bm+foZeG7ev6bHpHoPQ3IsqB9OEp6HGzvnFlnIiQ95kLSAwD6R5xr66Wkh57ndxyTjq/pkAYd39JAOVo/4XVUk325bb1zDNc5GsjbbymkC7LC+/BG0mO7hjPHzZ9zeu2h8Bxzasc+ule7XHIqd29qx9i+0m7rQnzvwn3aZ7yt89qz8+uPqN1H4NtOJz0y78L+7pSWidpyJ7+e/liJ5fH+8vu3ovc0cCbpkTnP1Jl15kHSYy4kPQCgf8S5tspJD+nE+iUzYNSD4W0d1XG9eZ3UbWCriu1sFtfXHXu3zJStj5rZl+sAb+tXO8eO7QD72x4kLsLOutku2Gc8GCldQ/W4B+ecvfZdcUCxKR27dK+MXNLDXKs/WKlcn38dMj++d5r/TNUyvY2/TuEYxXuvVO4j8G1SN33ZOLy9c/X4l18masudaD3vvSnF8jgmBZ9r76lP1s1cV7p+LbaKM+vMQa4d8yDpAQD9I8615fo+akonCBfLJj2AeRGHcQXq2VxIegBA/4hzbZH0wPeQ9AACxGFcgXo2F5IeANA/4lxbJD3wPSQ9gABxGFegns2FpAcA9I8411aQ9KBQKBQKhTJ+kc4VhUKhUCgUygxF+j5b0gMA8D3EYVyBejYX6ez9uhGuAQBKiHNtkfQAgE4Qh3EF6tlcSHoAQP+Ic22R9ACAThCHcQXq2VxIegBA/4hzbZH0AIBOEIdxBerZXEh6AED/iHNtkfQAgE4Qh3EF6tlcSHoAQP+Ic22R9PgW/rlWAJFR4vB9/ff8t+7RLf78Cr2tui///i3P28POxJ/Q3s+FpAcA9I8415br+6hp2AnaO5p+mW+QftRZ/0snXvtC0iN9pp8fRDxuS3SMf8+FkQpwirwvOebdjePF43lb/HfNX15aJmrL/yaOj2/Hy8ftuZDs+Dh55pgHSQ8A6B9xri3X91HTTNIj6qSajvf5DujbHd2MT+7rFUfH/fP5vJj0+MT1x/swCYrPDij0PpebGlJZetDyO4mPb9UzQKSD0ftzVfNkfhwvdF313jX/c2nZmc9/pffnvUfx59P4RlwTaT3DyEh6AED/iHNtub6PmtaTHuKVzvHbHd2MT+7rFcX78Jfz6SDpoeboAdUnb2uS9FC+9eze8UvnivFk47C8T3G8yH0Dws27F5bJvNK2/rw/iN+jt98rue4PJmNgkPSYC0kPAOgfca6tl5Meaec49zXpeJ4q274qX6vWnXtv+bI+17f2JQN6dZ56ACDLauecd3QfwvmyP9m//1PZaACh75u37BYnPY7OKZ6vytl7GUmvJU56lPZXup+7etLjxDkH90ot15/D+xFextl76XmpngHXkHqXFdfxpM4L+z6vhWUys7RtOFOJ3qVgheP3LI41SexJ3r80saG38dcxJ38Qh06886fWmYNcP+ZB0gMA+keca8v1fdT0ZNIj6BybTmTYl923S/dRXr/008ajffnz9DpbR9acZ9qxTbfLDdSd9LhGON91pvdzN7864o4dHzM+t8p9Uc5cf+k6RHafh+cY7+/ofoaSc7AJDLPbM+f8+r1SF/LCdSgv1TPgOoeD0ShRoet08i7aup99T80y+TWz0rbhr6Gl75K8H+ajWea/Kv67k4017nPh/UvIdQfxIReH0vOsx5XcOvM4rGcYEkkPAOgfca4t1/dR03eSHim/I3m8j13Y8TT7zv39h2Rf1Z9WHpxntsMt6742CA7npwOA4Pi5Y2bPfxd3yJPzePE6hN6HOqe9eMev7u/gfkb0eb99DKV6rzL32l9+6r6YazlVz4ALyTuTFcUL855575ZmB/bxe6eZZS8lPbLv0jE/ZsXvUfj5+P1LyHUHiYlMHHo3rsTrTOSwnmFIJD0AoH/EubZc30dNTyY94s6j/uw62raUkh6F9Q3TqTXL9uMk+8omDfwOcaZzLHLHtyV3uUf3IZxfSXrkzjWeV7kvyXm8eB3i6Fq06v4O7mckTNbYQZj7fOacq/cqc6/95afvy8l6BlxI6mNW/F7k3hNbpz/26y3Z9TyFmBW/R+l7lX//EnIOmfYh2NWZd/50XJiDXDfmQdIDAPpHnGvL9X3U9FzSQ8+PBrH+aqWf9tXWT+hOt+kQJ/uqdtwznWOhz6HQyY4E17uJfyqaGYj7x8kd0z//E/clfy/PX4dI9uGr7u/gfkaS5+lf25lzzq0TPOszSY/X7ovZ3mxTvEdAY4eD0Tje5eq5m/epP2Sam+foZccxK36Piu+V9/4lZFkQf4+SHgfbO2fWmQhJj7mQ9ACA/hHn2nop6aHn+R3HpONrOqRBx/doAKyF6ye8jmqyL7etd47hOkeDdPvtg3RBnj1n/6vYunMfdKDtPr15Zh03SDHnsu3D7vM46ZHel/T6X7wORe/jcP3a/o7uZyhJeij7cc+cc+VeKeF12Hu1LX/9vphjHNUz4Dqnkx6Zel56z8J3prbcya+nP1ZiVry//P4t7/1LnEl6ZM4zdWadeZD0mAtJDwDoH3GurXLSQzqxfskMBs3g3q2jOq7yr5K49bYBqyq2s1lcX3fs3TJTtj5qZl+uA7ytX+0cO7YD7G8bDCgi/rGz65r9rXf/fKJOfLAPtb3+vO+neF9E9vpfu47iwEMr7a90P3e5pId5ru5+nDjn+F4lAz7/Pqv50b2sHuPlegZcQ+qdLxuHt3epHv/yy0RtuROt570TpZhVTHqU3r+YrJu5rnT9M7HwtXg5Mrl2zIOkBwD0jzjXluv7qCmdoPeZzvRhxx1/kyQ9gDERh3EF6tlcSHoAQP+Ic22R9PgIkh5NkfTAJIjDuAL1bC4kPQCgf8S5tkh6fARJj6ZIemASxGFcgXo2F5IeANA/4lxbJD0AoBPEYVyBejYXkh4A0D/iXFtB0oNCoVAoFMr4RTpXFAqFQqFQKDMU6ftsSQ8AwPcQh3EF6tlcpLP360a4BgAoIc61RdIDADpBHMYVqGdzIekBAP0jzrVF0gMAOkEcxhWoZ3Mh6QEA/SPOtUXSAwA6QRzGFahncyHpAQD9I861RdIDADpBHMYVqGdzIekBAP0jzrVF0uMi9/Xf8996t58AIDVKHI7j3V/in95W3Zd//5bn7WFn4k9o7+dC0gMA+keca8v1fdQ07ATtHU2/rM/Zhu2fug9/6fS/Kz33NoOGx22JjvPvuTA6AV4m706OeZfjuPN43hb/vfOXl5aJ2vK/iePd2/HvcXsuJDs+Tp455kHSAwD6R5xry/V91DST9Ig6qabjfb4D+nZHN+OT+3rFJ+6DeOf8/3rN8fYmOfH5AYTe73JTwyhLD1R+J/Hx1/sMfEo6GL0/VzVP5seJCV1vvffO/1xadubzX+n9ee9U/Pm0+5pcN/4urWcYGUkPAOgfca4t1/dR03rSQ7zSOX67o5vxyX294hP3Qbxz/n+95nR7M4D69G1Mkh7KX8/9Sr90rhhbNg7LuxUP/nPfgHDz7oVlMq+0rT/vD+J36u13TK77g8kYGCQ95kLSAwD6R5xr6+WkR9o5zn1NOp6nyravyteqdefeW76sz/WtfckAX52nHgDIsto55/3tPuzS/ZTWj5epcvb+edJj5pIepf2V7uGunvSonLO+l94y/Tm9H+GlxD8BPnFfXqpbwPWkDmbF9T2p/8K+32thmcwsbRvOVKL3Kljh+J2LY08Si5J3MU1s6G38dczJH8SkE+//qXXmINePeZD0AID+Eefacn0fNT2Z9Ag6x6YTGfZl9+3SfZTXL/208Whf/jy9ztaRNeeZdmzT7XKDdic9rpPeh9I+w/2cO4cz1/zKuYf3R9T2d3QPQ8k52CSG2W3tGPHy3DHNOt4u5GK8dU7cl5fqFvAdh4PRKFGh63fyXtr3IPvOmmXyK2elbcNfSUvfK3lXzEezzH9t/PcoG3vc58K7mJDrDuLbcXzwj5e8/6fWmcdhPcOQSHoAQP+Ic225vo+avpP0SPkdyeN97MKOp9l37m9BJPuq/rTy4DyzHW5Z99UBsbf/E/usd/rTc0iO/c65q3PcS3S/qvvzrrHADKIOjlM7Rm558mzTAVawzqn7Yq7lVN0CvkTen6xvJD2y79WxUuwPPx+/i4mDpEfwup55/0/FiHkc1jMMiaQHAPSPONeW6/uo6cmkR9x51J9dR9uWUtKjsL5hOrVm2X6cZF9/Snq4/Ycld7mn7sOJfQb7OXkOybE/de5OdX8H9zASJq7swMt9rh0j9xyTeWeSHoVjbE7WLeBLpG5mxe9EKf596tdbsut5cu/dQexP37H8u5iQc8i0D8Guzrz/p2PEHOS6MQ+SHgDQP+JcW67vo6bnkh56fjSg9Vcr/bSvtn5Cd7pNhzjZV7XjnukcC30OhU525Px9KO8z2M/Jc8jfv7+f+6a6v4N7GEmeod6v3a52jNzy5NmeSXqcvy9aqW4BX3I4GI3fiVydd/M+9YdMc/McvSx8J89/0yPivYsJWRa0D0dJj4PtnTPrTISkx1xIegBA/4hzbb2U9NDz/I5j0vE1HdKg43s0GNbC9RNeRzXZl9vWO8dwnaMBu/0mQrog69R9OLHPcD/nziG95r+fe6i2v6N7GMolrvZjnzvG9lV3W0fihFZ4LfbZb+u8dl+0Yt0CvuN00iNT50vvXPj+1JY7+fX0xzOxv7p/y3sXE2eSHpnzTJ1ZZx4kPeZC0gMA+keca6uc9JBOrF8yA0M94N3WUR3Xm9dJ3QawqtjOZnF93bF3y0zZ+qiZfbkO8LZ+tXPs2A6wv200yHbO3ofaPtNO/4lzyF7zi+eevwGe0v5K93CXS3qYZ+kGMpVz9q9T5icDPOE/a7VMb+OvUznGy3ULuJ7UQV82/mzvVT3+5ZeJ2nInWs97P0qxPI49wefSuxiTdTPXla5/Ji6ej52jk2vHPEh6AED/iHNtub6PmtIJQieySQ9gfMRhXIF6NheSHgDQP+JcWyQ90B+SHpgUcRhXoJ7NhaQHAPSPONcWSQ/0h6QHJkUcxhWoZ3Mh6QEA/SPOtUXSAwA6QRzGFahncyHpAQD9I861FSQ9KBQKhUKhjF+kc0WhUCgUCoUyQ5G+j056yAcAwPcQh3EF6tlcRnje1FkAoyPOtUXSAwA6QRzGFahncxnheVNnAYyOONcWSQ8A6ARxGFegns1lhOdNnQUwOuJcWyQ9AKATxGFcgXo2lxGeN3UWwOiIc22R9ACAThCHcQXq2VxGeN7UWQCjI861RdIDADpBHMYVqGdzGeF5U2cBjI441xZJDwDoBHEYV6CezWWE502dBTA64lxbJD0AoBPEYVyBejaXEZ43dRbA6IhzbZH0AIBOEIdxBerZXEZ43tRZAKMjzrVF0gMAOkEcxhWoZ3MZ4XlTZwGMjjjXFkkPAOgEcRhXoJ7NZYTnTZ0FMDriXFskPQCgE8RhXIF6NpcRnjd1FsDoiHNtkfQAgE4Qh3EF6tlcRnje1FkAoyPOtUXSAwA6QRzGFahncxnheVNnAYyOONcWSQ8A6ARxGFegns1lhOdNnQUwOuJcWyQ9AKATxGFcgXo2lxGeN3UWwOiIc22R9ACAThCHcQXq2VxGeN7UWQCjI861RdIDADpBHMYVqGdzGeF5U2cBjI441xZJDwDoBHEYV6CezWWE502dBTA64lxbJD0AoBPEYVyBejaXEZ43dRbA6IhzbW1JD/kfCoVCoXy3SKNHoVAoFAqFQqFQPlOkj70lPQAA30McxhWk8cc8Rnje1FkAoyPOtUXSAwA6QRzGFehYzYWkBwD0jzjXFkkPAOgEcRhXoGM1F5IeANA/4lxbJD0AoBPEYVyBjtVcSHoAQP+Ic22R9ACAThCHcQU6VnMh6QEA/SPOtUXSAwA6QRzGFehYzYWkBwD0jzjX1kHS4/5c1WeZF5T1bpdfzZ3Pqv4PAMYUxmGgDTpWcyHpAQD9I8615frYatpP0uNxW/TxltvDziHpAWB8EveA1uhYzYWkBwD0jzjXlutjq2ku6bE8t7zDhdKkBwCMj6QHrkDHai4kPQCgf8S5tt5MeuS+eeHPezxvi/r/5fa839bnoufL59Xbn1pnNckNKcsqW9nt3Pq2rPfc8R7Pu9p+27cqixxP7//M8SW5Ei4z2wLAd0gsAlqjYzUXkh4A0D/iXFuuj62muaRHWMq/bpJJenjbbmW5FZIbZ5Mehf2fOr6c7mo/r891VWX5zrdaAMCRmAS0RsdqLiQ9AKB/xLm2XB9bTdskPZabfFIeN/utCrXcJRzk/81C/a0N9ydDqn/Tw9+XW+Wxn7OfPMkeXz57SQ++4QGgBxKTgNboWM2FpAcA9I8415brY6tpLunxx19vCbb3lruEw8EfRq0mPQ62v6+yjp/0ODi+m+P9eo1Oftj5APANEouA1uhYzYWkBwD0jzjXlutjq+k7SQ9vefBNipNJj+1bFo/n/fbCNz2Sb4oo2W96lJMehjl2eDwAuJ7EIaA1OlZzIekBAP0jzrXl+thq+krSY//1kbRIUqGWdNgTFH6Jkx77/DhhUTh+8DdDjpMe+o+Ybn/Pw2xL0gPAN0kcAlqjYzUXkh4A0D/iXFuuj62mryQ9FPlmxZZ4WJ7r7W4TDWeSHkqw/T/7r7c44b5v27c4XNJDUfP8f/1F1tv3ceb47psppoTHB4DrSSwCWqNjNReSHgDQP+JcW66PraZ0tgHgm4jDuAIdq7mQ9ACA/hHn2iLpAQCdIA7jCnSs5kLSAwD6R5xri6QHAHSCOIwr0LGaC0kPAOgfca4tkh4A0AniMK5Ax2ouJD0AoH/EubaCpAeFQqFQKJTxi3SuKBQKhUKhUGYo0vfZkh4AgO8hDuMK1LO5SGfv141wDQBQQpxri6QHAHSCOIwrUM/mQtIDAPpHnGuLpAcAdII4jCtQz+ZC0gMA+keca4ukBwB0gjiMK1DP5kLSAwD6R5xri6QHAHSCOIwrUM/mQtIDAPpHnGuLpEfJfVU3Zn3e7UcAaIk4/IPebCfuq/uXVJbn7WFnXoR6NheSHgDQP+JcW67vo6b5TtDeMct30B63JVquyjpImoCkB4ALSfwMPG7P5SC2prH533PZgvPjeVv8ZXEcKy2vbZsqtRNDtxHinXZCP9frkx2OPAPMg6QHAPSPONeW6/uoadwJuj9X6ZwuN9UF9ujO2t7B0x3aYB2z3d75/mEkPQBcKIzDEku9+GMTIC626kTDQfJAL/Pi8iufa+uG6u3E0G2EeKed+HLbQtJjLiQ9AKB/xLm2DpMe5Y7uLu3Q2m1H+EkeSQ8AF6oNRv3Yehhnc98i8OeVlt8r20bOtBNDtxHi3aTHifa1FZIecyHpAQD9I861dZD0MD+JO9MnTTq0uoNc2VZ3ElWn15Wg8/fi17K3A53bbr3bn0zqkuvce8tuUWe2eN4A8DcSV0pOJT2yg3AvppeWr5VtA+faibfaCHEYb99tI0Rp2xNthPhjO6Gfm798Oz85rtqfTjzJMnfsF683WZ6S9TAPkh4A0D/iXFuu76OmXieo8JO9mO7Qbp0tW0rJgOK+befN66SGHeZ0uXQg13t+fq5D63di9TqH+3YdX7uPF+4JALwjiMOxKFmQDJ5tLDMxOT8wll8pKS03+zreNnAyJr7cRojDfcdx2u6/2kbI/+WX7dfr7sFRGyHifbzZTkhiJLkH0b601683XJ4nzwDzIOkBAP0jzrXl+j5q6nWC9E+q/I6b/5MvVbwOVa6DFXYkY2Zf2d/nznYYZX0776hDWfrJ5TbTdA69vmG4XW7fwX4L5w0AHxDE4UA6uA3Z5SoW33WSIY6HZvlHkx4n24nX2whxEG/fbSNEtZ0w13nYRohPtROyTXRPwnOx3rpeb/mB43qGEZH0AID+Eefacn0fNfU6QbojFXW+rLgDm/2pkt1+WaRzvXeC9/2Zzp2Z73XO7Hb+Nq7obbOdVqXamRWVDm1uH8m8g/MGgA+Q2JKTfuMgQ8crFZfiX7fQvHhYipev/HrLyXbivTZCZOLtu22EKF23nnki6ZHbRzIvc94x2SZ5npn7XLve2vIDshzzIOkBAP0jzrXl+j5q6neC7E/9Mp3sV5IepU7XRncY/Q5tIZlwtDzXEU06kJUObW7f2f1a/nkDwAfkBqP1b0VYLl7lYpk/r7T8pT9keq6d+HMbIVy8zZ2f7/BclWw8fzHpkdt/dr+WO+/4fGR+ct+Okh5vXm8BSY+5kPQAgP4R59o6SHootlMad8zOJD1O/VTSCTptthN92BNOl8uxtj88F80Pz6HWoTX72L6W7K7/qDP7ZmcTAI7Ecfgw4SGxKwxmXgzMx8n9c2l5bdvIiXbiz22E2OJten6h/Pmbj7V2wmwb7DpJaHyonTib9MhcT6i2PI+kx1xIegBA/4hzbR0nPTTbodKdur34/SvdoY2WFzuzuhMZrp/t5AXrpJ3Obdm2cTQ/OYcTHdqtAytFzdef7fLqeQPA30hc2QTxyC/e4N+bH/4diVo8LC2vbRsrtxMvtxGiGG/fbSNE6dpOtBHiE+2ErHfwTNL1a9dbW56SdTAPkh4A0D/iXFuu76OmdIIA4JuIw7gC9WwuJD0AoH/EubZIegBAJ4jDuAL1bC4kPQCgf8S5tkh6AEAniMO4AvVsLiQ9AKB/xLm2SHoAQCeIw7gC9WwuJD0AoH/EubaCpAeFQqFQKJTxi3SuKBQKhUKhUGYo0vfZkh4AgO+RoAy0Rj2bywjPmzoLYHTEubZIegBAJ2jwcAXq2VxIegBA/4hzbZH0AIBO0ODhCtSzuZD0AID+EefaIukBAJ2gwcMVqGdzIekBAP0jzrVF0gMAOkGDhytQz+ZC0gMA+keca4ukBwB0ggYPV6CezYWkBwD0jzjXFkkPAOgEDR6uQD2bC0kPAOgfca4tkh4A0AkaPFyBejYXkh4A0D/iXFskPQCgEzR4uAL1bC4kPQCgf8S5tkh6AEAnaPBwBerZXEh6AED/iHNtkfQAgE7Q4OEK1LO5kPQAgP4R59oi6QEAnaDBwxWoZ3Mh6QEA/SPOtUXSAwA6QYOHK1DP5kLSAwD6R5xri6QHAHSCBg9XoJ7NhaQHAPSPONcWSQ8A6AQNHq5APZsLSQ8A6B9xri2SHgDQCRo8XIF6NheSHgDQP+JcWyQ9AKATNHi4AvVsLiQ9AKB/xLm2SHoAQCdo8HAF6tlcSHoAQP+Ic22R9ACATtDg4QrUs7mQ9ACA/hHn2iLpAQCdoMHDFahncyHpAQD9I861FSQ9KBQKhUKhUCgUCoVCoVBGKjrpof8LAAAAAAAwlOfz/wfaMmKSVLPEUwAAAABJRU5ErkJggg==;" vertex="1" parent="1">
          <mxGeometry x="430" y="230" width="1085" height="1179" as="geometry" />
        </mxCell>
        <mxCell id="ZofLF1qtnVRph-A0xOYS-2" value="&lt;h3&gt;Here We can Change Month According cost is calculate&lt;/h3&gt;" style="rounded=1;whiteSpace=wrap;html=1;fillColor=#1CF7FF;" vertex="1" parent="1">
          <mxGeometry x="870" y="320" width="220" height="40" as="geometry" />
        </mxCell>
        <mxCell id="ZofLF1qtnVRph-A0xOYS-4" value="" style="shape=flexArrow;endArrow=classic;html=1;rounded=0;width=4.2105263157894735;endSize=5.105263157894736;endWidth=15.567867036011082;fillColor=#FF2605;" edge="1" parent="1">
          <mxGeometry width="50" height="50" relative="1" as="geometry">
            <mxPoint x="940" y="400" as="sourcePoint" />
            <mxPoint x="990" y="361" as="targetPoint" />
            <Array as="points">
              <mxPoint x="1000" y="411" />
            </Array>
          </mxGeometry>
        </mxCell>
        <mxCell id="ZofLF1qtnVRph-A0xOYS-5" value="&lt;b&gt;Catalyst Some Fix Price&lt;/b&gt;" style="rounded=1;whiteSpace=wrap;html=1;fillColor=#1CF7FF;" vertex="1" parent="1">
          <mxGeometry x="1160" y="450" width="220" height="40" as="geometry" />
        </mxCell>
        <mxCell id="ZofLF1qtnVRph-A0xOYS-6" value="&lt;b&gt;Assume Some Numbers&lt;/b&gt;" style="rounded=1;whiteSpace=wrap;html=1;fillColor=#1CF7FF;" vertex="1" parent="1">
          <mxGeometry x="1540" y="680" width="220" height="40" as="geometry" />
        </mxCell>
        <mxCell id="ZofLF1qtnVRph-A0xOYS-7" style="edgeStyle=orthogonalEdgeStyle;rounded=0;orthogonalLoop=1;jettySize=auto;html=1;entryX=0.922;entryY=0.382;entryDx=0;entryDy=0;entryPerimeter=0;" edge="1" parent="1" source="ZofLF1qtnVRph-A0xOYS-6" target="ZofLF1qtnVRph-A0xOYS-1">
          <mxGeometry relative="1" as="geometry" />
        </mxCell>
        <mxCell id="ZofLF1qtnVRph-A0xOYS-8" style="edgeStyle=orthogonalEdgeStyle;rounded=0;orthogonalLoop=1;jettySize=auto;html=1;entryX=0.903;entryY=0.229;entryDx=0;entryDy=0;entryPerimeter=0;" edge="1" parent="1" source="ZofLF1qtnVRph-A0xOYS-5" target="ZofLF1qtnVRph-A0xOYS-1">
          <mxGeometry relative="1" as="geometry" />
        </mxCell>
        <mxCell id="ZofLF1qtnVRph-A0xOYS-11" value="" style="edgeStyle=orthogonalEdgeStyle;rounded=0;orthogonalLoop=1;jettySize=auto;html=1;" edge="1" parent="1" source="ZofLF1qtnVRph-A0xOYS-9" target="ZofLF1qtnVRph-A0xOYS-10">
          <mxGeometry relative="1" as="geometry" />
        </mxCell>
        <mxCell id="ZofLF1qtnVRph-A0xOYS-9" value="" style="strokeWidth=2;html=1;shape=mxgraph.flowchart.annotation_2;align=left;labelPosition=right;pointerEvents=1;direction=west;" vertex="1" parent="1">
          <mxGeometry x="947.5" y="1160" width="50" height="220" as="geometry" />
        </mxCell>
        <mxCell id="ZofLF1qtnVRph-A0xOYS-10" value="&lt;h3&gt;&lt;b&gt;Information About&amp;nbsp;&lt;span style=&quot;font-size: 12px;&quot;&gt;Flowchart&lt;/span&gt;&lt;/b&gt;&lt;/h3&gt;" style="whiteSpace=wrap;html=1;align=center;strokeWidth=2;fillColor=#1CF7FF;" vertex="1" parent="1">
          <mxGeometry x="1042.5" y="1240" width="120" height="60" as="geometry" />
        </mxCell>
        <mxCell id="ZofLF1qtnVRph-A0xOYS-14" style="edgeStyle=orthogonalEdgeStyle;rounded=0;orthogonalLoop=1;jettySize=auto;html=1;entryX=0;entryY=0.5;entryDx=0;entryDy=0;" edge="1" parent="1" source="ZofLF1qtnVRph-A0xOYS-12" target="ZofLF1qtnVRph-A0xOYS-13">
          <mxGeometry relative="1" as="geometry" />
        </mxCell>
        <mxCell id="ZofLF1qtnVRph-A0xOYS-12" value="" style="strokeWidth=2;html=1;shape=mxgraph.flowchart.annotation_2;align=left;labelPosition=right;pointerEvents=1;direction=west;" vertex="1" parent="1">
          <mxGeometry x="955" y="1020" width="50" height="100" as="geometry" />
        </mxCell>
        <mxCell id="ZofLF1qtnVRph-A0xOYS-13" value="&lt;h3&gt;Server Cost Calculation&lt;/h3&gt;" style="whiteSpace=wrap;html=1;align=center;strokeWidth=2;fillColor=#1CF7FF;" vertex="1" parent="1">
          <mxGeometry x="1040" y="1040" width="120" height="60" as="geometry" />
        </mxCell>
        <mxCell id="ZofLF1qtnVRph-A0xOYS-18" value="" style="edgeStyle=orthogonalEdgeStyle;rounded=0;orthogonalLoop=1;jettySize=auto;html=1;" edge="1" parent="1" source="ZofLF1qtnVRph-A0xOYS-15" target="ZofLF1qtnVRph-A0xOYS-16">
          <mxGeometry relative="1" as="geometry" />
        </mxCell>
        <mxCell id="ZofLF1qtnVRph-A0xOYS-15" value="" style="strokeWidth=2;html=1;shape=mxgraph.flowchart.annotation_2;align=left;labelPosition=right;pointerEvents=1;direction=east;" vertex="1" parent="1">
          <mxGeometry x="375" y="530" width="50" height="430" as="geometry" />
        </mxCell>
        <mxCell id="ZofLF1qtnVRph-A0xOYS-16" value="&lt;h3&gt;Data Store Calculation&lt;/h3&gt;" style="whiteSpace=wrap;html=1;align=center;strokeWidth=2;fillColor=#1CF7FF;" vertex="1" parent="1">
          <mxGeometry x="200" y="720" width="120" height="60" as="geometry" />
        </mxCell>
      </root>
    </mxGraphModel>
  </diagram>
</mxfile>
